<svg width="49" height="49" viewBox="0 0 49 49" fill="none" xmlns="http://www.w3.org/2000/svg">
<g clip-path="url(#clip0_1_257)">
<path d="M48.5763 10.5948L45.7258 7.7531L48.6185 4.61318C49.4652 3.69404 48.8096 2.2049 47.5628 2.2049H36.3952V1.43555C36.3952 0.642742 35.7525 0 34.9598 0C34.167 0 33.5243 0.642742 33.5243 1.43555V18.1836H28.344C27.5512 18.1836 26.9086 18.8263 26.9086 19.6191V29.4075H15.1124C14.3196 29.4075 13.6769 30.0502 13.6769 30.843V37.4466H1.88085C1.08805 37.4466 0.4454 38.0894 0.4454 38.8822V47.5645C0.4454 48.3573 1.08814 49 1.88085 49H41.8193C42.6121 49 43.2547 48.3573 43.2547 47.5645V19.6191C43.2547 18.8263 42.612 18.1836 41.8193 18.1836H36.3953V13.047H47.5629C48.839 13.047 49.4812 11.4969 48.5763 10.5948ZM3.3163 40.3177H13.6769V46.1289H3.3163V40.3177ZM16.5478 32.2786H26.9085V46.1289H16.5478C16.5478 45.8217 16.5478 32.5655 16.5478 32.2786ZM40.3838 46.1289H29.7795C29.7795 45.5191 29.7795 21.3158 29.7795 21.0547H40.3838V46.1289ZM42.7214 8.81196L44.0895 10.1759H36.3951V5.076H44.2882L42.6791 6.82258C42.1568 7.38953 42.1755 8.26779 42.7214 8.81196Z" fill="#4CAC00"/>
<path d="M1.99503 30.1062C7.04633 27.9696 11.5897 24.9041 15.4989 20.9946C18.6851 17.8083 21.3103 14.2018 23.3285 10.2435L24.3608 12.3251C24.7129 13.0354 25.5741 13.3256 26.2846 12.9734C26.9949 12.6211 27.2852 11.7598 26.9329 11.0495L24.5743 6.29305C24.2862 5.71194 23.6371 5.39067 22.9926 5.52599L17.8868 6.60055C17.111 6.76382 16.6144 7.52513 16.7777 8.301C16.92 8.97714 17.5164 9.44121 18.181 9.44121C18.3808 9.44121 18.2521 9.45776 20.7768 8.92642C18.8943 12.6215 16.4444 15.9889 13.4691 18.9644C9.82258 22.6111 5.586 25.47 0.876831 27.4618C0.146616 27.7707 -0.194949 28.6129 0.113981 29.3431C0.422815 30.074 1.26548 30.4148 1.99503 30.1062Z" fill="#4CAC00"/>
</g>
<defs>
<clipPath id="clip0_1_257">
<rect width="49" height="49" fill="white"/>
</clipPath>
</defs>
</svg>
