<svg width="49" height="49" viewBox="0 0 49 49" fill="none" xmlns="http://www.w3.org/2000/svg">
<path d="M7.68058 23.4306H17.2084H18.5695C20.4167 23.4306 20.4167 20.5139 18.5695 20.5139C15.3611 20.5139 12.25 20.5139 9.04169 20.5139C8.55558 20.5139 8.16669 20.5139 7.68058 20.5139C5.83336 20.5139 5.83336 23.4306 7.68058 23.4306Z" fill="#4CAC00"/>
<path d="M28.9722 25.5695C22.75 25.5695 16.5278 25.5695 10.4028 25.5695C9.52775 25.5695 8.65275 25.5695 7.77775 25.5695C5.93053 25.5695 5.93053 28.4861 7.77775 28.4861H26.3472H28.9722C30.8194 28.4861 30.8194 25.5695 28.9722 25.5695Z" fill="#4CAC00"/>
<path d="M22.1668 30.625C17.889 30.625 13.7084 30.625 9.43064 30.625C8.8473 30.625 8.26397 30.625 7.58341 30.625C5.73619 30.625 5.73619 33.5417 7.58341 33.5417H20.3195H22.1668C24.1112 33.5417 24.1112 30.625 22.1668 30.625Z" fill="#4CAC00"/>
<path d="M47.9306 27.2222C48.7083 26.25 49 24.8889 48.5139 23.625C48.3194 23.2361 48.125 22.8472 47.8333 22.5556C47.5417 22.2639 47.25 21.9722 46.9583 21.6806C45.7917 20.5139 44.5278 19.25 43.3611 18.0833C43.0694 17.7917 42.6806 17.4028 42.3889 17.1111C41.8056 16.5278 40.9306 16.5278 40.3472 17.1111C40.1528 17.3056 40.0556 17.4028 39.8611 17.5972L39.1806 16.8194C40.5417 14.9722 41.3194 12.8333 41.3194 10.5C41.3194 7.68056 40.25 5.05556 38.2083 3.11111C36.2639 1.16667 33.6389 0 30.8194 0C28 0 25.375 1.06944 23.4306 3.11111C22.8472 3.69444 22.3611 4.27778 21.9722 4.95833H3.69444C1.65278 4.95833 0 6.70833 0 8.75V45.2083C0 47.3472 1.65278 49 3.69444 49H24.5C25.4722 49 26.4444 48.6111 27.125 47.8333L30.9167 43.8472L35.4861 39.0833V38.9861C36.1667 38.3056 36.5556 37.3333 36.5556 36.3611V19.25C36.75 19.1528 36.8472 18.9583 37.0417 18.8611L37.8194 19.6389C37.625 19.8333 37.5278 19.9306 37.3333 20.125C36.75 20.7083 36.75 21.5833 37.3333 22.1667C39.0833 23.9167 40.8333 25.7639 42.6806 27.5139C43.8472 28.5833 45.6944 28.875 47.0556 28C47.4444 27.8056 47.7361 27.5139 47.9306 27.2222ZM25.4722 5.15278C26.9306 3.69444 28.7778 2.91667 30.8194 2.91667C32.8611 2.91667 34.7083 3.69444 36.1667 5.15278C37.625 6.61111 38.4028 8.45833 38.4028 10.5C38.4028 12.5417 37.625 14.3889 36.1667 15.8472C34.7083 17.3056 32.8611 18.0833 30.8194 18.0833C28.7778 18.0833 26.9306 17.3056 25.4722 15.8472C22.5556 12.9306 22.5556 8.16667 25.4722 5.15278ZM29.3611 41.4167L26.8333 44.0417V38.8889H31.6944L29.3611 41.4167ZM33.7361 35.9722H25.8611C24.7917 35.9722 24.0139 36.8472 24.0139 37.8194V46.1806H3.69444C3.30556 46.1806 2.91667 45.7917 2.91667 45.3056V8.84722C2.91667 8.36111 3.30556 7.97222 3.69444 7.97222H20.7083C19.8333 11.4722 20.7083 15.2639 23.4306 17.9861C25.375 19.9306 28 21.0972 30.8194 21.0972C31.7917 21.0972 32.7639 21 33.7361 20.7083V35.9722ZM45.2083 25.5694C45.0139 25.5694 44.9167 25.4722 44.8194 25.375C44.5278 25.0833 44.1389 24.6944 43.8472 24.4028C42.7778 23.3333 41.7083 22.2639 40.6389 21.1944C40.9306 20.9028 41.2222 20.6111 41.5139 20.3194C42.875 21.6806 44.2361 23.0417 45.6944 24.5L45.7917 24.5972C45.8889 24.6944 45.9861 24.8889 45.9861 25.0833C45.9861 25.2778 45.8889 25.375 45.8889 25.4722C45.5972 25.5694 45.4028 25.6667 45.2083 25.5694Z" fill="#4CAC00"/>
</svg>
