<svg width="46" height="49" viewBox="0 0 46 49" fill="none" xmlns="http://www.w3.org/2000/svg">
<path d="M33.456 18.7308C37.3215 18.7308 40.4661 15.5819 40.4661 11.7111V7.01973C40.4661 3.14893 37.3215 0 33.456 0H12.5489C8.68337 0 5.53876 3.14893 5.53876 7.01973V11.7127C5.53876 15.5835 8.68337 18.7324 12.5489 18.7324H17.4768L21.0106 22.5621C21.5229 23.1163 22.2487 23.4336 23.0024 23.4336C23.7562 23.4336 24.482 23.1163 24.9943 22.5621L28.5281 18.7324L33.456 18.7308ZM26.7957 16.2462L23.0024 20.3571L19.2092 16.2462C18.93 15.942 18.5359 15.771 18.1238 15.771H12.5489C10.314 15.771 8.49453 13.949 8.49453 11.7111V7.01973C8.49453 4.78177 10.3123 2.95983 12.5489 2.95983H33.4544C35.6893 2.95983 37.5087 4.78013 37.5087 7.01973V11.7127C37.5087 13.9507 35.6909 15.7726 33.4544 15.7726H27.8795C27.4689 15.771 27.0748 15.9436 26.7957 16.2462Z" fill="#4CAC00"/>
<path d="M16.5983 7.88635H16.0514C15.2353 7.88635 14.5735 8.54903 14.5735 9.36627C14.5735 10.1835 15.2353 10.8462 16.0514 10.8462H16.5983C17.4144 10.8462 18.0761 10.1835 18.0761 9.36627C18.0761 8.54903 17.4144 7.88635 16.5983 7.88635Z" fill="#4CAC00"/>
<path d="M23.275 7.88635H22.7298C21.9137 7.88635 21.252 8.54903 21.252 9.36627C21.252 10.1835 21.9137 10.8462 22.7298 10.8462H23.275C24.0911 10.8462 24.7529 10.1835 24.7529 9.36627C24.7529 8.54903 24.0911 7.88635 23.275 7.88635Z" fill="#4CAC00"/>
<path d="M29.9518 7.88635H29.4066C28.5905 7.88635 27.9287 8.54903 27.9287 9.36627C27.9287 10.1835 28.5905 10.8462 29.4066 10.8462H29.9534C30.7695 10.8462 31.4313 10.1835 31.4313 9.36627C31.4313 8.54903 30.7679 7.88635 29.9518 7.88635Z" fill="#4CAC00"/>
<path d="M41.2182 36.8301C42.655 35.4456 43.5582 33.5102 43.5582 31.3594C43.5582 27.1646 40.1492 23.751 35.9602 23.751C31.7712 23.751 28.3623 27.1646 28.3623 31.3594C28.3623 33.5102 29.2654 35.4456 30.7022 36.8301C27.8844 38.1686 25.9172 41.0216 25.9172 44.3465V45.3265C25.9172 46.767 26.9386 48.0084 28.3458 48.2765C30.85 48.7566 33.4117 49 35.9586 49C38.5055 49 41.0671 48.7566 43.5713 48.2765C44.9786 48.0068 46 46.767 46 45.3265V44.3465C46.0033 41.0232 44.036 38.1686 41.2182 36.8301ZM35.9619 26.7108C38.5219 26.7108 40.6041 28.7958 40.6041 31.3594C40.6041 33.9229 38.5219 36.008 35.9619 36.008C33.4018 36.008 31.3197 33.9229 31.3197 31.3594C31.3197 28.7958 33.4018 26.7108 35.9619 26.7108ZM43.0196 45.3709C38.714 46.1964 34.2557 46.221 29.9272 45.5172C29.5758 45.4564 29.2244 45.4005 28.8746 45.3265V44.3465C28.8746 41.3801 31.2835 38.9678 34.2459 38.9678H37.6762C40.6386 38.9678 43.0475 41.3801 43.0475 44.3465L43.0196 45.3709Z" fill="#4CAC00"/>
<path d="M15.301 36.8301C16.7379 35.4456 17.641 33.5102 17.641 31.3594C17.641 27.1646 14.232 23.751 10.043 23.751C5.85407 23.751 2.44508 27.1646 2.44508 31.3594C2.44508 33.5102 3.34823 35.4456 4.78506 36.8301C1.96723 38.1686 0 41.0216 0 44.3465V45.3265C0 46.767 1.02138 48.0084 2.42866 48.2765C4.93285 48.7566 7.49452 49 10.0414 49C12.5883 49 15.15 48.7566 17.6542 48.2765C19.0614 48.0068 20.0828 46.767 20.0828 45.3265V44.3465C20.0861 41.0232 18.1189 38.1686 15.301 36.8301ZM10.043 26.7108C12.6031 26.7108 14.6853 28.7958 14.6853 31.3594C14.6853 33.9229 12.6031 36.008 10.043 36.008C7.48302 36.008 5.40085 33.9229 5.40085 31.3594C5.40085 28.7958 7.48302 26.7108 10.043 26.7108ZM17.1024 45.3709C12.7968 46.1964 8.33856 46.221 4.00999 45.5172C3.65859 45.4564 3.30718 45.4005 2.95741 45.3265V44.3465C2.95741 41.3801 5.36637 38.9678 8.3287 38.9678H11.759C14.7214 38.9678 17.1303 41.3801 17.1303 44.3465L17.1024 45.3709Z" fill="#4CAC00"/>
</svg>
