<svg width="49" height="49" viewBox="0 0 49 49" fill="none" xmlns="http://www.w3.org/2000/svg">
<g clip-path="url(#clip0_1_237)">
<path d="M47.5645 22.5351H41.8223C41.0295 22.5351 40.3867 23.1778 40.3867 23.9706V24.3115H36.7416L36.547 24.1299C35.9261 23.5505 35.2113 23.1867 34.4144 23.0426V20.636C34.4144 19.2146 33.4868 18.0065 32.2055 17.5831V8.23108C32.2055 3.69408 28.4974 0.00280762 23.9395 0.00280762H23.7847C22.9919 0.00280762 22.3492 0.64555 22.3492 1.43835V2.44793L15.8452 5.8385C15.3707 6.08579 15.0732 6.57637 15.0732 7.11144V10.8226C15.0732 11.6154 15.716 12.2582 16.5088 12.2582H19.8108L17.1057 17.4973C15.666 17.816 14.5856 19.1018 14.5856 20.6359V24.3173H8.61328V23.9706C8.61328 23.1778 7.97054 22.5351 7.17773 22.5351H1.43555C0.642742 22.5351 0 23.1778 0 23.9706V40.4432C0 41.236 0.642742 41.8788 1.43555 41.8788H7.17773C7.97054 41.8788 8.61328 41.236 8.61328 40.4432V40.1562H10.0733L13.1206 46.5127C13.8688 48.0735 15.4423 48.9974 17.0643 48.9974C17.6542 48.9974 18.2504 48.8752 18.8157 48.617C19.817 48.16 20.5598 47.3622 20.9696 46.4225C21.9481 46.7279 23.0377 46.6893 24.0387 46.232C25.0393 45.7752 25.7821 44.9768 26.192 44.0365C27.1712 44.3424 28.2612 44.3041 29.2616 43.8471C30.2627 43.39 31.0057 42.592 31.4155 41.6524C32.3939 41.9581 33.4836 41.9192 34.4847 41.4621C35.1297 41.1676 35.6902 40.7142 36.1187 40.1561H40.3867V40.4431C40.3867 41.2359 41.0295 41.8787 41.8223 41.8787H47.5645C48.3573 41.8787 49 41.2359 49 40.4431V23.9706C49 23.1778 48.3573 22.5351 47.5645 22.5351ZM17.9443 9.38707V7.98206L24.4483 4.59149C24.9228 4.34419 25.2203 3.85361 25.2203 3.31854V3.02645C27.5788 3.59885 29.3344 5.71523 29.3344 8.23108V17.4208H20.3763L23.4431 11.4812C23.6729 11.0362 23.6542 10.5036 23.3936 10.0758C23.1331 9.64806 22.6684 9.38707 22.1675 9.38707H17.9443ZM17.4567 20.636C17.4567 20.4496 17.6143 20.292 17.8008 20.292H31.1992C31.3857 20.292 31.5433 20.4495 31.5433 20.636V22.9717H27.7042C26.5704 22.9717 25.4602 23.4317 24.6583 24.2337L24.5746 24.3174H17.4566L17.4567 20.636ZM5.74219 39.0077H2.87109V25.4061H5.74219V39.0077ZM34.0596 38.0125C33.926 38.3833 33.6463 38.6887 33.2921 38.8505C32.5756 39.1778 31.7239 38.8624 31.3931 38.1478C31.0614 37.4311 30.2128 37.117 29.4942 37.445C28.7756 37.7732 28.4571 38.6201 28.7816 39.3403C29.1049 40.0583 28.7852 40.9084 28.0689 41.2355C27.3546 41.5617 26.5035 41.248 26.1716 40.536C25.8386 39.8214 24.9913 39.5092 24.2741 39.8366C23.5569 40.1641 23.2381 41.0089 23.5601 41.7287C23.8808 42.4455 23.5604 43.2941 22.8461 43.6205C22.1299 43.9478 21.278 43.6323 20.9472 42.9175C20.6154 42.2005 19.7668 41.8863 19.0481 42.2145C18.3294 42.5427 18.011 43.3896 18.3355 44.11C18.659 44.828 18.3394 45.6784 17.6231 46.0055C16.9165 46.328 16.058 45.9988 15.7095 45.2716L12.2715 38.1001C12.0328 37.6021 11.5295 37.2851 10.9771 37.2851H8.61328V27.1884H21.7036L19.8386 29.0534C19.0274 29.8646 18.5807 30.946 18.5807 32.0986C18.5807 33.2512 19.0274 34.3327 19.8386 35.1437C20.6498 35.955 21.7313 36.4018 22.884 36.4017C24.0365 36.4017 25.118 35.9549 25.929 35.1437L29.488 31.5847H31.4044L34.0154 36.9776C34.1697 37.2962 34.1853 37.6636 34.0596 38.0125ZM37.0079 37.2851C36.9752 36.7494 36.8393 36.2217 36.5996 35.7265L33.7354 29.8109C33.6804 29.6973 33.6113 29.5956 33.5329 29.504C33.2965 29.0357 32.8124 28.7138 32.252 28.7138H28.8934C28.5127 28.7138 28.1476 28.8651 27.8784 29.1344L23.8989 33.1138C23.63 33.3827 23.2695 33.5307 22.8839 33.5307C22.4982 33.5307 22.1377 33.3826 21.8687 33.1137C21.5998 32.8449 21.4518 32.4844 21.4518 32.0988C21.4518 31.7131 21.5998 31.3526 21.8687 31.0837L26.6886 26.2639C26.9561 25.9963 27.3264 25.8429 27.7043 25.8429H33.6086C34 25.8429 34.302 25.962 34.5882 26.229L35.1964 26.7967C35.4621 27.0449 35.8122 27.1828 36.1758 27.1828H40.3867V37.2851H37.0079ZM46.1289 39.0077H43.2578V25.4061H46.1289V39.0077Z" fill="#4CAC00"/>
</g>
<defs>
<clipPath id="clip0_1_237">
<rect width="49" height="49" fill="white"/>
</clipPath>
</defs>
</svg>
