<svg width="71" height="73" viewBox="0 0 71 73" fill="none" xmlns="http://www.w3.org/2000/svg">
<g clip-path="url(#clip0_109_541)">
<path d="M20.2078 15.1953H2.14185L23.6756 38.8893H41.7415L20.2078 15.1953ZM7.44297 17.5401H19.1695L36.4404 36.5445H24.7139L7.44297 17.5401Z" fill="#3A435C"/>
<path d="M38.3864 0L20.2078 14.2822H2.14185L6.11991 11.1578C15.319 3.93072 26.6836 0 38.3864 0Z" fill="#3A435C"/>
<path d="M47.3245 15.1123H29.2585L50.7923 38.8063H68.8582L47.3245 15.1123ZM34.5597 17.4571H46.2832L63.5571 36.4615H51.8306L34.5597 17.4571Z" fill="#3A435C"/>
<path d="M68.8582 39.7192L64.8802 42.8437C60.2821 46.4572 55.1382 49.2466 49.6858 51.132C44.2334 53.0203 38.4665 54.0015 32.6136 54.0015L50.7923 39.7192H68.8582Z" fill="#3A435C"/>
<path d="M4.55651 65.6662C4.21536 65.9805 3.74665 66.1791 3.24235 66.1791C2.16848 66.1791 1.29633 65.3194 1.29633 64.2433C1.29633 63.1673 2.16551 62.3076 3.24235 62.3076C3.74665 62.3076 4.21536 62.5033 4.55651 62.8264L5.47018 61.9074C4.89172 61.3531 4.1056 61.0122 3.24532 61.0122C1.46245 61.0122 0.0118408 62.4618 0.0118408 64.2433C0.0118408 66.0249 1.46245 67.4745 3.24532 67.4745C4.1056 67.4745 4.89172 67.1336 5.47018 66.5792L4.55651 65.6662Z" fill="#3A435C"/>
<path d="M13.987 61.0122C12.2042 61.0122 10.7535 62.4618 10.7535 64.2433C10.7535 66.0249 12.2042 67.4745 13.987 67.4745C15.7699 67.4745 17.2205 66.0249 17.2205 64.2433C17.2205 62.4618 15.7699 61.0122 13.987 61.0122ZM13.987 66.185C12.9131 66.185 12.041 65.3164 12.041 64.2433C12.041 63.1702 12.9102 62.3076 13.987 62.3076C15.0639 62.3076 15.9241 63.1762 15.9241 64.2433C15.9241 65.3105 15.055 66.185 13.987 66.185Z" fill="#3A435C"/>
<path d="M26.2179 65.7344L24.3252 61.0122H22.934V67.4745H24.2214V64.2433L25.5178 67.4745H26.9091L28.2054 64.2433V67.4745H29.4929V61.0122H28.1016L26.2179 65.7344Z" fill="#3A435C"/>
<path d="M37.0129 61.0122H35.2034V67.4715H36.4908V64.8896H37.0189C38.0838 64.8896 38.9471 64.021 38.9471 62.9539C38.9471 61.8867 38.0868 61.0122 37.01 61.0122H37.0129ZM37.0129 63.5942H36.4938V62.3076H37.0129C37.3719 62.3076 37.6596 62.5981 37.6596 62.9568C37.6596 63.3155 37.3689 63.5971 37.0129 63.5971V63.5942Z" fill="#3A435C"/>
<path d="M46.1467 61.0122L43.8091 67.4715H45.1826L45.8382 65.6662H47.8257L48.4813 67.4715H49.8548L47.5172 61.0122H46.1437H46.1467ZM46.3098 64.3708L46.829 62.9123L47.357 64.3708H46.3069H46.3098Z" fill="#3A435C"/>
<path d="M60.7804 61.0122H59.4929V65.3253L56.9091 61.0122H55.3992V67.4745H56.6866V63.1703L59.2793 67.4745H60.7804V61.0122Z" fill="#3A435C"/>
<path d="M69.3002 67.4745V64.3975L70.9882 61.0122H69.5494L68.6624 62.8027L67.7665 61.0122H66.3248L68.0128 64.3975V67.4745H69.3002Z" fill="#3A435C"/>
<path d="M0 70.6108H0.750522V72.9763H1.16583V70.6108H1.91635V70.2402H0V70.6108Z" fill="#3A435C"/>
<path d="M4.94218 70.2402L3.94543 72.9763H4.38448L4.5951 72.3657H5.63337L5.84696 72.9763H6.286L5.28926 70.2402H4.94218ZM4.71672 71.9981L5.11423 70.8035H5.12313L5.52064 71.9981H4.71969H4.71672Z" fill="#3A435C"/>
<path d="M9.70631 71.8617H10.264V72.004C10.264 72.1759 10.2076 72.3123 10.1038 72.419C9.99703 72.5287 9.8665 72.585 9.70334 72.585C9.60545 72.585 9.52239 72.5643 9.45119 72.5228C9.38 72.4872 9.32363 72.4427 9.27914 72.3864C9.22574 72.3271 9.19014 72.2501 9.17234 72.1552C9.15158 72.0603 9.14268 71.8766 9.14268 71.6098C9.14268 71.343 9.15158 71.1562 9.17234 71.0584C9.19014 70.9665 9.22574 70.8894 9.27914 70.8301C9.32363 70.7738 9.38 70.7264 9.45119 70.6908C9.52239 70.6552 9.60545 70.6345 9.70334 70.6315C9.83684 70.6315 9.94956 70.673 10.0415 70.7471C10.1305 70.8242 10.1928 70.9191 10.2254 71.0287H10.6645C10.62 70.8005 10.5162 70.6078 10.35 70.4537C10.1839 70.2995 9.96736 70.2224 9.70334 70.2195C9.48679 70.2195 9.3088 70.2728 9.16344 70.3736C9.01808 70.4714 8.91129 70.5841 8.84306 70.7116C8.80153 70.7768 8.77187 70.8657 8.7511 70.9724C8.7333 71.0791 8.72144 71.2926 8.72144 71.6098C8.72144 71.9269 8.73034 72.1345 8.7511 72.2441C8.76 72.3034 8.77483 72.3508 8.78966 72.3894C8.8045 72.4279 8.82526 72.4665 8.84306 72.508C8.90832 72.6354 9.01512 72.7451 9.16344 72.8429C9.3088 72.9437 9.48679 72.9971 9.70334 73C9.98219 72.9941 10.2136 72.8993 10.3975 72.7155C10.5814 72.5317 10.6734 72.3005 10.6793 72.0277V71.4704H9.70631V71.8617Z" fill="#3A435C"/>
<path d="M13.8891 70.2402H13.4738V72.9763H15.221V72.585H13.8891V70.2402Z" fill="#3A435C"/>
<path d="M18.3358 70.2402H17.9205V72.9763H18.3358V70.2402Z" fill="#3A435C"/>
<path d="M22.8598 72.1848H22.8509L21.6109 70.2402H21.2223V72.9763H21.6376V71.0317H21.6435L22.8835 72.9763H23.2751V70.2402H22.8598V72.1848Z" fill="#3A435C"/>
<path d="M26.1615 72.9763H27.9117V72.585H26.5768V71.7817H27.7159V71.4141H26.5768V70.6315H27.9117V70.2402H26.1615V72.9763Z" fill="#3A435C"/>
<path d="M34.7288 71.8617H35.2865V72.004C35.2865 72.1759 35.2301 72.3123 35.1263 72.419C35.0225 72.5287 34.889 72.585 34.7258 72.585C34.6279 72.585 34.5448 72.5643 34.4737 72.5228C34.4025 72.4872 34.3431 72.4427 34.3016 72.3864C34.2482 72.3271 34.2126 72.2501 34.1948 72.1552C34.174 72.0603 34.1651 71.8766 34.1651 71.6098C34.1651 71.343 34.174 71.1562 34.1948 71.0584C34.2126 70.9665 34.2482 70.8894 34.3016 70.8301C34.3461 70.7738 34.4025 70.7264 34.4737 70.6908C34.5448 70.6552 34.6279 70.6345 34.7258 70.6315C34.8593 70.6315 34.972 70.673 35.064 70.7471C35.153 70.8242 35.2153 70.9191 35.2479 71.0287H35.6869C35.6425 70.8005 35.5386 70.6078 35.3725 70.4537C35.2064 70.2995 34.9898 70.2224 34.7258 70.2195C34.5093 70.2195 34.3313 70.2728 34.1859 70.3736C34.0405 70.4714 33.9338 70.5841 33.8655 70.7116C33.824 70.7768 33.7943 70.8657 33.7736 70.9724C33.7558 71.0791 33.7439 71.2926 33.7439 71.6098C33.7439 71.9269 33.7528 72.1345 33.7736 72.2441C33.7825 72.3034 33.7973 72.3508 33.8121 72.3894C33.827 72.4279 33.8477 72.4665 33.8655 72.508C33.9308 72.6354 34.0376 72.7451 34.1859 72.8429C34.3313 72.9437 34.5093 72.9971 34.7258 73C35.0047 72.9941 35.236 72.8993 35.42 72.7155C35.6039 72.5317 35.6958 72.3005 35.7018 72.0277V71.4704H34.7288V71.8617Z" fill="#3A435C"/>
<path d="M40.2375 70.7086C40.1723 70.5812 40.0684 70.4685 39.9261 70.3707C39.7807 70.2699 39.5997 70.2195 39.3802 70.2166C39.1637 70.2166 38.9857 70.2699 38.8403 70.3707C38.695 70.4685 38.5882 70.5812 38.5199 70.7086C38.4784 70.7739 38.4487 70.8628 38.428 70.9695C38.4102 71.0762 38.3983 71.2896 38.3983 71.6068C38.3983 71.924 38.4072 72.1315 38.428 72.2412C38.4369 72.3005 38.4517 72.3479 38.4665 72.3865C38.4814 72.425 38.5021 72.4635 38.5199 72.505C38.5852 72.6325 38.692 72.7422 38.8403 72.84C38.9857 72.9408 39.1637 72.9941 39.3802 72.9971C39.5968 72.9912 39.7807 72.9408 39.9261 72.84C40.0684 72.7422 40.1752 72.6325 40.2375 72.505C40.285 72.4398 40.3147 72.3509 40.3325 72.2412C40.3473 72.1315 40.3562 71.9181 40.3562 71.6068C40.3562 71.2956 40.3473 71.0762 40.3325 70.9695C40.3147 70.8628 40.282 70.7739 40.2375 70.7086ZM39.9142 72.1552C39.8934 72.2501 39.8578 72.3272 39.8044 72.3865C39.7629 72.4428 39.7065 72.4872 39.6383 72.5228C39.5671 72.5643 39.4811 72.5851 39.3802 72.5851C39.2794 72.5851 39.1993 72.5643 39.1281 72.5228C39.0569 72.4872 39.0005 72.4428 38.956 72.3865C38.9026 72.3272 38.867 72.2501 38.8492 72.1552C38.8285 72.0604 38.8196 71.8766 38.8196 71.6098C38.8196 71.343 38.8285 71.1563 38.8492 71.0584C38.867 70.9665 38.9026 70.8895 38.956 70.8302C39.0005 70.7739 39.0569 70.7264 39.1281 70.6909C39.1993 70.6553 39.2823 70.6345 39.3802 70.6316C39.4781 70.6316 39.5641 70.6523 39.6383 70.6909C39.7065 70.7294 39.7629 70.7739 39.8044 70.8302C39.8578 70.8895 39.8964 70.9636 39.9142 71.0584C39.932 71.1563 39.9409 71.34 39.9409 71.6098C39.9409 71.8796 39.932 72.0604 39.9142 72.1552Z" fill="#3A435C"/>
<path d="M43.1506 72.9763H44.9009V72.585H43.5659V71.7817H44.7051V71.4141H43.5659V70.6315H44.9009V70.2402H43.1506V72.9763Z" fill="#3A435C"/>
<path d="M48.6179 71.4171C48.4873 71.4023 48.3835 71.3875 48.3093 71.3727C48.1729 71.3489 48.075 71.3015 48.0157 71.2363C47.9534 71.1711 47.9237 71.0999 47.9237 71.0229C47.9237 70.8924 47.9712 70.7916 48.0602 70.7264C48.1462 70.6612 48.253 70.6316 48.3805 70.6316C48.6268 70.6375 48.8522 70.7057 49.0599 70.842L49.2913 70.5011C49.0391 70.3203 48.7425 70.2254 48.4013 70.2166C48.1195 70.2166 47.9 70.2936 47.7457 70.4389C47.5855 70.5841 47.5084 70.7768 47.5084 71.0169C47.5084 71.2155 47.5707 71.3845 47.6982 71.5238C47.8199 71.6602 48.0008 71.7462 48.2352 71.7847C48.3657 71.8025 48.4873 71.8203 48.5971 71.8351C48.8374 71.8766 48.956 71.9981 48.9531 72.2027C48.9471 72.4517 48.7692 72.5791 48.4132 72.5851C48.1136 72.5851 47.8525 72.4932 47.636 72.3123L47.363 72.6236C47.6538 72.8726 48.0038 73.0001 48.4102 73.0001C49.0391 72.9912 49.3595 72.7274 49.3713 72.2027C49.3713 72.01 49.312 71.8381 49.1904 71.6928C49.0688 71.5446 48.8789 71.4527 48.6208 71.4171H48.6179Z" fill="#3A435C"/>
<path d="M56.8469 71.4141H55.7611V70.2402H55.3458V72.9763H55.7611V71.7817H56.8469V72.9763H57.2622V70.2402H56.8469V71.4141Z" fill="#3A435C"/>
<path d="M60.1486 72.9763H61.8958V72.585H60.5639V71.7817H61.703V71.4141H60.5639V70.6315H61.8958V70.2402H60.1486V72.9763Z" fill="#3A435C"/>
<path d="M66.4968 71.005C66.4879 70.7531 66.3989 70.5574 66.2239 70.4211C66.0785 70.2995 65.8946 70.2402 65.6662 70.2402H64.5983V72.9763H65.0136V71.8054H65.5446L66.1112 72.9763H66.6066L65.9718 71.7609C66.3188 71.6276 66.4968 71.3756 66.5028 71.0021L66.4968 71.005ZM65.0136 71.4408V70.6108H65.6632C65.7967 70.6108 65.8976 70.6404 65.9688 70.6967C66.0578 70.762 66.1023 70.8627 66.1052 71.005C66.1052 71.1236 66.0667 71.2244 65.9896 71.3044C65.9124 71.3934 65.7967 71.4378 65.6395 71.4408H65.0106H65.0136Z" fill="#3A435C"/>
<path d="M69.2498 72.9763H71V72.585H69.6651V71.7817H70.8042V71.4141H69.6651V70.6315H71V70.2402H69.2498V72.9763Z" fill="#3A435C"/>
</g>
<defs>
<clipPath id="clip0_109_541">
<rect width="71" height="73" fill="white"/>
</clipPath>
</defs>
</svg>
