<svg width="68" height="78" viewBox="0 0 68 78" fill="none" xmlns="http://www.w3.org/2000/svg">
<g clip-path="url(#clip0_109_671)">
<path d="M0.82782 77.9756H1.28539V75.3686H2.11321V74.9644H0V75.3686H0.82782V77.9756Z" fill="#3A435C"/>
<path d="M7.71934 77.9757H8.20136L7.10459 74.9609H6.72037L5.6236 77.9757H6.10911L6.33964 77.303H7.48532L7.71934 77.9757ZM6.47237 76.8953L6.90899 75.5778H6.91597L7.35259 76.8953H6.46888H6.47237Z" fill="#3A435C"/>
<path d="M12.7771 75.6126C12.826 75.5499 12.8889 75.4976 12.9692 75.4592C13.046 75.4209 13.1403 75.3965 13.2486 75.3965C13.3953 75.3965 13.5176 75.4418 13.6224 75.522C13.7202 75.6091 13.7865 75.7102 13.825 75.8322H14.3105C14.2616 75.5812 14.1463 75.3686 13.9612 75.1978C13.7761 75.0271 13.5385 74.9434 13.2486 74.9399C13.0111 74.9399 12.812 74.9992 12.6548 75.1107C12.4942 75.2188 12.3754 75.3442 12.302 75.4836C12.2566 75.5568 12.2217 75.6509 12.2007 75.7694C12.1798 75.8879 12.1693 76.1214 12.1693 76.4735C12.1693 76.8255 12.1798 77.052 12.2007 77.1705C12.2112 77.2367 12.2252 77.289 12.2427 77.3308C12.2601 77.3726 12.2811 77.4145 12.302 77.4598C12.3754 77.5992 12.4942 77.7212 12.6548 77.8292C12.812 77.9407 13.0111 77.9965 13.2486 78.0035C13.556 77.9965 13.811 77.8954 14.0136 77.6898C14.2162 77.4842 14.3175 77.2332 14.3244 76.93V76.3166H13.2521V76.7488H13.8669V76.9056C13.8669 77.0938 13.804 77.2472 13.6887 77.3622C13.5735 77.4842 13.4268 77.5434 13.2486 77.5434C13.1403 77.5434 13.0495 77.519 12.9692 77.4737C12.8889 77.4354 12.826 77.3831 12.7771 77.3239C12.7177 77.2576 12.6793 77.174 12.6583 77.0694C12.6374 76.9649 12.6269 76.7627 12.6269 76.4665C12.6269 76.1702 12.6374 75.9681 12.6583 75.86C12.6793 75.759 12.7177 75.6753 12.7771 75.6091V75.6126Z" fill="#3A435C"/>
<path d="M18.9805 74.9644V77.9756H20.9086V77.5434H19.438V74.9644H18.9805Z" fill="#3A435C"/>
<path d="M25.617 74.9644H25.1594V77.9791H25.617V74.9644Z" fill="#3A435C"/>
<path d="M30.0705 74.9644V77.9756H30.5281V75.8357H30.5385L31.9043 77.9756H32.3339V74.9644H31.8763V77.1043H31.8693L30.5036 74.9644H30.0705Z" fill="#3A435C"/>
<path d="M38.7189 75.393V74.9644H36.7908V77.9756H38.7189V77.5434H37.2484V76.6582H38.5059V76.2539H37.2484V75.393H38.7189Z" fill="#3A435C"/>
<path d="M48.9951 77.9756V74.9644H48.5375V76.2539H47.3429V74.9644H46.8854V77.9756H47.3429V76.6582H48.5375V77.9756H48.9951Z" fill="#3A435C"/>
<path d="M55.3801 75.393V74.9644H53.452V77.9756H55.3801V77.5434H53.9096V76.6582H55.1636V76.2539H53.9096V75.393H55.3801Z" fill="#3A435C"/>
<path d="M60.0885 76.6896H60.6719L61.2971 77.9757H61.842L61.1434 76.6373C61.5276 76.491 61.7232 76.2121 61.7267 75.8009C61.7197 75.5221 61.6184 75.3095 61.4263 75.1596C61.2691 75.0272 61.0631 74.9609 60.8116 74.9609H59.6345V77.9757H60.092V76.6896H60.0885ZM60.0885 75.3722H60.8046C60.9513 75.3722 61.0631 75.4036 61.1399 75.4663C61.2377 75.536 61.2901 75.651 61.2901 75.8079C61.2901 75.9403 61.2482 76.0483 61.1644 76.139C61.077 76.2365 60.9513 76.2853 60.7801 76.2888H60.0885V75.3757V75.3722Z" fill="#3A435C"/>
<path d="M67.9651 75.393V74.9644H66.0335V77.9756H67.9651V77.5434H66.4911V76.6582H67.7485V76.2539H66.4911V75.393H67.9651Z" fill="#3A435C"/>
<path d="M3.19252 71.4128C3.88412 71.4128 4.49887 71.2315 5.03678 70.8656C5.57469 70.4996 5.95192 69.9908 6.16499 69.3425H4.35566C4.11814 69.7956 3.74091 70.0256 3.22046 70.0256C2.70002 70.0256 2.29135 69.8618 1.99096 69.5377C1.69406 69.2136 1.54387 68.7779 1.54387 68.2377C1.54387 67.6975 1.69406 67.2618 1.99096 66.9377C2.28786 66.6136 2.70002 66.4498 3.22046 66.4498C3.74091 66.4498 4.11814 66.6763 4.35566 67.1329H6.16499C5.95192 66.4846 5.57469 65.9758 5.03678 65.6098C4.49887 65.2439 3.88412 65.0626 3.19252 65.0626C2.29834 65.0626 1.54387 65.3624 0.925622 65.9618C0.307376 66.5613 0 67.3211 0 68.2412C0 69.1613 0.307376 69.9211 0.925622 70.5205C1.54387 71.12 2.29834 71.4197 3.19252 71.4197V71.4128Z" fill="#3A435C"/>
<path d="M16.7066 68.2343C16.7066 67.3142 16.3992 66.5544 15.788 65.955C15.1767 65.3555 14.4222 65.0558 13.5246 65.0558C12.6269 65.0558 11.8724 65.3555 11.2542 65.955C10.6359 66.5544 10.3286 67.3142 10.3286 68.2343C10.3286 69.1544 10.6359 69.9177 11.2542 70.5172C11.8724 71.1201 12.6269 71.4199 13.5211 71.4199C14.4153 71.4199 15.1697 71.1201 15.7845 70.5172C16.3992 69.9142 16.7066 69.1544 16.7066 68.2343ZM14.7156 69.5343C14.4153 69.8585 14.0171 70.0223 13.5176 70.0223C13.0181 70.0223 12.6199 69.8585 12.3195 69.5343C12.0191 69.2102 11.8724 68.7746 11.8724 68.2343C11.8724 67.6941 12.0226 67.2585 12.3195 66.9343C12.6164 66.6102 13.0181 66.4464 13.5176 66.4464C14.0171 66.4464 14.4153 66.6102 14.7156 66.9343C15.016 67.2585 15.1627 67.6941 15.1627 68.2343C15.1627 68.7746 15.0125 69.2102 14.7156 69.5343Z" fill="#3A435C"/>
<path d="M28.2856 65.1464H26.5461L24.7647 69.4297L22.9694 65.1464H21.2334V71.3606H22.7493V67.8544L24.1954 71.3606H25.3236L26.7697 67.8544V71.3606H28.2856V65.1464Z" fill="#3A435C"/>
<path d="M34.6811 68.9419H35.6207C36.0538 68.9419 36.4276 68.8791 36.7419 68.7502C37.0598 68.6247 37.2973 68.4609 37.4545 68.2588C37.7549 67.8684 37.9086 67.4641 37.9086 67.0459C37.9086 66.5196 37.706 66.0735 37.3043 65.7006C36.9026 65.3277 36.3402 65.1429 35.6172 65.1429H33.1582V71.3572H34.6741V68.9419H34.6811ZM34.6811 66.2931H35.6207C35.8443 66.2931 36.0259 66.3628 36.1621 66.5057C36.2983 66.6486 36.3647 66.8298 36.3647 67.0494C36.3647 67.269 36.2983 67.4502 36.1656 67.5861C36.0329 67.722 35.8512 67.7883 35.6207 67.7883H34.6811V66.2931Z" fill="#3A435C"/>
<path d="M43.9548 65.1255L41.7892 71.3571H43.4029L43.7487 70.3115H45.9842L46.33 71.3571H47.9542L45.799 65.1255H43.9548ZM44.1329 69.1614L44.8699 66.9483L45.6069 69.1614H44.1329Z" fill="#3A435C"/>
<path d="M57.8217 71.3606V65.1255H56.3058V69.0499L53.7664 65.1255H52.2505V71.3606H53.7664V67.4362L56.3058 71.3606H57.8217Z" fill="#3A435C"/>
<path d="M64.3255 69.36V71.3606H65.8414V69.36L68 65.1464H66.278L65.0869 67.952L63.8924 65.1464H62.1703L64.3255 69.36Z" fill="#3A435C"/>
<path d="M38.1461 7.51416C39.1032 8.85598 39.8751 10.3337 40.434 11.916C41.1291 12.0067 41.8137 12.1321 42.4808 12.2924C42.5926 12.3203 42.7044 12.3482 42.8161 12.3761C42.8441 12.3831 42.872 12.39 42.9 12.397C43.0432 12.4353 43.1864 12.4702 43.3261 12.5155C43.3261 12.5155 43.3296 12.5155 43.3331 12.5155C43.4693 12.5538 43.609 12.5922 43.7418 12.634C43.8605 12.6689 43.9758 12.7072 44.0945 12.7455C44.2133 12.7839 44.3355 12.8257 44.4543 12.8675C44.5661 12.9058 44.6779 12.9442 44.7896 12.986C44.8979 13.0243 45.0097 13.0697 45.118 13.1115C45.7641 13.3624 46.3929 13.6447 47.0076 13.9584C47.1543 14.0316 47.301 14.1083 47.4407 14.1884C47.6853 14.3209 47.9263 14.4568 48.1638 14.5997C48.2651 14.6589 48.3664 14.7217 48.4677 14.7844C48.5166 14.8123 48.562 14.8402 48.6109 14.8715C48.7192 14.9378 48.8239 15.0075 48.9287 15.0772C49.03 15.1434 49.1313 15.2131 49.2326 15.2793C50.4027 16.0809 51.4855 17.001 52.4601 18.0222C52.5753 18.1372 52.6836 18.2557 52.7919 18.3777C52.8827 18.4753 52.97 18.5729 53.0573 18.6739C53.2006 18.8343 53.3403 19.0016 53.473 19.1689C53.5568 19.2664 53.6372 19.364 53.714 19.4686C53.8223 19.6045 53.9271 19.7439 54.0319 19.8798C54.1297 20.0088 54.2275 20.1412 54.3183 20.2737C54.4161 20.4061 54.5069 20.5386 54.5977 20.6745C54.7794 20.9428 54.954 21.2147 55.1252 21.4935C55.2125 21.6329 55.2963 21.7723 55.3766 21.9152C55.4605 22.0581 55.5373 22.201 55.6177 22.3404C55.7853 22.6506 55.946 22.9643 56.0962 23.2815C56.1591 23.4069 56.2149 23.5324 56.2743 23.6613C56.3302 23.7868 56.3861 23.9123 56.442 24.0412C56.4909 24.1528 56.5398 24.2643 56.5852 24.3793C56.6271 24.4839 56.669 24.5884 56.7109 24.693C56.8122 24.9579 56.9135 25.2262 57.0043 25.4981C57.0602 25.6549 57.1126 25.8117 57.158 25.9721C57.158 25.9756 57.1615 25.986 57.165 25.993C57.2139 26.1463 57.2558 26.2962 57.3012 26.4495C57.427 26.8852 57.5353 27.3278 57.6296 27.7739C57.654 27.8855 57.6785 28.0005 57.6994 28.1155C57.7134 28.1817 57.7239 28.2445 57.7379 28.3107C57.7518 28.3978 57.7693 28.4849 57.7833 28.5721C57.8042 28.6975 57.8252 28.823 57.8426 28.945C57.8636 29.0705 57.8811 29.1959 57.8985 29.3249C57.9055 29.3806 57.9125 29.4364 57.9195 29.4957C57.93 29.5863 57.9404 29.6839 57.9509 29.778C57.9614 29.8686 57.9719 29.9557 57.9754 30.0463C57.9893 30.1823 58.0033 30.3217 58.0138 30.4576C58.0278 30.6179 58.0347 30.7817 58.0452 30.9455C58.0557 31.1163 58.0627 31.2906 58.0662 31.4648C58.0697 31.6391 58.0732 31.8099 58.0732 31.9841C58.0732 43.1439 48.9741 52.223 37.7898 52.223C37.6152 52.223 37.4405 52.223 37.2694 52.216C37.0947 52.216 36.9236 52.2056 36.7489 52.1951C36.5778 52.1882 36.4101 52.1777 36.239 52.1638H36.218C36.0573 52.1498 35.9002 52.1359 35.743 52.1219C35.6068 52.108 35.4705 52.0906 35.3343 52.0766C35.2505 52.0662 35.1667 52.0557 35.0828 52.0453C34.9641 52.0313 34.8418 52.0139 34.7265 51.993C34.7161 51.993 34.7056 51.993 34.6951 51.9895C34.5764 51.9721 34.4541 51.9512 34.3388 51.9337C34.2375 51.9163 34.1362 51.8989 34.035 51.878C33.8883 51.8501 33.7415 51.8222 33.5948 51.7908C32.802 51.6235 32.0265 51.4109 31.2686 51.153C31.1184 51.1042 30.9717 51.052 30.825 50.9962C30.6818 50.9439 30.5385 50.8916 30.3918 50.8324C30.1962 50.7557 30.0041 50.6756 29.812 50.5919C29.6933 50.5431 29.571 50.4908 29.4488 50.4316C29.3195 50.3758 29.1868 50.3131 29.0576 50.2504C28.8934 50.1702 28.7292 50.09 28.5616 50.0064C28.4253 49.9367 28.2926 49.867 28.1564 49.7938C28.0027 49.7101 27.849 49.623 27.6988 49.5359C27.5556 49.4557 27.4159 49.3756 27.2762 49.2884C27.2762 49.2884 27.2692 49.2884 27.2657 49.2849C27.0072 49.1316 26.7557 48.9678 26.5077 48.8005C26.4868 48.7865 26.4693 48.7726 26.4518 48.7622C26.3156 48.6715 26.1829 48.5809 26.0536 48.4868C25.9209 48.3962 25.7882 48.2986 25.6589 48.201C25.5297 48.1069 25.4005 48.0058 25.2712 47.9048C25.1664 47.8246 25.0652 47.7445 24.9604 47.6573C24.7962 47.5249 24.632 47.389 24.4749 47.2496C24.3666 47.1589 24.2618 47.0613 24.157 46.9672C24.0382 46.8592 23.916 46.7512 23.8007 46.6361C23.682 46.5281 23.5667 46.4131 23.4514 46.2981C23.2279 46.075 23.0078 45.8485 22.7948 45.6115C22.683 45.486 22.5677 45.3605 22.4559 45.2316C22.2429 44.9911 22.0403 44.7437 21.8412 44.4927C21.7224 44.3394 21.6002 44.1825 21.4849 44.0257C21.4151 43.9351 21.3487 43.841 21.2823 43.7469C21.2614 43.7155 21.2369 43.6876 21.216 43.6563C21.1321 43.5412 21.0518 43.4262 20.975 43.3042C20.8946 43.1892 20.8213 43.0742 20.7444 42.9592C20.6361 42.7954 20.5314 42.6316 20.4301 42.4608C20.2659 42.1924 20.1087 41.9171 19.9585 41.6383C19.6651 41.1016 19.3962 40.5509 19.1517 39.9828C19.0958 39.8538 19.0399 39.7214 18.9875 39.589C18.9875 39.5855 18.984 39.575 18.9805 39.568C18.9421 39.467 18.9002 39.3729 18.8617 39.2718C18.8268 39.1812 18.7919 39.0906 18.757 38.9965C18.722 38.9024 18.6871 38.8048 18.6557 38.7072C18.6068 38.5713 18.5579 38.4319 18.5125 38.2924C18.467 38.153 18.4216 38.0136 18.3797 37.8707C18.3727 37.8568 18.3692 37.8428 18.3658 37.8289C18.3238 37.693 18.2819 37.5536 18.247 37.4176C18.2051 37.2713 18.1632 37.1249 18.1282 36.975C18.0165 36.5289 17.9152 36.0793 17.8348 35.6227C17.8069 35.4694 17.7824 35.3195 17.758 35.1627C17.7335 35.0093 17.7091 34.856 17.6916 34.7026C16.1023 34.152 14.6179 33.3817 13.2696 32.4302C13.5001 45.7509 24.391 56.4715 37.7898 56.4715C51.1886 56.4715 62.3205 45.5139 62.3205 31.9981C62.3205 18.4823 51.524 7.70585 38.1461 7.51416ZM17.5938 30.0672C17.6078 29.9174 17.6253 29.7675 17.6427 29.6176C17.6602 29.4678 17.6811 29.3179 17.6986 29.1715C17.7196 29.0217 17.7405 28.8753 17.765 28.7289C17.7859 28.5825 17.8139 28.4361 17.8383 28.2898C17.9466 27.7042 18.0793 27.1292 18.24 26.5646C18.2784 26.4252 18.3203 26.2823 18.3623 26.1428C18.3937 26.0348 18.4286 25.9233 18.4636 25.8152C18.4775 25.7664 18.4915 25.7211 18.509 25.6758C18.5474 25.5538 18.5928 25.4319 18.6347 25.3099C18.6696 25.2018 18.7081 25.0973 18.75 24.9927C18.7744 24.9265 18.7989 24.8603 18.8233 24.7941C18.9141 24.5571 19.0084 24.327 19.1062 24.0935C19.2215 23.8217 19.3403 23.5533 19.4695 23.2884C19.5289 23.163 19.5918 23.0375 19.6546 22.912C19.6931 22.8319 19.735 22.7517 19.7769 22.675C19.8258 22.5809 19.8747 22.4868 19.9236 22.3927C19.9411 22.3613 19.9585 22.3265 19.9795 22.2951C20.0458 22.1697 20.1157 22.0477 20.189 21.9222C20.2554 21.8107 20.3183 21.6991 20.3847 21.5876C20.444 21.49 20.5034 21.3959 20.5628 21.3018C20.6187 21.2147 20.6711 21.1276 20.7305 21.0404C20.961 20.678 21.209 20.326 21.464 19.9809C21.5478 19.8624 21.6351 19.7509 21.7224 19.6359C21.7888 19.5487 21.8587 19.4616 21.9285 19.378C22.1311 19.1235 22.3407 18.8726 22.5607 18.6286C22.6481 18.5276 22.7389 18.4265 22.8297 18.3254C23.0218 18.1128 23.2209 17.9072 23.4235 17.705C23.5073 17.6214 23.5877 17.5412 23.675 17.4611C23.8042 17.3356 23.9335 17.2101 24.0662 17.0882C24.164 16.9975 24.2618 16.9104 24.3596 16.8233C24.5377 16.663 24.7194 16.5131 24.901 16.3597C24.9918 16.2865 25.0896 16.2064 25.1839 16.1332C25.5926 15.8091 26.0117 15.4989 26.4483 15.2096C26.5706 15.126 26.6963 15.0423 26.8221 14.9621C26.9234 14.8959 27.0212 14.8367 27.1225 14.7739C27.1958 14.7252 27.2762 14.6798 27.353 14.6345C27.4648 14.5648 27.5766 14.4986 27.6918 14.4359C27.835 14.3522 27.9782 14.2756 28.118 14.1954C28.2612 14.1152 28.4079 14.0386 28.5511 13.9654C28.6943 13.8922 28.8445 13.8155 28.9912 13.7458C29.0017 13.7423 29.0087 13.7388 29.0156 13.7319C29.2741 13.6064 29.5396 13.4879 29.8085 13.3729C30.0076 13.2892 30.2067 13.2056 30.4093 13.1289C30.542 13.0731 30.6783 13.0243 30.811 12.9756C30.9298 12.9302 31.0485 12.8884 31.1673 12.8501C31.2267 12.8292 31.2895 12.8083 31.3524 12.7839C31.4851 12.742 31.6179 12.6967 31.7506 12.6584C31.9078 12.6096 32.0684 12.5608 32.2291 12.5155C32.3898 12.4667 32.5505 12.4249 32.7111 12.3831C32.8543 12.3482 32.9976 12.3099 33.1408 12.2785C33.249 12.2541 33.3573 12.2297 33.4656 12.2053C33.5145 12.1914 33.5634 12.1844 33.6088 12.1739C33.6926 12.16 33.773 12.1426 33.8568 12.1252C34 12.0973 34.1467 12.0694 34.2899 12.045C34.3947 12.0276 34.496 12.0101 34.6008 11.9962C34.7091 11.9753 34.8209 11.9613 34.9291 11.9474C35.2156 11.9091 35.502 11.8742 35.7884 11.8463C35.0758 10.3965 34.1048 9.0895 32.9417 7.98467C23.2453 9.91899 15.6133 17.5552 13.7062 27.2372C14.8135 28.3943 16.1268 29.3563 17.5833 30.0672H17.5938Z" fill="#3A435C"/>
<path d="M41.1395 14.5579C40.0497 14.3488 38.9285 14.2407 37.7793 14.2407C37.4231 14.2407 37.0668 14.2512 36.7175 14.2721C37.0284 15.4118 37.196 16.6072 37.196 17.841C37.196 25.3413 31.0799 31.444 23.5632 31.444C22.3407 31.444 21.1566 31.2836 20.0284 30.9769C20.0109 31.3115 20.0004 31.6461 20.0004 31.9842C20.0004 33.1483 20.1122 34.2879 20.3287 35.3893C21.3766 35.581 22.4594 35.682 23.5667 35.682C33.4411 35.682 41.4469 27.6973 41.4469 17.841C41.4469 16.7188 41.3421 15.6244 41.143 14.5579H41.1395ZM23.5632 0C13.6922 0 5.68646 7.9882 5.68646 17.841C5.68646 22.7064 7.639 27.1188 10.8071 30.3357C10.9223 28.3909 11.2472 26.4844 11.7641 24.6477C10.601 22.6437 9.93384 20.319 9.93384 17.841C9.93384 10.3407 16.0464 4.23807 23.5632 4.23807C26.0327 4.23807 28.352 4.89678 30.3534 6.04692C32.1977 5.52413 34.1013 5.19651 36.0503 5.07453C32.8334 1.93432 28.4253 0 23.5632 0Z" fill="#3A435C"/>
</g>
<defs>
<clipPath id="clip0_109_671">
<rect width="68" height="78" fill="white"/>
</clipPath>
</defs>
</svg>
