<svg width="58" height="73" viewBox="0 0 58 73" fill="none" xmlns="http://www.w3.org/2000/svg">
<g clip-path="url(#clip0_109_644)">
<path d="M24.6166 4.11971C24.6826 4.11971 24.7487 4.12328 24.8147 4.12685C25.1925 4.14113 25.5777 4.16254 25.9702 4.1911C27.7492 4.31605 29.4695 4.56951 31.1018 4.94077V0.917545C29.4365 0.507012 27.6611 0.232133 25.8051 0.100048C25.1265 0.0500702 24.4039 0.0179415 23.6629 0.00366211C23.4648 0.00366211 23.2668 0.00366211 23.0613 0.00366211H23.043C19.5693 0.00366211 15.9929 0.449894 12.4165 1.33165C8.35227 2.32764 4.46041 3.85911 1.11877 5.77612V45.6407C4.37605 43.9093 8.05515 42.5171 11.8773 41.5818C14.8962 40.8428 17.9407 40.3894 20.9228 40.2395H20.9522H20.9669C20.9962 40.2395 21.0219 40.2395 21.0439 40.2395C21.5538 40.2145 22.0636 40.2002 22.5882 40.1967V36.1163C18.7403 36.152 14.7971 36.6625 10.8539 37.6264C9.43436 37.9762 8.06249 38.3689 6.77498 38.7973L5.31875 39.2828V8.18934L5.94599 7.90018C8.28991 6.81138 10.8136 5.93319 13.4436 5.28705C16.0479 4.64805 18.6486 4.25893 21.1723 4.13399C21.2236 4.13042 21.2676 4.12685 21.3007 4.12685C21.8839 4.09829 22.4708 4.08401 23.0467 4.08401C23.2594 4.08401 23.4685 4.08401 23.6776 4.09115H23.7069C24.0114 4.09829 24.3195 4.10543 24.624 4.12328L24.6166 4.11971Z" fill="#3A435C"/>
<path d="M34.9607 8.32849C33.996 8.32849 33.0423 8.29636 32.1216 8.22853C31.0028 8.15 29.895 8.02148 28.8203 7.84656C28.1674 7.73946 27.5254 7.61452 26.9019 7.47172V46.8829C29.3595 47.4934 32.0665 47.804 34.9607 47.804C38.4307 47.804 42.0071 47.3577 45.5908 46.4795C49.6514 45.4836 53.5396 43.9485 56.8812 42.0351V2.87732C53.6276 4.6087 49.9485 6.00094 46.1264 6.93982C42.3666 7.86084 38.6104 8.32849 34.9607 8.32849ZM51.236 9.01033L52.6886 8.53197V39.6147L52.0614 39.9039C49.7248 40.9891 47.2011 41.8673 44.5601 42.5134C41.3138 43.3131 38.0859 43.7165 34.9607 43.7165C33.996 43.7165 33.0313 43.6772 32.0996 43.5987L31.0945 43.513V39.7468L31.1018 39.7539V11.5414L32.272 11.6163C33.123 11.6699 34.0033 11.6949 34.9607 11.6949C38.9626 11.6949 43.0635 11.1844 47.1534 10.1812C48.529 9.84211 49.9008 9.44943 51.236 9.01033Z" fill="#3A435C"/>
<path d="M3.96885 59.2525C3.55069 58.8277 3.00414 58.6135 2.33655 58.6135C1.99175 58.6135 1.67996 58.6706 1.39385 58.7849C1.1114 58.8991 0.865642 59.0562 0.660228 59.2525C0.454814 59.4524 0.297086 59.6881 0.187043 59.9594C0.0770001 60.2307 0.0183105 60.527 0.0183105 60.8411V66.1673C0.0183105 66.61 0.0916725 66.9741 0.234728 67.2597C0.377784 67.5453 0.561189 67.7773 0.784944 67.9594C1.0087 68.1415 1.25813 68.2664 1.5369 68.3414C1.81568 68.4128 2.09079 68.4485 2.35856 68.4485C2.67401 68.4485 2.97113 68.3878 3.24624 68.2664C3.52135 68.145 3.75977 67.9808 3.96519 67.7702C4.1706 67.5632 4.332 67.324 4.44571 67.0562C4.56309 66.7885 4.62178 66.5065 4.62178 66.2066V65.6104H3.19855V66.0852C3.19855 66.2744 3.16921 66.4351 3.11419 66.56C3.05917 66.6885 2.98947 66.7849 2.90511 66.8599C2.8134 66.9313 2.7107 66.9848 2.60432 67.017C2.49795 67.0491 2.39891 67.0634 2.30354 67.0634C1.97708 67.0634 1.75332 66.967 1.62494 66.7778C1.50022 66.5886 1.43787 66.353 1.43787 66.071V61.1267C1.43787 60.8018 1.49655 60.5305 1.61393 60.3199C1.73131 60.1057 1.96607 60.0022 2.31821 60.0022C2.58965 60.0022 2.8024 60.1022 2.96013 60.3021C3.11786 60.502 3.19855 60.7376 3.19855 61.0089V61.4694H4.62178V60.9268C4.62178 60.5912 4.56309 60.2806 4.44571 59.9951C4.32833 59.7095 4.1706 59.4632 3.96519 59.2561L3.96885 59.2525Z" fill="#3A435C"/>
<path d="M12.5119 59.199C12.2808 59.0098 12.0204 58.8634 11.738 58.7635C11.4555 58.6635 11.1694 58.6135 10.8796 58.6135C10.5898 58.6135 10.3037 58.6635 10.0213 58.7635C9.73885 58.8634 9.48575 59.0062 9.26199 59.199C9.0309 59.3989 8.84383 59.6488 8.70444 59.9451C8.56506 60.2449 8.49536 60.5877 8.49536 60.9768V66.0852C8.49536 66.4922 8.56506 66.842 8.70444 67.1312C8.84383 67.4204 9.0309 67.6595 9.26199 67.8523C9.48575 68.0522 9.73885 68.2022 10.0213 68.3021C10.3037 68.4021 10.5898 68.452 10.8796 68.452C11.1694 68.452 11.4555 68.4021 11.738 68.3021C12.0204 68.2022 12.2808 68.0522 12.5119 67.8523C12.7357 67.6631 12.9154 67.4239 13.0548 67.1312C13.1942 66.842 13.2639 66.4922 13.2639 66.0852V60.9768C13.2639 60.5877 13.1942 60.2449 13.0548 59.9451C12.9154 59.6452 12.732 59.3989 12.5119 59.199ZM11.8407 66.0852C11.8407 66.4208 11.7453 66.6671 11.5546 66.8242C11.3638 66.9813 11.1364 67.0634 10.876 67.0634C10.6155 67.0634 10.3881 66.9848 10.1974 66.8242C10.0066 66.6671 9.91125 66.4208 9.91125 66.0852V60.9768C9.91125 60.6412 10.0066 60.3949 10.1974 60.2378C10.3881 60.0807 10.6119 59.9986 10.876 59.9986C11.1401 59.9986 11.3638 60.0772 11.5546 60.2378C11.7453 60.3949 11.8407 60.6448 11.8407 60.9768V66.0852Z" fill="#3A435C"/>
<path d="M23.7327 68.3663V58.6956H22.3498L20.5341 63.8147H20.5084L18.678 58.6956H17.3098V68.3663H18.7367V62.4832H18.7624L20.1599 66.6421H20.8715L22.2801 62.4832H22.3094V68.3663H23.7327Z" fill="#3A435C"/>
<path d="M31.8391 59.3738C31.597 59.1204 31.3256 58.9454 31.0285 58.8455C30.7314 58.7455 30.3866 58.6956 29.9941 58.6956H27.8593V68.3663H29.2825V64.5894H30.0088C30.5406 64.5894 30.9661 64.5001 31.2926 64.3252C31.6191 64.1503 31.8795 63.9004 32.0739 63.5863C32.2426 63.3221 32.349 63.0436 32.4004 62.7438C32.4517 62.4439 32.4774 62.0798 32.4774 61.6443C32.4774 61.0659 32.4297 60.6054 32.338 60.2663C32.2463 59.9272 32.0776 59.6309 31.8355 59.3774L31.8391 59.3738ZM31.1202 62.3225C31.1055 62.5224 31.0615 62.6902 30.9881 62.8259C30.9148 62.9722 30.7974 63.0829 30.6397 63.165C30.4819 63.2471 30.2582 63.2864 29.9684 63.2864H29.2861V59.9986H30.0271C30.3059 59.9986 30.5186 60.0378 30.669 60.1199C30.8194 60.202 30.9295 60.3198 31.0028 60.4733C31.0762 60.6268 31.1202 60.8053 31.1275 61.0088C31.1349 61.2123 31.1422 61.4265 31.1422 61.655C31.1422 61.8977 31.1349 62.1226 31.1202 62.319V62.3225Z" fill="#3A435C"/>
<path d="M38.5811 58.6956H37.3963L35.1771 68.3663H36.6003L37.0185 66.2886H38.9589L39.3771 68.3663H40.8003L38.5811 58.6956ZM37.2679 64.9856L37.9649 61.48H37.9942L38.6912 64.9856H37.2679Z" fill="#3A435C"/>
<path d="M47.777 64.5216H47.7513L45.6018 58.6956H44.2336V68.3663H45.6569V62.5546H45.6862L47.8614 68.3663H49.2039V58.6956H47.777V64.5216Z" fill="#3A435C"/>
<path d="M56.474 58.6956L55.3296 62.5403H55.3002L54.1558 58.6956H52.6482L54.6033 64.2788V68.3663H56.0265V64.2788L57.9816 58.6956H56.474Z" fill="#3A435C"/>
<path d="M0 71.0973H0.685935V72.9608H1.15178V71.0973H1.83405V70.7153H0V71.0973Z" fill="#3A435C"/>
<path d="M5.76624 70.7153L4.86755 72.9608H5.36275L5.55349 72.4503H6.47785L6.67593 72.9608H7.18579L6.26143 70.7153H5.76624ZM5.69288 72.0719L6.00833 71.2401L6.32379 72.0719H5.69288Z" fill="#3A435C"/>
<path d="M11.4665 72.1325H12.002V72.4217C11.8333 72.5466 11.6499 72.6109 11.4518 72.6109C11.2391 72.6109 11.074 72.5395 10.9603 72.3967C10.8466 72.2539 10.7879 72.0576 10.7879 71.8112C10.7879 71.3115 11.0116 71.0616 11.4555 71.0616C11.7306 71.0616 11.9067 71.1829 11.98 71.4221L12.4385 71.3365C12.3395 70.8974 12.013 70.676 11.4555 70.676C11.1364 70.676 10.8649 70.7724 10.6448 70.9652C10.4211 71.158 10.311 71.4471 10.311 71.8291C10.311 72.1718 10.4101 72.4538 10.6118 72.6716C10.8099 72.8893 11.1033 73 11.4885 73C11.8736 73 12.2148 72.8858 12.4715 72.6537V71.7577H11.4665V72.1325Z" fill="#3A435C"/>
<path d="M17.2877 70.7153H16.8219V72.9608H18.4432V72.5824H17.2877V70.7153Z" fill="#3A435C"/>
<path d="M22.2104 70.7153H21.7408V72.9608H22.2104V70.7153Z" fill="#3A435C"/>
<path d="M27.0229 72.2147L26.0729 70.7153H25.618V72.9608H26.0545V71.4936L26.9862 72.9608H27.4521V70.7153H27.0229V72.2147Z" fill="#3A435C"/>
<path d="M31.3732 71.9719H32.5287V71.5899H31.3732V71.0973H32.6204V70.7153H30.9037V72.9608H32.6644V72.5824H31.3732V71.9719Z" fill="#3A435C"/>
<path d="M41.9227 71.6007H41.0093V70.7153H40.5435V72.9608H41.0093V71.9791H41.9227V72.9608H42.3885V70.7153H41.9227V71.6007Z" fill="#3A435C"/>
<path d="M46.2987 71.9719H47.4579V71.5899H46.2987V71.0973H47.5459V70.7153H45.8329V72.9608H47.5899V72.5824H46.2987V71.9719Z" fill="#3A435C"/>
<path d="M52.2338 71.9719C52.6373 71.9148 52.8427 71.7042 52.8427 71.3472C52.8427 71.1044 52.7693 70.9367 52.6189 70.8474C52.4685 70.7582 52.2448 70.7153 51.9403 70.7153H50.9573V72.9608H51.4231V72.0219H51.5148C51.6469 72.0219 51.7422 72.0397 51.8046 72.0719C51.867 72.104 51.922 72.1611 51.9697 72.2325L52.4722 72.9572H53.0298L52.7473 72.5181C52.5602 72.229 52.3878 72.0469 52.2338 71.9648V71.9719ZM51.7643 71.6649H51.4195V71.0973H51.7863C52.0357 71.0973 52.1934 71.1152 52.2631 71.1509C52.3291 71.1866 52.3658 71.2615 52.3658 71.3722C52.3658 71.49 52.3255 71.5685 52.2411 71.6042C52.1604 71.6399 51.999 71.6578 51.7679 71.6578L51.7643 71.6649Z" fill="#3A435C"/>
<path d="M56.7088 71.9719H57.8642V71.5899H56.7088V71.0973H57.9559V70.7153H56.2393V72.9608H57.9999V72.5824H56.7088V71.9719Z" fill="#3A435C"/>
</g>
<defs>
<clipPath id="clip0_109_644">
<rect width="58" height="73" fill="white"/>
</clipPath>
</defs>
</svg>
