<svg width="60" height="84" viewBox="0 0 60 84" fill="none" xmlns="http://www.w3.org/2000/svg">
<g clip-path="url(#clip0_109_504)">
<path d="M54.9573 48.424C54.067 49.9694 53.0164 51.4235 51.8198 52.7617L51.8519 52.7933L50.7408 53.8927C45.7942 58.7993 39.2095 61.5038 32.1973 61.5038C25.1852 61.5038 18.6468 58.8204 13.7073 53.9489C8.76786 49.0773 6.04706 42.6006 6.04706 35.713C6.04706 35.2038 6.0613 34.6874 6.09335 34.1747C6.09335 34.1044 6.10048 34.0342 6.1076 33.9604V33.9393C6.11116 33.8937 6.11472 33.8445 6.11828 33.7988V33.7743C6.12897 33.6689 6.13609 33.56 6.14677 33.4546C6.1539 33.3668 6.16102 33.2755 6.1717 33.1807C6.18595 33.0437 6.20019 32.9032 6.21444 32.7662C6.22512 32.6854 6.23224 32.5941 6.24649 32.5063C6.26073 32.3939 6.27498 32.264 6.29278 32.1375C6.30347 32.0673 6.31415 31.997 6.32484 31.9268C6.33908 31.8109 6.36045 31.6809 6.38182 31.5545C6.3925 31.4877 6.40675 31.4105 6.41743 31.3367C6.42811 31.2735 6.4388 31.2103 6.45304 31.1471C6.46729 31.0663 6.48509 30.9714 6.5029 30.8801C6.51714 30.7993 6.53495 30.7115 6.55276 30.6237C6.57412 30.5219 6.59193 30.4235 6.61686 30.3182C6.76643 29.6157 6.95162 28.9097 7.16173 28.2213L7.16885 28.2038C7.19378 28.1124 7.22227 28.0211 7.25432 27.9333C7.27925 27.856 7.30418 27.7788 7.32911 27.698C7.47868 27.2484 7.6425 26.7918 7.817 26.3528C7.84193 26.2931 7.86686 26.2263 7.89179 26.1631C7.92028 26.0964 7.94521 26.0261 7.97726 25.9524C8.01287 25.8681 8.05204 25.7732 8.09122 25.6784C8.11971 25.6082 8.15532 25.5274 8.19093 25.4501L8.20518 25.415C8.25504 25.3096 8.30133 25.2007 8.35119 25.0954C8.3868 25.0146 8.42241 24.9373 8.46159 24.8601C9.12042 23.4551 9.9217 22.0994 10.8369 20.8279L10.9865 20.6277C11.0898 20.4872 11.1931 20.3468 11.2999 20.2133C11.3498 20.1501 11.4032 20.0798 11.4566 20.0131C11.5706 19.8656 11.6881 19.7216 11.802 19.5811C11.8697 19.5003 11.9374 19.4125 12.0086 19.3317C12.0727 19.2544 12.1439 19.1701 12.2151 19.0894C12.2828 19.0086 12.3576 18.9243 12.4288 18.8435C12.5107 18.7522 12.5926 18.6573 12.6746 18.566L9.60475 15.5349C4.5086 21.0668 1.71301 28.2108 1.71301 35.7201C1.71301 43.7527 4.88253 51.3006 10.6411 56.98C16.3996 62.6593 24.0528 65.7853 32.1973 65.7853C40.3419 65.7853 48.0414 62.6383 53.8035 56.9273C55.4488 55.2976 56.8982 53.4923 58.1197 51.55L54.9538 48.4275L54.9573 48.424Z" fill="#3A435C"/>
<path d="M15.9402 51.7466C20.2814 56.0281 26.0577 58.3884 32.1973 58.3884C32.3897 58.3884 32.582 58.3884 32.7743 58.3814C32.8704 58.3814 32.963 58.3778 33.0592 58.3743H33.0734C33.2159 58.3673 33.3548 58.3603 33.4972 58.3533C33.6112 58.3462 33.7216 58.3392 33.8355 58.3322C33.8925 58.3287 33.9424 58.3252 33.9887 58.3216L34.067 58.3146C34.1703 58.3076 34.2736 58.2971 34.3804 58.2865C34.473 58.2795 34.5585 58.2725 34.6475 58.2619C34.7116 58.2549 34.7686 58.2479 34.822 58.2444L34.9395 58.2303C35.0143 58.2198 35.0891 58.2128 35.1674 58.2022C35.4523 58.1671 35.7301 58.1285 36.0043 58.0828C36.0827 58.0688 36.1575 58.0547 36.2322 58.0442H36.2572C36.3177 58.0301 36.3783 58.0196 36.4352 58.009L36.4637 58.002C36.5421 57.988 36.6204 57.9739 36.6988 57.9564C36.9053 57.9177 37.1083 57.8756 37.3077 57.8299C37.4431 57.8018 37.5784 57.7667 37.7137 57.7351H37.7315C37.7671 57.721 37.7992 57.714 37.8348 57.707C37.9345 57.6824 38.0236 57.6578 38.1161 57.6367C38.1945 57.6157 38.2693 57.5981 38.3405 57.577C38.4046 57.5595 38.4616 57.5454 38.515 57.5279C38.5684 57.5138 38.6112 57.5033 38.6503 57.4892L38.6824 57.4787C38.7394 57.4646 38.7963 57.4471 38.8533 57.4295C38.9495 57.4014 39.0314 57.3768 39.1133 57.3487C39.181 57.3277 39.2379 57.3101 39.302 57.2925C39.4944 57.2293 39.6867 57.1661 39.8754 57.0994C39.9288 57.0818 39.9787 57.0642 40.0285 57.0467L40.0677 57.0326C40.1354 57.008 40.1959 56.987 40.2529 56.9659C40.3491 56.9308 40.431 56.8992 40.5164 56.8676C40.5877 56.8395 40.6518 56.8184 40.7123 56.7938C40.8298 56.7481 40.9367 56.706 41.0435 56.6603L41.364 56.5269C41.4637 56.4847 41.5634 56.4426 41.656 56.4004C41.713 56.3758 41.7593 56.3548 41.8092 56.3337L41.8555 56.3126C41.9338 56.2775 42.0122 56.2389 42.0905 56.2037C42.5748 55.9754 43.052 55.7331 43.5114 55.4732C43.5613 55.4451 43.6076 55.417 43.6575 55.3924C43.7643 55.3327 43.8711 55.2695 43.9744 55.2098L44.5015 54.8901C44.733 54.7426 44.9751 54.5881 45.2351 54.4125C45.3063 54.3633 45.3775 54.3141 45.4488 54.2649L45.4773 54.2439C45.5307 54.2052 45.5841 54.1701 45.6375 54.1315L45.6518 54.1209C45.6909 54.0928 45.7301 54.0647 45.7693 54.0366L45.7835 54.0261C45.8512 53.9805 45.9153 53.9313 45.9794 53.8821C46.0542 53.8294 46.1254 53.7732 46.1931 53.7205C46.2429 53.6819 46.2821 53.6503 46.3248 53.6187L46.3747 53.58C46.4459 53.5239 46.5207 53.4677 46.5919 53.4079C46.6667 53.3482 46.7379 53.2885 46.8127 53.2323L46.8305 53.2183C46.9694 53.1059 47.1048 52.99 47.2436 52.8741C47.2864 52.839 47.3255 52.8038 47.3683 52.7652L44.2949 49.7306C40.9295 52.5615 36.6596 54.1104 32.208 54.1104C21.9231 54.1104 13.5542 45.8565 13.5542 35.713C13.5542 30.7677 15.5164 26.128 19.0741 22.6473C20.7444 21.0141 22.7458 19.6899 24.9075 18.7802L21.6453 15.563C19.5656 16.6272 17.6674 17.9935 15.9972 19.6302C11.6204 23.9187 9.21301 29.6297 9.21301 35.713C9.21301 41.7963 11.6062 47.4651 15.9473 51.7466H15.9402Z" fill="#3A435C"/>
<path d="M58.2871 30.0652C58.2871 22.0326 55.1176 14.4847 49.359 8.80532C43.6005 3.12594 35.9438 0 27.7992 0C19.6546 0 11.9552 3.1435 6.19307 8.858C4.54777 10.4842 3.09834 12.293 1.87683 14.2353L5.04279 17.3578C5.9331 15.8123 6.98367 14.3583 8.18025 13.0201L8.1482 12.9885L9.25931 11.8891C14.2023 6.98244 20.7907 4.27797 27.8028 4.27797C34.8149 4.27797 41.3533 6.96136 46.2928 11.8329C51.2323 16.7045 53.953 23.1776 53.953 30.0687C53.953 30.578 53.9388 31.0978 53.9067 31.6071C53.9067 31.6739 53.8996 31.7476 53.8925 31.8214C53.8925 31.8741 53.8854 31.9267 53.8818 31.9794V32.004C53.8711 32.1094 53.864 32.2183 53.8533 32.3236C53.8462 32.4114 53.8391 32.5063 53.8284 32.6011C53.8142 32.7346 53.7999 32.8751 53.7857 33.0156C53.775 33.0963 53.7679 33.1841 53.7536 33.2755C53.7394 33.3879 53.7251 33.5143 53.7073 33.6443C53.6966 33.7145 53.686 33.7847 53.6753 33.8515C53.661 33.9709 53.6397 34.0973 53.6183 34.2273C53.6076 34.294 53.5934 34.3713 53.5827 34.4451C53.572 34.5083 53.5613 34.5715 53.5471 34.6347C53.5328 34.7155 53.515 34.8103 53.4972 34.9017C53.483 34.9824 53.4652 35.0702 53.4438 35.1581C53.426 35.2564 53.4046 35.3583 53.3797 35.4636C53.2301 36.1661 53.0449 36.8756 52.8348 37.5605C52.8063 37.6553 52.7778 37.7536 52.7422 37.852C52.7173 37.9292 52.6924 38.0065 52.6674 38.0873C52.5179 38.5404 52.354 38.9935 52.1795 39.4325C52.1546 39.4922 52.1297 39.5554 52.1048 39.6187C52.0763 39.6889 52.0478 39.7592 52.0193 39.8294C51.9837 39.9137 51.9445 40.0085 51.9053 40.1034C51.8768 40.1736 51.8412 40.2544 51.8056 40.3317L51.7914 40.3668C51.7415 40.4722 51.6952 40.581 51.6454 40.6864C51.6097 40.7672 51.5741 40.8445 51.535 40.9217C50.8761 42.3266 50.0748 43.6824 49.1596 44.9538L49.0136 45.154C48.9067 45.298 48.8035 45.435 48.7002 45.5685C48.6503 45.6352 48.5969 45.702 48.5435 45.7687C48.4295 45.9127 48.312 46.0602 48.1981 46.2007C48.1304 46.2815 48.0627 46.3693 47.9915 46.4501C47.931 46.5238 47.8669 46.6011 47.7992 46.6784L47.785 46.6924C47.7137 46.7732 47.6425 46.8575 47.5677 46.9383C47.4858 47.0296 47.4039 47.1244 47.322 47.2157L50.3918 50.2469C55.4844 44.715 58.2835 37.571 58.2835 30.0582L58.2871 30.0652Z" fill="#3A435C"/>
<path d="M35.0997 47.0016L38.3618 50.2188C40.4415 49.1546 42.3397 47.7883 44.0099 46.1516C48.3867 41.8631 50.7941 36.1521 50.7941 30.0688C50.7941 23.9855 48.4009 18.3167 44.0598 14.0352C39.7186 9.75369 33.9423 7.39343 27.8027 7.39343C27.6103 7.39343 27.418 7.39343 27.2257 7.40046C27.1296 7.40046 27.037 7.40046 26.9408 7.40748H26.9266C26.7841 7.41451 26.6452 7.42153 26.5028 7.42856C26.3888 7.43558 26.2784 7.4426 26.1645 7.44963C26.1075 7.44963 26.0576 7.45665 26.0113 7.46017L25.933 7.46719C25.8333 7.47422 25.7264 7.48475 25.6232 7.49529C25.5306 7.50583 25.4451 7.51285 25.3561 7.52339C25.292 7.53041 25.235 7.53744 25.1816 7.54095L25.0925 7.55149C25.0925 7.55149 25.0712 7.55149 25.064 7.555C24.9893 7.56202 24.9145 7.57256 24.8397 7.5831C24.5548 7.61822 24.277 7.66037 24.0028 7.70251C23.9244 7.71656 23.8497 7.7271 23.7749 7.74115H23.7499C23.6894 7.7552 23.6324 7.76574 23.5754 7.77627L23.5363 7.7833C23.4615 7.79735 23.3867 7.8114 23.3084 7.82545C23.0947 7.86408 22.8917 7.90623 22.6923 7.95189C22.5569 7.97999 22.4216 8.01511 22.2863 8.04672H22.2685C22.2329 8.05726 22.2008 8.06779 22.1652 8.07482C22.0655 8.0994 21.9764 8.12399 21.8839 8.14506C21.8055 8.16614 21.7343 8.1837 21.6595 8.20477C21.5954 8.22233 21.5384 8.23638 21.4814 8.25394C21.428 8.26799 21.3853 8.28204 21.3461 8.29258L21.314 8.30312C21.2571 8.31717 21.2001 8.33473 21.1431 8.35229C21.047 8.38039 20.965 8.40497 20.8831 8.43307C20.8155 8.45415 20.7585 8.47171 20.6944 8.48927C20.5021 8.55249 20.3098 8.61571 20.121 8.68244C20.0676 8.70001 20.0213 8.71757 19.9715 8.73513L19.9287 8.74918C19.8646 8.77376 19.8076 8.79133 19.7507 8.81591C19.6509 8.85103 19.5655 8.88264 19.48 8.91777C19.4088 8.94587 19.3482 8.97045 19.2841 8.99504C19.1666 9.0407 19.0598 9.08285 18.9529 9.12851L18.6324 9.26197C18.5327 9.30412 18.4366 9.34627 18.3404 9.38842C18.287 9.413 18.2371 9.43408 18.1873 9.45515L18.141 9.47622C18.0626 9.51135 17.9843 9.54998 17.9059 9.5851C17.4216 9.8134 16.9444 10.0558 16.485 10.3157C16.4316 10.3438 16.3888 10.3683 16.339 10.3964C16.2393 10.4526 16.136 10.5123 16.0398 10.5685L15.7086 10.7687C15.641 10.8109 15.5697 10.8566 15.4985 10.8987C15.2635 11.0427 15.0249 11.2008 14.7685 11.3764C14.7008 11.422 14.6367 11.4677 14.5726 11.5098L14.5299 11.5379C14.4693 11.5801 14.4159 11.6187 14.3625 11.6574L14.3411 11.6714C14.3055 11.6995 14.2699 11.7241 14.2307 11.7522L14.2165 11.7627C14.1488 11.8084 14.0847 11.8576 14.0206 11.9067C13.9458 11.9594 13.8782 12.0156 13.8069 12.0683C13.7571 12.1069 13.7143 12.1385 13.6752 12.1702L13.6253 12.2088C13.5541 12.265 13.4793 12.3212 13.4081 12.3809C13.3262 12.4441 13.2478 12.5108 13.1695 12.5741C13.0306 12.6865 12.8952 12.8024 12.7564 12.9183C12.7136 12.9534 12.6744 12.9885 12.6317 13.0272L15.7086 16.0618C19.074 13.2309 23.344 11.6784 27.7955 11.6784C38.0804 11.6784 46.4494 19.9323 46.4494 30.0758C46.4494 35.0211 44.4871 39.6609 40.9294 43.1416C39.2592 44.7748 37.2578 46.0989 35.0961 47.0086L35.0997 47.0016Z" fill="#3A435C"/>
<path d="M4.80413 76.5259C4.69017 77.0281 4.47293 77.411 4.15954 77.6744C3.83903 77.9273 3.45085 78.0572 2.98789 78.0572C2.6104 78.0572 2.2614 77.9624 1.9302 77.7762C1.60969 77.5901 1.37108 77.3021 1.22151 76.9192C1.06125 76.5364 0.986467 76.0798 0.986467 75.567C0.986467 75.1666 1.05413 74.7732 1.1859 74.4009C1.31766 74.0286 1.54558 73.7301 1.85897 73.5053C2.17949 73.291 2.58547 73.1787 3.05912 73.1787C3.47578 73.1787 3.8141 73.2735 4.08832 73.4772C4.36254 73.6739 4.56909 73.99 4.71154 74.429L4.72934 74.4747L5.67664 74.2604L5.65883 74.2042C5.48077 73.6247 5.16738 73.1681 4.72222 72.8415C4.27707 72.5254 3.72863 72.3673 3.07692 72.3673C2.51068 72.3673 1.98006 72.4902 1.49573 72.7396C1.02208 72.9995 0.644587 73.3753 0.388177 73.86C0.131766 74.3447 0 74.9243 0 75.567C0 76.1641 0.11396 76.7331 0.34188 77.2459C0.569801 77.7692 0.90812 78.1802 1.35328 78.4506C1.78775 78.7316 2.36467 78.8721 3.06624 78.8721C3.76781 78.8721 4.31624 78.6859 4.78632 78.3312C5.25997 77.9764 5.58048 77.4461 5.76211 76.7647L5.77991 76.7085L4.8255 76.4767L4.80769 76.5329L4.80413 76.5259Z" fill="#3A435C"/>
<path d="M13.4687 72.7782C12.9879 72.4972 12.4359 72.3567 11.8412 72.3567C10.9224 72.3567 10.1674 72.6552 9.5905 73.2418C9.01358 73.8283 8.72156 74.6608 8.72156 75.6934C8.72156 76.2448 8.8462 76.7646 9.09905 77.2599C9.34478 77.7551 9.71515 78.145 10.1959 78.4365C10.6767 78.7245 11.2287 78.865 11.8305 78.865C12.3968 78.865 12.9274 78.735 13.4117 78.4716C13.9032 78.2187 14.2807 77.8288 14.5549 77.3231C14.8184 76.8278 14.9538 76.2518 14.9538 75.6161C14.9538 74.9804 14.822 74.4325 14.5763 73.9372C14.3198 73.442 13.953 73.0521 13.4687 72.7711V72.7782ZM13.3654 77.4249C12.9666 77.8429 12.4466 78.0607 11.8341 78.0607C11.2216 78.0607 10.7194 77.8464 10.3099 77.4355C9.91102 77.014 9.70446 76.438 9.70446 75.7109C9.70446 74.8048 9.9217 74.1444 10.3384 73.7616C10.755 73.3788 11.2643 73.1821 11.8412 73.1821C12.2579 73.1821 12.6247 73.2839 12.9559 73.4806C13.2764 73.6773 13.5328 73.9653 13.7038 74.3306C13.8747 74.6959 13.9602 75.1314 13.9602 75.6266C13.9602 76.3993 13.7607 77.007 13.3654 77.4284V77.4249Z" fill="#3A435C"/>
<path d="M23.2194 72.6272L21.6952 76.9087C21.5705 77.2529 21.4779 77.5234 21.4103 77.7376L21.1539 76.993L19.6296 72.571H19.5264V74.8576L20.9366 78.8686H21.7771L23.2158 74.8681V72.6308L23.2194 72.6272Z" fill="#3A435C"/>
<path d="M19.188 72.571H18.2621V78.8686H19.188V72.571Z" fill="#3A435C"/>
<path d="M24.4765 72.571H23.5577V78.8686H24.4765V72.571Z" fill="#3A435C"/>
<path d="M28.7429 72.571H27.7885V78.8686H28.7429V72.571Z" fill="#3A435C"/>
<path d="M32.5819 73.551C32.4394 73.2911 32.2685 73.0768 32.0441 72.9363C31.8269 72.7853 31.5527 72.6834 31.2393 72.6378C31.0114 72.5921 30.6802 72.571 30.2564 72.571H29.0847V73.4105H30.324C30.7015 73.4105 30.9579 73.428 31.1004 73.4667C31.3069 73.5229 31.4779 73.6353 31.6025 73.8109C31.7343 73.9865 31.7913 74.1937 31.7913 74.4466C31.7913 74.7838 31.688 75.0437 31.4708 75.2299C31.2535 75.416 30.876 75.5108 30.3454 75.5108H29.0883V76.3608H30.3383C31.2464 76.3608 31.8981 76.1641 32.2471 75.7918C32.6068 75.4195 32.7849 74.9629 32.7849 74.422C32.7849 74.1059 32.7172 73.8144 32.5854 73.5545L32.5819 73.551Z" fill="#3A435C"/>
<path d="M38.5862 72.571L36.0897 78.8685H37.1011L37.386 78.1309H37.3753L38.0947 76.2203L38.2478 75.8269L38.7785 74.436H38.7892C38.9031 74.1269 38.9957 73.8108 39.0741 73.5017C39.1702 73.8003 39.302 74.1656 39.4622 74.573L40.1068 76.2132H38.4722L38.1802 76.9859H40.4131L41.1609 78.8615H42.2471L39.5798 72.564H38.5968L38.5862 72.571Z" fill="#3A435C"/>
<path d="M46.3461 72.571H45.4558V78.8686H46.3461V72.571Z" fill="#3A435C"/>
<path d="M49.6723 77.3021L49.6545 77.274V78.8686H50.5983V72.571H49.6723V77.3021Z" fill="#3A435C"/>
<path d="M46.6844 74.5871L49.3127 78.3909V76.7787L46.6844 72.9819V74.5871Z" fill="#3A435C"/>
<path d="M58.864 72.571L57.6069 74.4185C57.3612 74.7838 57.1439 75.128 56.9552 75.4265V75.416L56.4246 76.2098V78.8686H57.3897V76.2098L59.9894 72.571H58.864Z" fill="#3A435C"/>
<path d="M56.7557 75.0894L56.3604 74.4642L55.0819 72.571H53.9103L56.218 75.9112L56.7557 75.0894Z" fill="#3A435C"/>
<path d="M0 82.0085H0.633903V83.9825H0.986467V82.0085H1.62037V81.6995H0V82.0085Z" fill="#3A435C"/>
<path d="M4.17737 81.6995L3.33691 83.9825H3.70728L3.88535 83.4732H4.76498L4.94304 83.9825H5.31341L4.47295 81.6995H4.18093H4.17737ZM3.98506 83.1641L4.31982 82.1666H4.32694L4.6617 83.1641H3.98506Z" fill="#3A435C"/>
<path d="M8.20162 83.0516H8.6717V83.171C8.6717 83.315 8.62541 83.431 8.53638 83.5188C8.44735 83.6101 8.33339 83.6557 8.19806 83.6557C8.11615 83.6557 8.04492 83.6382 7.98438 83.6031C7.92384 83.575 7.87398 83.5363 7.83837 83.4871C7.79208 83.438 7.76359 83.3748 7.74934 83.294C7.73153 83.2132 7.72441 83.0622 7.72441 82.8374C7.72441 82.6126 7.73153 82.4616 7.74934 82.3773C7.76359 82.3 7.79564 82.2368 7.83837 82.1876C7.87398 82.1419 7.92384 82.0998 7.98438 82.0717C8.04492 82.0401 8.11615 82.026 8.19806 82.0225C8.30846 82.0225 8.40461 82.0576 8.48296 82.1174C8.55774 82.1806 8.61116 82.2614 8.63965 82.3527H9.01002C8.97441 82.163 8.88538 82.0015 8.74293 81.8715C8.60048 81.7415 8.41886 81.6783 8.19806 81.6748C8.01643 81.6748 7.8633 81.7205 7.74222 81.8048C7.61757 81.8855 7.52854 81.9804 7.47156 82.0857C7.43595 82.1419 7.41102 82.2122 7.39321 82.3035C7.37897 82.3948 7.36829 82.5704 7.36829 82.8374C7.36829 83.1043 7.37541 83.2764 7.39321 83.3677C7.40034 83.4169 7.41102 83.4591 7.42527 83.4907C7.43951 83.5223 7.45376 83.5539 7.47156 83.589C7.52854 83.6944 7.61757 83.7857 7.74222 83.8665C7.8633 83.9508 8.01643 83.9929 8.19806 83.9964C8.4331 83.9929 8.62897 83.9121 8.78567 83.7611C8.9388 83.6066 9.02071 83.4169 9.02427 83.1851V82.7215H8.20162V83.0481V83.0516Z" fill="#3A435C"/>
<path d="M11.7344 81.6995H11.3854V83.9825H12.8633V83.6558H11.7344V81.6995Z" fill="#3A435C"/>
<path d="M15.495 81.6995H15.146V83.9825H15.495V81.6995Z" fill="#3A435C"/>
<path d="M19.3162 83.3221H19.3127L18.2621 81.6995H17.9344V83.9825H18.2835V82.3598H18.2906L19.3376 83.9825H19.6688V81.6995H19.3162V83.3221Z" fill="#3A435C"/>
<path d="M22.1083 83.9825H23.5862V83.6558H22.4608V82.985H23.4224V82.6794H22.4608V82.0261H23.5862V81.6995H22.1083V83.9825Z" fill="#3A435C"/>
<path d="M29.3483 83.0516H29.8184V83.171C29.8184 83.315 29.7721 83.431 29.6831 83.5188C29.5941 83.6101 29.4801 83.6557 29.3448 83.6557C29.2629 83.6557 29.1917 83.6382 29.1311 83.6031C29.0706 83.575 29.0207 83.5363 28.9851 83.4871C28.9388 83.438 28.9103 83.3748 28.8961 83.294C28.8783 83.2132 28.8711 83.0622 28.8711 82.8374C28.8711 82.6126 28.8783 82.4616 28.8961 82.3773C28.9103 82.3 28.9424 82.2368 28.9851 82.1876C29.0207 82.1419 29.0706 82.0998 29.1311 82.0717C29.1917 82.0401 29.2629 82.026 29.3448 82.0225C29.4587 82.0225 29.5513 82.0576 29.6297 82.1174C29.7045 82.1806 29.7579 82.2614 29.7864 82.3527H30.1568C30.1211 82.163 30.0321 82.0015 29.8897 81.8715C29.7472 81.7415 29.5656 81.6783 29.3448 81.6748C29.1632 81.6748 29.01 81.7205 28.8889 81.8048C28.7643 81.8855 28.6753 81.9804 28.6183 82.0857C28.5827 82.1419 28.5577 82.2122 28.5399 82.3035C28.5257 82.3948 28.515 82.5704 28.515 82.8374C28.515 83.1043 28.5221 83.2764 28.5399 83.3677C28.5471 83.4169 28.5578 83.4591 28.572 83.4907C28.5862 83.5223 28.6005 83.5539 28.6183 83.589C28.6753 83.6944 28.7643 83.7857 28.8889 83.8665C29.01 83.9508 29.1632 83.9929 29.3448 83.9964C29.5798 83.9929 29.7757 83.9121 29.9324 83.7611C30.0855 83.6066 30.1674 83.4169 30.171 83.1851V82.7215H29.3483V83.0481V83.0516Z" fill="#3A435C"/>
<path d="M34.0029 82.0928C33.9495 81.9875 33.8605 81.8926 33.7394 81.8118C33.6147 81.7275 33.4616 81.6854 33.28 81.6819C33.0983 81.6819 32.9452 81.7275 32.8241 81.8118C32.6995 81.8926 32.6105 81.9875 32.5535 82.0928C32.5179 82.149 32.4929 82.2193 32.4751 82.3106C32.4609 82.4019 32.4502 82.5775 32.4502 82.8445C32.4502 83.1114 32.4573 83.2835 32.4751 83.3748C32.4822 83.424 32.4929 83.4661 32.5072 83.4977C32.5214 83.5294 32.5357 83.561 32.5535 83.5961C32.6105 83.7015 32.6995 83.7928 32.8241 83.8736C32.9452 83.9579 33.0983 84 33.28 84.0035C33.4652 84 33.6183 83.9543 33.7394 83.8736C33.8605 83.7928 33.9495 83.7015 34.0029 83.5961C34.0421 83.5399 34.0706 83.4661 34.0848 83.3748C34.0991 83.2835 34.1062 83.1079 34.1062 82.8445C34.1062 82.581 34.0991 82.4019 34.0848 82.3106C34.0706 82.2193 34.0421 82.149 34.0029 82.0928ZM33.7287 83.2975C33.7109 83.3783 33.6788 83.4415 33.6361 83.4907C33.6005 83.5364 33.5542 83.575 33.4972 83.6066C33.4367 83.6417 33.3619 83.6593 33.28 83.6593C33.1981 83.6593 33.1268 83.6417 33.0663 83.6066C33.0057 83.5785 32.9559 83.5399 32.9203 83.4907C32.874 83.4415 32.8455 83.3783 32.8312 83.2975C32.8134 83.2168 32.8063 83.0657 32.8063 82.8409C32.8063 82.6162 32.8134 82.4651 32.8312 82.3808C32.8455 82.3036 32.8775 82.2403 32.9203 82.1912C32.9559 82.1455 33.0057 82.1034 33.0663 82.0753C33.1268 82.0436 33.1981 82.0296 33.28 82.0261C33.3619 82.0261 33.4367 82.0436 33.4972 82.0753C33.5542 82.1069 33.6005 82.1455 33.6361 82.1912C33.6824 82.2403 33.7144 82.3036 33.7287 82.3808C33.7429 82.4616 33.7536 82.6162 33.7536 82.8409C33.7536 83.0657 33.7465 83.2168 33.7287 83.2975Z" fill="#3A435C"/>
<path d="M36.4636 83.9825H37.9415V83.6558H36.8162V82.985H37.7777V82.6794H36.8162V82.0261H37.9415V81.6995H36.4636V83.9825Z" fill="#3A435C"/>
<path d="M41.0862 82.6829C40.9758 82.6689 40.8903 82.6583 40.8262 82.6478C40.7122 82.6267 40.6303 82.5881 40.5769 82.5354C40.5235 82.4827 40.4985 82.423 40.4985 82.3563C40.4985 82.2474 40.5377 82.1631 40.6161 82.1104C40.6873 82.0577 40.7799 82.0296 40.8867 82.0296C41.0968 82.0331 41.2856 82.0928 41.4601 82.2052L41.656 81.9207C41.4423 81.7697 41.193 81.6889 40.9045 81.6854C40.6659 81.6854 40.4807 81.7486 40.349 81.8716C40.2137 81.9945 40.146 82.1561 40.146 82.3528C40.146 82.5178 40.1994 82.6583 40.3062 82.7742C40.4095 82.8866 40.5627 82.9604 40.7621 82.992C40.8725 83.006 40.9758 83.0201 41.0683 83.0341C41.2713 83.0693 41.3711 83.1711 41.3711 83.3397C41.3675 83.5469 41.2144 83.6523 40.9152 83.6558C40.6624 83.6558 40.4416 83.5785 40.2564 83.4275L40.0249 83.6874C40.2706 83.8947 40.5662 84 40.9081 84C41.4387 83.993 41.7094 83.7717 41.7201 83.3362C41.7201 83.1746 41.6702 83.0341 41.5669 82.9112C41.4636 82.7883 41.3034 82.711 41.0862 82.6794V82.6829Z" fill="#3A435C"/>
<path d="M48.0377 82.6794H47.1225V81.6995H46.7699V83.9825H47.1225V82.985H48.0377V83.9825H48.3903V81.6995H48.0377V82.6794Z" fill="#3A435C"/>
<path d="M50.8298 83.9825H52.3078V83.6558H51.1788V82.985H52.1404V82.6794H51.1788V82.0261H52.3078V81.6995H50.8298V83.9825Z" fill="#3A435C"/>
<path d="M56.193 82.3387C56.1859 82.128 56.1111 81.9664 55.9616 81.8505C55.8405 81.7486 55.6838 81.6995 55.4915 81.6995H54.5869V83.9825H54.9395V83.006H55.3882L55.8654 83.9825H56.2821L55.7443 82.9709C56.0399 82.8585 56.1895 82.6478 56.193 82.3387ZM54.9395 82.7005V82.0085H55.4879C55.6019 82.0085 55.6873 82.0331 55.7443 82.0788C55.8191 82.1315 55.8583 82.2193 55.8618 82.3387C55.8618 82.437 55.8298 82.5213 55.7657 82.5881C55.7016 82.6618 55.6019 82.697 55.4701 82.7005H54.9395Z" fill="#3A435C"/>
<path d="M58.5221 83.9825H60V83.6558H58.8711V82.985H59.8326V82.6794H58.8711V82.0261H60V81.6995H58.5221V83.9825Z" fill="#3A435C"/>
</g>
<defs>
<clipPath id="clip0_109_504">
<rect width="60" height="84" fill="white"/>
</clipPath>
</defs>
</svg>
