<svg width="63" height="81" viewBox="0 0 63 81" fill="none" xmlns="http://www.w3.org/2000/svg">
<g clip-path="url(#clip0_109_430)">
<path d="M19.1254 19.913L38.7474 0L30.9469 2.16602C22.8305 4.42038 15.991 8.3238 10.622 13.7716L4.57251 19.913C6.58147 21.9514 9.21278 22.969 11.8473 22.969C14.4819 22.969 17.1132 21.9481 19.1221 19.913H19.1254ZM12.5793 15.7576C17.0842 11.1867 22.7144 7.77084 29.3411 5.58192L17.1712 17.9302C15.7491 19.3731 13.8627 20.1682 11.8505 20.1682C10.8025 20.1682 9.78677 19.9523 8.85485 19.54L12.5825 15.7576H12.5793Z" fill="#3A435C"/>
<path d="M16.4554 50.1948L22.5048 56.3329C24.5138 54.2945 25.5166 51.6246 25.5166 48.9515C25.5166 46.2783 24.5138 43.6084 22.5048 41.57L2.88281 21.657L5.01753 29.5718C7.23932 37.8072 11.0863 44.747 16.4586 50.1948H16.4554ZM20.5507 43.5528C22.795 45.83 23.3239 49.1969 22.134 51.9878L18.4095 48.2087C13.9047 43.6378 10.5381 37.925 8.38084 31.2012L20.5507 43.5495V43.5528Z" fill="#3A435C"/>
<path d="M51.1526 35.134C48.5213 35.134 45.8867 36.1549 43.8778 38.1933L24.2526 58.1063L32.053 55.9403C40.1694 53.6859 47.0089 49.7825 52.378 44.3314L58.4274 38.1933C57.4245 37.1757 56.2637 36.4101 55.0222 35.8997C53.7839 35.3892 52.4683 35.134 51.1494 35.134H51.1526ZM50.4238 42.3486C45.919 46.9195 40.2888 50.3387 33.6621 52.5244L45.8319 40.1761C47.254 38.7332 49.1436 37.9381 51.1526 37.9381C52.2006 37.9381 53.2164 38.154 54.1483 38.5663L50.4206 42.3486H50.4238Z" fill="#3A435C"/>
<path d="M40.492 16.5364L60.1172 36.4494L57.9825 28.5346C55.7607 20.2991 51.9137 13.3594 46.5414 7.91159L40.492 1.77344C36.474 5.85027 36.474 12.4596 40.492 16.5364ZM40.8628 6.11529L44.5873 9.89438C49.0921 14.4653 52.4586 20.1781 54.6159 26.9019L42.4461 14.5536C40.2017 12.2763 39.6729 8.90625 40.8628 6.11529Z" fill="#3A435C"/>
<path d="M0.677228 74.9567C0.864258 75.1171 1.07708 75.2283 1.31248 75.2905C1.54788 75.3526 1.78006 75.3854 2.00578 75.3854C2.27343 75.3854 2.52173 75.333 2.7539 75.225C2.98608 75.1171 3.18601 74.9731 3.36014 74.7899C3.53104 74.6066 3.66648 74.3972 3.76644 74.1649C3.86318 73.9294 3.91478 73.6807 3.91478 73.4189V72.8954H2.71521V73.3142C2.71521 73.4811 2.69263 73.6218 2.64426 73.733C2.5959 73.8443 2.53785 73.9326 2.46691 73.9948C2.38952 74.057 2.30568 74.1028 2.21539 74.1322C2.1251 74.1617 2.04126 74.1748 1.96386 74.1748C1.68977 74.1748 1.49951 74.0897 1.3931 73.9228C1.28669 73.7559 1.23509 73.5498 1.23509 73.3011V68.9593C1.23509 68.6714 1.28346 68.4358 1.38343 68.2493C1.48017 68.0628 1.68009 67.9679 1.97676 67.9679C2.20571 67.9679 2.38307 68.0562 2.5185 68.2296C2.65071 68.4031 2.71843 68.6125 2.71843 68.8513V69.257H3.918V68.7793C3.918 68.4849 3.86963 68.2133 3.76967 67.9614C3.67293 67.7094 3.53749 67.4935 3.36336 67.3102C3.01188 66.9372 2.55075 66.7507 1.98644 66.7507C1.69622 66.7507 1.4318 66.7998 1.19317 66.9012C0.954548 66.9994 0.74817 67.1368 0.577264 67.3135C0.403133 67.4902 0.270922 67.6963 0.177407 67.9352C0.0838922 68.174 0.0355225 68.4325 0.0355225 68.7106V73.3862C0.0355225 73.7756 0.0967908 74.0962 0.216103 74.3482C0.33864 74.6001 0.493423 74.803 0.680453 74.9633L0.677228 74.9567Z" fill="#3A435C"/>
<path d="M13.5403 68.8218C13.5403 68.4815 13.4823 68.1772 13.3629 67.9155C13.2469 67.6537 13.0921 67.4345 12.905 67.2578C12.7083 67.091 12.4923 66.9634 12.2537 66.875C12.015 66.7867 11.7732 66.7441 11.5313 66.7441C11.2895 66.7441 11.0476 66.7867 10.809 66.875C10.5704 66.9634 10.3576 67.091 10.1673 67.2578C9.97062 67.4312 9.81583 67.6505 9.69652 67.9155C9.58043 68.1772 9.51917 68.4815 9.51917 68.8218V73.3076C9.51917 73.6643 9.57721 73.9718 9.69652 74.2271C9.81261 74.4823 9.97062 74.6917 10.1673 74.8585C10.3543 75.0352 10.5704 75.1661 10.809 75.2512C11.0476 75.3395 11.2895 75.382 11.5313 75.382C11.7732 75.382 12.015 75.3395 12.2537 75.2512C12.4923 75.1628 12.7116 75.0319 12.905 74.8585C13.0921 74.6917 13.2469 74.4823 13.3629 74.2271C13.479 73.9718 13.5403 73.6676 13.5403 73.3076V68.8218ZM12.3407 73.3076C12.3407 73.6021 12.2601 73.8181 12.0989 73.9588C11.9377 74.0994 11.7474 74.1682 11.5281 74.1682C11.3088 74.1682 11.1186 74.0994 10.9574 73.9588C10.7961 73.8213 10.7155 73.6021 10.7155 73.3076V68.8218C10.7155 68.5273 10.7961 68.3114 10.9574 68.1707C11.1186 68.0333 11.3088 67.9613 11.5281 67.9613C11.7474 67.9613 11.9377 68.03 12.0989 68.1707C12.2601 68.3114 12.3407 68.5273 12.3407 68.8218V73.3076Z" fill="#3A435C"/>
<path d="M22.0179 71.315H21.9921L20.454 66.8193H19.2996V75.3133H20.4991V70.1469H20.5249L21.6987 73.7984H22.2985L23.4884 70.1469H23.511V75.3133H24.7105V66.8193H23.5464L22.0179 71.315Z" fill="#3A435C"/>
<path d="M33.8911 67.4148C33.6879 67.1923 33.459 67.0386 33.2107 66.9502C32.9591 66.8619 32.6689 66.8193 32.34 66.8193H30.5406V75.3133H31.7402V71.9955H32.3529C32.8011 71.9955 33.1591 71.917 33.4364 71.7632C33.7105 71.6094 33.9298 71.3902 34.0942 71.1121C34.2361 70.8831 34.3264 70.6344 34.3715 70.3727C34.4135 70.1109 34.436 69.787 34.436 69.4074C34.436 68.897 34.3973 68.4946 34.3199 68.1968C34.2425 67.8991 34.1007 67.6373 33.8975 67.4148H33.8911ZM33.2848 70.0029C33.2719 70.1763 33.2365 70.3236 33.172 70.4446C33.1107 70.5722 33.0107 70.6704 32.8785 70.7424C32.7463 70.8144 32.5561 70.8504 32.3142 70.8504H31.737V67.9645H32.3594C32.5948 67.9645 32.7753 68.0005 32.9011 68.0725C33.0269 68.1445 33.1204 68.2459 33.1849 68.3833C33.2461 68.5175 33.2816 68.6745 33.2913 68.8545C33.2977 69.0344 33.3042 69.2209 33.3042 69.4205C33.3042 69.6365 33.2977 69.8295 33.2881 70.0062L33.2848 70.0029Z" fill="#3A435C"/>
<path d="M40.924 66.8193L39.0537 75.3133H40.2533L40.6048 73.4875H42.2397L42.5912 75.3133H43.7907L41.9204 66.8193H40.9208H40.924ZM40.8176 72.3424L41.4045 69.2635H41.4271L42.0139 72.3424H40.8144H40.8176Z" fill="#3A435C"/>
<path d="M53.2228 75.3133V66.8193H52.0233V71.9366H52.0007L50.1884 66.8193H49.0372V75.3133H50.2368V70.2058H50.2594L52.0942 75.3133H53.2228Z" fill="#3A435C"/>
<path d="M58.479 66.8193L60.1268 71.7207V75.3133H61.3231V71.7207L62.9709 66.8193H61.7004L60.7363 70.196H60.7137L59.7495 66.8193H58.479Z" fill="#3A435C"/>
<path d="M0.664278 80.9772H1.03511V78.8439H1.69939V78.5134H0V78.8439H0.664278V80.9772Z" fill="#3A435C"/>
<path d="M5.00147 80.4275L5.1885 80.9805H5.57545L4.6919 78.5134H4.38233L3.49878 80.9805H3.88896L4.07599 80.4275H4.99824H5.00147ZM4.53712 79.0173H4.54357L4.89505 80.0938H4.18563L4.53712 79.0173Z" fill="#3A435C"/>
<path d="M8.23258 79.0434C8.27127 78.9911 8.32287 78.9518 8.38736 78.9158C8.44863 78.8831 8.5228 78.8668 8.60986 78.8635C8.72917 78.8635 8.82914 78.8995 8.90975 78.9682C8.98715 79.0369 9.04197 79.122 9.07421 79.2234H9.4644C9.4257 79.0173 9.33218 78.8438 9.18385 78.7032C9.03552 78.5657 8.84526 78.4938 8.60986 78.4905C8.41961 78.4905 8.25838 78.5396 8.13261 78.6279C8.00363 78.7162 7.90689 78.8177 7.84885 78.9322C7.81337 78.9911 7.78435 79.0696 7.76823 79.1678C7.75211 79.2659 7.74243 79.4557 7.74243 79.7436C7.74243 80.0316 7.75211 80.2148 7.76823 80.3162C7.7779 80.3686 7.78758 80.4144 7.80048 80.4471C7.81337 80.4798 7.8295 80.5158 7.84885 80.5551C7.90689 80.6696 8.00363 80.7677 8.13261 80.8561C8.2616 80.9477 8.41961 80.9935 8.60986 80.9968C8.85816 80.9935 9.06454 80.9084 9.22577 80.7416C9.387 80.5747 9.47084 80.3686 9.47729 80.1199V79.616H8.61309V79.9694H9.10968V80.097C9.10968 80.2508 9.05809 80.3751 8.9678 80.47C8.87428 80.5682 8.75497 80.6205 8.61309 80.6205C8.52602 80.6205 8.45185 80.6009 8.39059 80.5649C8.32609 80.5322 8.2745 80.4929 8.2358 80.4406C8.18743 80.3882 8.15519 80.3195 8.14229 80.2312C8.12294 80.1461 8.11649 79.9825 8.11649 79.7404C8.11649 79.4982 8.12617 79.3314 8.14229 79.2463C8.15841 79.1612 8.19066 79.0958 8.2358 79.0402L8.23258 79.0434Z" fill="#3A435C"/>
<path d="M11.9537 78.5134V80.9772H13.5048V80.6238H12.3213V78.5134H11.9537Z" fill="#3A435C"/>
<path d="M16.2684 78.5134H15.9008V80.9805H16.2684V78.5134Z" fill="#3A435C"/>
<path d="M18.8287 78.5134V80.9772H19.1996V79.2267H19.206L20.3024 80.9772H20.6507V78.5134H20.2831V80.2639H20.2766L19.177 78.5134H18.8287Z" fill="#3A435C"/>
<path d="M24.7653 78.8668V78.5134H23.2142V80.9772H24.7653V80.6238H23.5818V79.9007H24.5912V79.5703H23.5818V78.8668H24.7653Z" fill="#3A435C"/>
<path d="M30.0505 78.9355C30.015 78.9944 29.986 79.0729 29.9699 79.171C29.9538 79.2692 29.9441 79.459 29.9441 79.7469C29.9441 80.0348 29.9538 80.2181 29.9699 80.3195C29.9796 80.3718 29.9892 80.4176 30.0021 80.4504C30.015 80.4831 30.0312 80.5191 30.0505 80.5583C30.1085 80.6729 30.2053 80.771 30.3343 80.8594C30.4633 80.951 30.6213 80.9968 30.8115 81.0001C31.0598 80.9968 31.2662 80.9117 31.4274 80.7448C31.5887 80.578 31.6725 80.3718 31.679 80.1232V79.6193H30.8147V79.9727H31.3113V80.1003C31.3113 80.2541 31.263 80.3784 31.1695 80.4733C31.0759 80.5714 30.9566 80.6238 30.8147 80.6238C30.7277 80.6238 30.6535 80.6042 30.5922 80.5682C30.5278 80.5354 30.4794 80.4962 30.4375 80.4438C30.3891 80.3915 30.3568 80.3228 30.3439 80.2344C30.3278 80.1493 30.3182 79.9858 30.3182 79.7436C30.3182 79.5015 30.3278 79.3346 30.3439 79.2496C30.3601 79.1645 30.3923 79.0991 30.4375 79.0434C30.4762 78.9911 30.5278 78.9518 30.5922 78.9158C30.6535 78.8831 30.7277 78.8668 30.8147 78.8635C30.9341 78.8635 31.034 78.8995 31.1146 78.9682C31.192 79.0369 31.2469 79.122 31.2791 79.2234H31.6693C31.6306 79.0173 31.5371 78.8438 31.3887 78.7032C31.2404 78.5657 31.0501 78.4938 30.8147 78.4905C30.6245 78.4905 30.4633 78.5396 30.3375 78.6279C30.2085 78.7162 30.1118 78.8177 30.0537 78.9322L30.0505 78.9355Z" fill="#3A435C"/>
<path d="M34.1812 78.9354C34.1458 78.9943 34.1168 79.0728 34.1006 79.1709C34.0845 79.2691 34.0748 79.4589 34.0748 79.7468C34.0748 80.0347 34.0845 80.218 34.1006 80.3194C34.1103 80.3717 34.12 80.4176 34.1329 80.4503C34.1458 80.483 34.1619 80.519 34.1812 80.5582C34.2393 80.6728 34.336 80.7709 34.465 80.8593C34.594 80.9509 34.752 80.9967 34.9423 81C35.1357 80.9967 35.297 80.9476 35.426 80.8593C35.5549 80.7709 35.6452 80.6728 35.7033 80.5582C35.7452 80.4994 35.7742 80.4176 35.7871 80.3194C35.8 80.2212 35.8097 80.0282 35.8097 79.7468C35.8097 79.4654 35.8032 79.2691 35.7871 79.1709C35.771 79.0728 35.742 78.9943 35.7033 78.9354C35.6452 78.8208 35.5549 78.7194 35.426 78.6311C35.297 78.5395 35.1357 78.4937 34.9423 78.4937C34.752 78.4937 34.5908 78.5427 34.465 78.6311C34.336 78.7194 34.2393 78.8208 34.1812 78.9354ZM34.4715 79.2495C34.4876 79.1644 34.5198 79.099 34.565 79.0433C34.6037 78.991 34.6553 78.9517 34.7198 78.9157C34.781 78.883 34.8552 78.8667 34.9423 78.8634C35.0293 78.8634 35.1067 78.883 35.1712 78.9157C35.2325 78.9485 35.2808 78.991 35.3195 79.0433C35.3679 79.0957 35.4002 79.1644 35.4163 79.2495C35.4324 79.3378 35.4421 79.5014 35.4421 79.7435C35.4421 79.9857 35.4324 80.1493 35.4163 80.2343C35.3969 80.3194 35.3647 80.3881 35.3195 80.4437C35.2841 80.4928 35.2325 80.5353 35.1712 80.5681C35.1067 80.6041 35.0293 80.6237 34.9423 80.6237C34.8552 80.6237 34.781 80.6041 34.7198 80.5681C34.6553 80.5353 34.6069 80.4961 34.565 80.4437C34.5166 80.3914 34.4844 80.3227 34.4715 80.2343C34.4521 80.1493 34.4457 79.9857 34.4457 79.7435C34.4457 79.5014 34.4553 79.3345 34.4715 79.2495Z" fill="#3A435C"/>
<path d="M38.2896 80.9772H39.8406V80.6238H38.6572V79.9007H39.6665V79.5703H38.6572V78.8668H39.8406V78.5134H38.2896V80.9772Z" fill="#3A435C"/>
<path d="M42.9556 80.6238C42.688 80.6238 42.459 80.5387 42.2655 80.3784L42.0237 80.6598C42.2817 80.8855 42.5912 80.9968 42.9524 80.9968C43.5102 80.9902 43.794 80.7514 43.8069 80.2802C43.8069 80.1068 43.7521 79.953 43.6457 79.8189C43.536 79.6847 43.3684 79.6029 43.1394 79.5702C43.0233 79.5571 42.933 79.544 42.8653 79.531C42.746 79.5081 42.6589 79.4688 42.6041 79.4099C42.5493 79.351 42.5235 79.2888 42.5235 79.2168C42.5235 79.0991 42.5654 79.0107 42.646 78.9485C42.7202 78.8897 42.8169 78.8635 42.9298 78.8635C43.1491 78.8668 43.349 78.9322 43.5328 79.0533L43.7392 78.7457C43.5167 78.5821 43.2523 78.497 42.9492 78.4905C42.6976 78.4905 42.5042 78.5592 42.3687 78.6901C42.2268 78.8209 42.1559 78.9944 42.1559 79.2103C42.1559 79.3903 42.2107 79.5408 42.3236 79.6684C42.4332 79.7894 42.5912 79.868 42.8008 79.904C42.9169 79.9203 43.0233 79.9367 43.1233 79.9498C43.3361 79.9858 43.4425 80.097 43.4393 80.2802C43.4361 80.506 43.2748 80.6205 42.9588 80.6238H42.9556Z" fill="#3A435C"/>
<path d="M50.8076 80.9772V78.5134H50.44V79.5703H49.4791V78.5134H49.1115V80.9772H49.4791V79.9007H50.44V80.9772H50.8076Z" fill="#3A435C"/>
<path d="M54.9223 78.8668V78.5134H53.3712V80.9772H54.9223V80.6238H53.7388V79.9007H54.7481V79.5703H53.7388V78.8668H54.9223Z" fill="#3A435C"/>
<path d="M59.0014 79.2004C58.995 78.9714 58.9144 78.7979 58.7596 78.6736C58.6306 78.5656 58.4661 78.51 58.263 78.51H57.3149V80.9771H57.6826V79.9235H58.1533L58.6564 80.9771H59.0949L58.5306 79.8842C58.8402 79.7632 58.995 79.5374 59.0014 79.2004ZM58.55 79.472C58.4823 79.5505 58.3791 79.593 58.2404 79.593H57.6826V78.8437H58.2598C58.3758 78.8437 58.4661 78.8699 58.5306 78.919C58.608 78.9779 58.6499 79.0695 58.6532 79.1971C58.6532 79.3051 58.6209 79.3934 58.5532 79.4687L58.55 79.472Z" fill="#3A435C"/>
<path d="M63 78.8668V78.5134H61.449V80.9772H63V80.6238H61.8166V79.9007H62.8259V79.5703H61.8166V78.8668H63Z" fill="#3A435C"/>
</g>
<defs>
<clipPath id="clip0_109_430">
<rect width="63" height="81" fill="white"/>
</clipPath>
</defs>
</svg>
