<svg width="53" height="78" viewBox="0 0 53 78" fill="none" xmlns="http://www.w3.org/2000/svg">
<g clip-path="url(#clip0_109_576)">
<path d="M8.29578 42.611V55.3694L11.0548 57.607L11.2649 57.4363L18.9273 51.2262L8.29578 42.611ZM9.84061 45.8572L16.4679 51.2262L11.0548 55.6115L9.84061 54.6277V45.8572Z" fill="#3A435C"/>
<path d="M20.4041 51.6265L19.9129 52.0269L12.0404 58.4045H27.7822L28.2735 58.0073L28.7678 57.6069L44.7043 44.6871V31.9318L20.8954 51.2262L20.4041 51.6265ZM43.1594 35.178V43.9454L27.7977 56.3997L27.3033 56.8L27.2353 56.8528H16.4154L20.8861 53.231L21.3774 52.8307L21.8655 52.4334L43.1594 35.178Z" fill="#3A435C"/>
<path d="M11.2649 41.472L18.9273 35.2619L8.29578 26.6466V39.4051L11.0579 41.6396L11.2649 41.472ZM9.84061 38.6633V29.8929L16.4679 35.2619L11.0579 39.6471L9.84061 38.6633Z" fill="#3A435C"/>
<path d="M20.4041 35.6622L19.9098 36.0594L12.0404 42.4371H27.7822L28.2735 42.0398L28.7647 41.6395L44.7043 28.7227V15.9674L20.8954 35.2618L20.4041 35.6622ZM43.1594 19.2137V27.981L27.7915 40.4353L27.3064 40.8326L27.2384 40.8853H16.4154L20.8737 37.2698L21.3774 36.8663L21.8655 36.4691L43.1594 19.2137Z" fill="#3A435C"/>
<path d="M11.2649 25.5045L18.9273 19.2975L8.29578 10.6823V23.4376L11.0548 25.6752L11.2649 25.5045ZM9.84061 13.9285L16.4679 19.2975L11.0548 23.6797L9.84061 22.6959V13.9285Z" fill="#3A435C"/>
<path d="M20.8954 19.2944L20.4041 19.6947L19.9098 20.0951L12.0404 26.4728H27.7822L28.2735 26.0755L28.7678 25.6752L44.7043 12.7584V0L20.8954 19.2944ZM43.1594 12.0167L27.7977 24.4679L27.3033 24.8683L27.2353 24.921H16.4123L20.8768 21.3024L21.3743 20.8989L21.8624 20.5016L43.1594 3.24625V12.0167Z" fill="#3A435C"/>
<path d="M0.886732 72.2802C1.1648 72.5534 1.49539 72.7644 1.87851 72.9134C2.26163 73.0623 2.68491 73.1368 3.14527 73.1368C3.60563 73.1368 3.99493 73.053 4.38114 72.8823C4.76734 72.7147 5.09485 72.4416 5.36365 72.0723L4.48927 71.4485C4.29154 71.703 4.08144 71.8861 3.8528 72.0009C3.62726 72.1158 3.39245 72.1747 3.15145 72.1747C2.84249 72.1747 2.56442 72.1189 2.31415 72.0071C2.06389 71.8954 1.85071 71.7402 1.67151 71.5416C1.49231 71.3461 1.35327 71.1102 1.2544 70.8402C1.15553 70.5702 1.1061 70.2754 1.1061 69.9526C1.1061 69.6547 1.15553 69.3754 1.2544 69.1178C1.35327 68.8602 1.49231 68.6305 1.67151 68.4381C1.85071 68.2426 2.06389 68.0905 2.31415 67.9819C2.56442 67.8733 2.84249 67.8174 3.15145 67.8174C3.35846 67.8174 3.56547 67.8578 3.76938 67.9354C3.9733 68.0129 4.18649 68.1712 4.40585 68.4071L5.23079 67.7988C4.93418 67.4543 4.61286 67.2122 4.26682 67.0695C3.92078 66.9267 3.54693 66.8553 3.14527 66.8553C2.68491 66.8553 2.26472 66.9298 1.87851 67.0788C1.49539 67.2278 1.1648 67.4419 0.886732 67.7181C0.608663 67.9943 0.392387 68.3264 0.234814 68.7205C0.0772415 69.1116 0 69.5461 0 70.0271C0 70.5082 0.0772415 70.9209 0.234814 71.3026C0.392387 71.6844 0.608663 72.0133 0.886732 72.2865V72.2802Z" fill="#3A435C"/>
<path d="M8.32972 72.2803C8.60779 72.5534 8.93839 72.7644 9.32151 72.9134C9.70462 73.0624 10.1279 73.1368 10.5883 73.1368C11.0548 73.1306 11.4812 73.0499 11.8674 72.8948C12.2536 72.7396 12.5873 72.5255 12.8684 72.2492C13.1496 71.973 13.369 71.6441 13.5234 71.2623C13.681 70.8806 13.7583 70.4554 13.7583 69.9868C13.7583 69.5182 13.681 69.0744 13.5234 68.6864C13.3659 68.2985 13.1465 67.9664 12.8684 67.6902C12.5873 67.414 12.2536 67.203 11.8674 67.0602C11.4812 66.9174 11.0548 66.8492 10.5883 66.8523C10.1279 66.8523 9.70771 66.9268 9.32151 67.0757C8.93839 67.2247 8.60779 67.4388 8.32972 67.715C8.05166 67.9913 7.83538 68.3233 7.67781 68.7175C7.52023 69.1085 7.44299 69.543 7.44299 70.024C7.44299 70.5051 7.52023 70.9178 7.67781 71.2996C7.83538 71.6813 8.05166 72.0103 8.32972 72.2834V72.2803ZM8.70048 69.1178C8.79935 68.8602 8.93839 68.6306 9.11759 68.4382C9.29679 68.2426 9.50997 68.0906 9.76024 67.9819C10.0105 67.8733 10.2886 67.8175 10.5975 67.8175C10.9065 67.8175 11.1877 67.8733 11.4379 67.9819C11.6913 68.0906 11.9075 68.2426 12.0867 68.4382C12.2659 68.6337 12.405 68.8602 12.5039 69.1178C12.6027 69.3754 12.6522 69.6547 12.6522 69.9527C12.6522 70.2723 12.6027 70.5703 12.5039 70.8403C12.405 71.1103 12.2659 71.343 12.0867 71.5416C11.9075 71.7403 11.6913 71.8923 11.4379 72.0072C11.1846 72.1189 10.9065 72.1748 10.5975 72.1748C10.2886 72.1748 10.0105 72.1189 9.76024 72.0072C9.50997 71.8954 9.29679 71.7403 9.11759 71.5416C8.93839 71.3461 8.79935 71.1103 8.70048 70.8403C8.60161 70.5703 8.55218 70.2754 8.55218 69.9527C8.55218 69.6547 8.60161 69.3754 8.70048 69.1178Z" fill="#3A435C"/>
<path d="M22.8819 72.9848V67.0044H21.2846L19.678 71.1941L18.0899 67.0044H16.474V72.9848H17.4843V68.0192H17.4998L19.3103 72.9848H20.0487L21.8562 68.0192H21.8747V72.9848H22.8819Z" fill="#3A435C"/>
<path d="M26.9789 70.5113H27.7359C28.0511 70.5113 28.3508 70.4896 28.6412 70.443C28.9285 70.3965 29.185 70.3127 29.4012 70.1854C29.6206 70.0582 29.7936 69.8813 29.9234 69.6485C30.0532 69.4189 30.118 69.1147 30.118 68.7361C30.118 68.404 30.0562 68.1278 29.9357 67.9044C29.8152 67.6809 29.6546 67.504 29.4507 67.3737C29.2498 67.2402 29.015 67.1471 28.7493 67.0912C28.4836 67.0354 28.2055 67.0074 27.9213 67.0074H25.9192V72.9879H26.9789V70.5113ZM26.9789 67.9168H27.7359C27.8749 67.9168 28.0232 67.9261 28.1746 67.9416C28.326 67.9571 28.462 67.9975 28.5856 68.0564C28.7092 68.1154 28.8111 68.1992 28.8884 68.3109C28.9656 68.4195 29.0058 68.5685 29.0058 68.7547C29.0058 68.9564 28.9625 69.1147 28.876 69.2264C28.7895 69.3382 28.6783 69.4251 28.5392 69.4809C28.4002 69.5368 28.2519 69.5709 28.0881 69.5833C27.9244 69.5958 27.7699 69.5989 27.6185 69.5989H26.9789V67.9168Z" fill="#3A435C"/>
<path d="M34.9595 67.0044H34.0419L31.4528 72.9848H32.6392L33.1768 71.6162H35.7597L36.3159 72.9848H37.527L34.9626 67.0044H34.9595ZM33.5383 70.7038L34.4714 68.2706L35.389 70.7038H33.5383Z" fill="#3A435C"/>
<path d="M45.2357 72.9848V67.0044H44.176V71.4486H44.1605L41.2748 67.0044H39.8721V72.9848H40.9318V68.3979H40.9473L43.8917 72.9848H45.2357Z" fill="#3A435C"/>
<path d="M49.7034 72.9848H50.76V70.4275L53 67.0044H51.7364L50.2564 69.3879L48.795 67.0044H47.4634L49.7034 70.4275V72.9848Z" fill="#3A435C"/>
<path d="M0.756975 75.6042H0.00927734V75.2349H1.92178V75.6042H1.17408V77.9783H0.756975V75.6042Z" fill="#3A435C"/>
<path d="M6.01248 77.3639H4.97744L4.76734 77.9783H4.32861L5.32039 75.2349H5.66644L6.65822 77.9783H6.22257L6.00939 77.3639H6.01248ZM5.89507 76.9945L5.49959 75.7966H5.49341L5.09794 76.9945H5.89507Z" fill="#3A435C"/>
<path d="M10.4585 76.4669H11.4287V77.0255C11.4225 77.3017 11.3298 77.5314 11.1475 77.7176C10.9653 77.9007 10.7335 77.9969 10.4555 78.0031C10.2392 77.9969 10.06 77.9442 9.91786 77.8448C9.77264 77.7486 9.66451 77.6369 9.59962 77.5097C9.58108 77.4693 9.56255 77.429 9.54401 77.3917C9.52856 77.3514 9.5162 77.3048 9.50693 77.2459C9.48839 77.1341 9.47913 76.9231 9.47913 76.6097C9.47913 76.2962 9.48839 76.079 9.50693 75.9703C9.52547 75.8617 9.55637 75.7748 9.59962 75.7096C9.66451 75.5824 9.77264 75.4707 9.91786 75.3714C10.0631 75.272 10.2423 75.2193 10.4555 75.2162C10.7181 75.2162 10.9344 75.2969 11.1012 75.4521C11.268 75.6072 11.3731 75.7996 11.4163 76.0293H10.9776C10.9436 75.9176 10.8818 75.8245 10.7953 75.7469C10.7026 75.6724 10.5914 75.6352 10.4585 75.6321C10.3597 75.6321 10.2763 75.6538 10.2083 75.691C10.1372 75.7283 10.0785 75.7748 10.0353 75.8307C9.98274 75.8896 9.94566 75.9641 9.92713 76.0572C9.90859 76.1565 9.89623 76.3397 9.89623 76.6097C9.89623 76.8797 9.9055 77.0628 9.92713 77.1559C9.94566 77.2521 9.97965 77.3297 10.0353 77.3886C10.0785 77.4445 10.1372 77.491 10.2083 77.5252C10.2793 77.5655 10.3628 77.5873 10.4585 77.5873C10.6192 77.5873 10.7521 77.5314 10.8571 77.4228C10.9622 77.3172 11.0147 77.1776 11.0178 77.0069V76.8641H10.4616V76.47L10.4585 76.4669Z" fill="#3A435C"/>
<path d="M14.886 75.2317H15.3V77.5841H16.6316V77.9783H14.886V75.2348V75.2317Z" fill="#3A435C"/>
<path d="M19.7058 75.2317H20.1198V77.9752H19.7058V75.2317Z" fill="#3A435C"/>
<path d="M23.3825 75.2317H23.7718L25.0076 77.1807H25.0138V75.2317H25.4278V77.9752H25.0355L23.7996 76.0262H23.7934V77.9752H23.3794V75.2317H23.3825Z" fill="#3A435C"/>
<path d="M28.6937 75.2317H30.4394V75.6258H29.1077V76.4079H30.2447V76.7772H29.1077V77.5841H30.4394V77.9783H28.6937V75.2348V75.2317Z" fill="#3A435C"/>
<path d="M36.8349 76.7772H35.7535V77.9752H35.3395V75.2317H35.7535V76.4079H36.8349V75.2317H37.2489V77.9752H36.8349V76.7772Z" fill="#3A435C"/>
<path d="M41.3273 75.2317H43.0729V75.6258H41.7413V76.4079H42.8783V76.7772H41.7413V77.5841H43.0729V77.9783H41.3273V75.2348V75.2317Z" fill="#3A435C"/>
<path d="M46.1471 75.2317H47.2131C47.4417 75.2317 47.6271 75.2907 47.7692 75.4117C47.9422 75.5482 48.0349 75.7438 48.0411 75.9983C48.0349 76.3707 47.8588 76.6252 47.5128 76.7586L48.1461 77.9752H47.6518L47.0864 76.8021H46.5581V77.9752H46.144V75.2317H46.1471ZM46.5611 76.4358H47.1883C47.3428 76.4358 47.4602 76.3893 47.5375 76.2993C47.6147 76.2186 47.6518 76.1162 47.6518 75.9983C47.6518 75.8555 47.6024 75.7531 47.5158 75.6879C47.4448 75.632 47.3459 75.6041 47.2131 75.6041H46.5642V76.4358H46.5611Z" fill="#3A435C"/>
<path d="M51.1741 75.2317H52.9197V75.6258H51.5881V76.4079H52.7251V76.7772H51.5881V77.5841H52.9197V77.9783H51.1741V75.2348V75.2317Z" fill="#3A435C"/>
</g>
<defs>
<clipPath id="clip0_109_576">
<rect width="53" height="78" fill="white"/>
</clipPath>
</defs>
</svg>
