<svg width="68" height="69" viewBox="0 0 68 69" fill="none" xmlns="http://www.w3.org/2000/svg">
<g clip-path="url(#clip0_109_699)">
<path d="M6.52895 60.9825L6.54999 60.9193L5.46651 60.6526L5.44547 60.7158C5.31573 61.2947 5.07028 61.7333 4.71613 62.0351C4.35147 62.3263 3.91316 62.4737 3.3872 62.4737C2.95942 62.4737 2.56319 62.3649 2.18801 62.1509C1.82334 61.9369 1.55685 61.6035 1.38504 61.1649C1.2027 60.7263 1.11855 60.2 1.11855 59.6105C1.11855 59.1509 1.19218 58.6983 1.34296 58.2702C1.49373 57.8421 1.7497 57.4983 2.10385 57.2386C2.46852 56.993 2.92786 56.8632 3.46434 56.8632C3.93771 56.8632 4.32342 56.9719 4.63198 57.207C4.94405 57.4316 5.17898 57.7965 5.34028 58.3018L5.36132 58.3544L6.43428 58.1088L6.41324 58.0456C6.20987 57.379 5.85572 56.8562 5.3508 56.4807C4.84587 56.1158 4.22524 55.9333 3.48538 55.9333C2.84371 55.9333 2.2406 56.0737 1.6936 56.3614C1.15712 56.6632 0.729335 57.0912 0.438302 57.6491C0.14727 58.207 0 58.8737 0 59.614C0 60.3018 0.129738 60.9544 0.385706 61.5439C0.641675 62.1439 1.02738 62.6176 1.53231 62.9263C2.02671 63.2491 2.6789 63.4105 3.47136 63.4105C4.26381 63.4105 4.88795 63.1965 5.42093 62.7895C5.95741 62.3825 6.32208 61.7719 6.52545 60.986L6.52895 60.9825Z" fill="#3A435C"/>
<path d="M15.2669 56.4034C14.7199 56.0806 14.0993 55.9192 13.4226 55.9192C12.3812 55.9192 11.5256 56.2631 10.8699 56.9367C10.2177 57.6139 9.88458 58.5683 9.88458 59.7578C9.88458 60.3894 10.0248 60.9929 10.3124 61.5613C10.5894 62.1297 11.0101 62.5788 11.5571 62.9122C12.1041 63.2455 12.7248 63.4069 13.412 63.4069C14.0537 63.4069 14.6568 63.256 15.2038 62.9578C15.7613 62.6666 16.1891 62.2174 16.5012 61.6385C16.8027 61.0701 16.95 60.4034 16.95 59.6736C16.95 58.9438 16.7992 58.3122 16.5222 57.7438C16.2312 57.1753 15.8139 56.7262 15.2669 56.4034ZM15.1477 61.7473C14.6989 62.2315 14.1063 62.4771 13.412 62.4771C12.7178 62.4771 12.1462 62.2315 11.6869 61.7578C11.2381 61.2736 10.9996 60.6104 10.9996 59.7718C10.9996 58.7297 11.2451 57.9683 11.7184 57.5297C12.1918 57.0911 12.7704 56.8631 13.4226 56.8631C13.8959 56.8631 14.3132 56.9823 14.6884 57.2069C15.053 57.4315 15.3441 57.7648 15.5369 58.1824C15.7298 58.5999 15.828 59.1052 15.828 59.6736C15.828 60.5648 15.6036 61.2595 15.1512 61.7438L15.1477 61.7473Z" fill="#3A435C"/>
<path d="M27.7463 56.165H26.7049V63.4071H27.7463V56.165Z" fill="#3A435C"/>
<path d="M24.2715 62.1089L23.9804 61.2492L22.2553 56.165H22.136V58.7931L23.735 63.4071H24.6887L26.3192 58.8036V56.2282L24.594 61.151C24.4538 61.5475 24.3486 61.8598 24.2715 62.1054V62.1089Z" fill="#3A435C"/>
<path d="M21.7538 56.165H20.7019V63.4071H21.7538V56.165Z" fill="#3A435C"/>
<path d="M32.5817 56.165H31.4982V63.4071H32.5817V56.165Z" fill="#3A435C"/>
<path d="M36.323 56.586C36.0775 56.4141 35.7655 56.2948 35.4113 56.2421C35.1554 56.1895 34.7802 56.1685 34.2963 56.1685H32.9673V57.1334H34.3734C34.8012 57.1334 35.0922 57.1544 35.2535 57.1965C35.4885 57.2597 35.6813 57.3895 35.8216 57.593C35.9724 57.7965 36.0355 58.0316 36.0355 58.3228C36.0355 58.7088 35.9162 59.0106 35.6708 59.2246C35.4253 59.4386 34.9941 59.5474 34.3945 59.5474H32.9673V60.5228H34.3839C35.4113 60.5228 36.1512 60.2983 36.5509 59.8702C36.9577 59.4421 37.161 58.9158 37.161 58.2948C37.161 57.9299 37.0874 57.5965 36.9366 57.2983C36.7753 56.9965 36.5825 56.7509 36.3265 56.5895L36.323 56.586Z" fill="#3A435C"/>
<path d="M44.8541 56.165H43.7391L40.9094 63.4071H42.056L42.3786 62.558H42.3681L43.1816 60.358L43.3534 59.9089L43.953 58.3089H43.9635C44.0933 57.9545 44.1984 57.5896 44.2861 57.2352C44.3948 57.5791 44.5421 57.9966 44.7244 58.4703L45.4537 60.358H43.5988L43.2657 61.2492H45.7974L46.6459 63.4071H47.8802L44.8577 56.165H44.8541Z" fill="#3A435C"/>
<path d="M52.9154 58.4843L55.8959 62.8597V61.0036L52.9154 56.6387V58.4843Z" fill="#3A435C"/>
<path d="M56.3061 61.6036L56.285 61.5721V63.4071H57.3545V56.165H56.3061V61.6036Z" fill="#3A435C"/>
<path d="M52.5297 56.165H51.5233V63.4071H52.5297V56.165Z" fill="#3A435C"/>
<path d="M65.3001 58.2913C65.0231 58.7088 64.7741 59.1053 64.5602 59.4492V59.4386L63.9606 60.3509V63.4071H65.0546V60.3509L68.0035 56.1685H66.7272L65.3001 58.2913Z" fill="#3A435C"/>
<path d="M63.8835 58.344L62.4353 56.165H61.1064L63.7222 60.0071L64.3358 59.0633L63.8835 58.344Z" fill="#3A435C"/>
<path d="M0 66.7052H0.809983V68.9543H1.35348V66.7052H2.15294V66.249H0V66.7052Z" fill="#3A435C"/>
<path d="M6.76036 66.249L5.70844 68.9543H6.28699L6.5114 68.3403H7.59489L7.82631 68.9543H8.4224L7.33892 66.249H6.76036ZM6.6727 67.8841L7.04438 66.8841L7.41606 67.8841H6.67621H6.6727Z" fill="#3A435C"/>
<path d="M13.4436 67.9578H14.0712V68.3052C13.8749 68.4561 13.661 68.5333 13.4296 68.5333C13.1771 68.5333 12.9878 68.4456 12.8545 68.2736C12.7213 68.1017 12.6547 67.8666 12.6547 67.5684C12.6547 66.9649 12.9141 66.6631 13.4366 66.6631C13.7592 66.6631 13.9661 66.807 14.0502 67.0982L14.5902 66.9964C14.4745 66.4666 14.0888 66.2 13.4366 66.2C13.0614 66.2 12.7458 66.3157 12.4828 66.5473C12.2234 66.7789 12.0936 67.1263 12.0936 67.5894C12.0936 68.0035 12.2093 68.3403 12.4443 68.6035C12.6792 68.8666 13.0193 68.9964 13.4716 68.9964C13.924 68.9964 14.3237 68.8561 14.6253 68.5789V67.5017H13.4471V67.9543L13.4436 67.9578Z" fill="#3A435C"/>
<path d="M19.9655 66.249H19.415V68.9543H21.319V68.4946H19.9655V66.249Z" fill="#3A435C"/>
<path d="M25.7301 66.249H25.1796V68.9543H25.7301V66.249Z" fill="#3A435C"/>
<path d="M31.3719 68.056L30.2569 66.249H29.7274V68.9543H30.2358V67.1859L31.3299 68.9543H31.8733V66.249H31.3719V68.056Z" fill="#3A435C"/>
<path d="M36.4738 67.7613H37.8273V67.3052H36.4738V66.7052H37.9325V66.249H35.9233V68.9543H37.9851V68.4946H36.4738V67.7613Z" fill="#3A435C"/>
<path d="M49.1425 67.3157H48.073V66.249H47.5295V68.9543H48.073V67.7718H49.1425V68.9543H49.686V66.249H49.1425V67.3157Z" fill="#3A435C"/>
<path d="M54.2758 67.7613H55.6293V67.3052H54.2758V66.7052H55.7345V66.249H53.7253V68.9543H55.7871V68.4946H54.2758V67.7613Z" fill="#3A435C"/>
<path d="M61.2291 67.7615C61.7024 67.6913 61.9409 67.4422 61.9409 67.0106C61.9409 66.7158 61.8532 66.5158 61.6779 66.4106C61.5026 66.3053 61.2361 66.2527 60.8819 66.2527H59.7283V68.9579H60.2718V67.8281H60.3805C60.5348 67.8281 60.647 67.8492 60.7207 67.8878C60.7943 67.9264 60.8574 67.993 60.9135 68.0843L61.5061 68.9579H62.1618L61.8322 68.4316C61.6113 68.0843 61.4114 67.8632 61.2291 67.765V67.7615ZM60.6786 67.3895H60.2753V66.7053H60.7031C60.9977 66.7053 61.1835 66.7264 61.2606 66.772C61.3413 66.8176 61.3799 66.9053 61.3799 67.0422C61.3799 67.186 61.3308 67.2808 61.2361 67.3229C61.1379 67.3685 60.9556 67.3895 60.6786 67.3895Z" fill="#3A435C"/>
<path d="M66.4747 67.7613H67.8317V67.3052H66.4747V66.7052H67.9369V66.249H65.9277V68.9543H67.986V68.4946H66.4747V67.7613Z" fill="#3A435C"/>
<path d="M31.6665 40.2982V41.3509H31.6174V41.3895H15.7473L16.0033 40.1263C16.0489 39.8982 16.098 39.6772 16.1471 39.4702C16.1926 39.2702 16.2487 39.0631 16.3049 38.8631L16.3364 38.7544L16.368 38.6456C16.4136 38.4842 16.4591 38.3368 16.5082 38.1859L16.5117 38.1684C16.5503 38.0456 16.5924 37.9193 16.638 37.7965C16.6835 37.6596 16.7361 37.5193 16.7852 37.3824C16.8483 37.2105 16.9185 37.0316 16.9886 36.8561C17.0482 36.7052 17.1148 36.5579 17.185 36.4C17.2095 36.3368 17.2376 36.2737 17.2691 36.2105C17.3322 36.0631 17.3953 35.9298 17.462 35.8C17.49 35.7438 17.5146 35.6877 17.5426 35.6351C17.6092 35.5017 17.6794 35.3614 17.753 35.2316C17.7775 35.1824 17.8091 35.1193 17.8512 35.0526C17.8512 35.0526 17.8512 35.0456 17.8547 35.0456L17.8617 35.0316L17.8722 35.014C17.9669 34.8386 18.0546 34.6842 18.1387 34.5438C18.2229 34.4035 18.3105 34.2561 18.4052 34.1088L18.4403 34.0561C18.4683 34.014 18.4929 33.9719 18.5209 33.9263L18.5595 33.8702C18.6542 33.7193 18.7558 33.5649 18.8645 33.414C18.9802 33.2456 19.103 33.0702 19.2432 32.8877C19.3344 32.7614 19.4326 32.6316 19.5623 32.4702L19.5728 32.4596L19.5834 32.4491L19.6079 32.4175C19.6465 32.3649 19.6885 32.3158 19.7271 32.2666C19.8323 32.1368 19.9375 32.007 20.0567 31.8737C20.0848 31.8386 20.1058 31.814 20.1233 31.7965C20.2391 31.6596 20.3548 31.5298 20.4775 31.4C20.5126 31.3614 20.5511 31.3193 20.5862 31.2807C20.7089 31.1473 20.8422 31.007 21.014 30.8351C22.3289 29.5193 23.8051 28.428 25.4215 27.5754H17.5321C15.4668 29.6702 13.8398 32.0947 12.6967 34.7895C11.4905 37.6351 10.8769 40.6596 10.8699 43.7754V45.814L10.8664 46.1614H36.33V25.4666V21.6772V6.17893V5.1263H36.3896L37.4416 5.11577H52.2597L52.0037 6.37893C51.2884 9.90174 49.5562 13.1193 46.993 15.6807C46.4531 16.221 45.8815 16.7228 45.2854 17.1895H52.0318C53.3747 15.5263 54.4757 13.6912 55.3103 11.7228C56.513 8.87717 57.1266 5.85612 57.1336 2.74033V0.340332H31.6665V40.2982Z" fill="#3A435C"/>
<path d="M15.6351 20.6912V4.87018L16.8939 5.1193C20.4389 5.82456 23.6683 7.5579 26.242 10.1298C26.4174 10.3053 26.5892 10.4842 26.761 10.6702V4.33333C25.3654 3.32632 23.8577 2.4807 22.2728 1.81053C19.4291 0.610526 16.4065 0 13.2858 0H10.8664V24.0597H26.7575V20.6912H15.6351Z" fill="#3A435C"/>
<path d="M52.0248 24.0596V41.2806L50.7695 41.0315C47.2315 40.3333 43.9986 38.5999 41.4214 36.0245C41.3688 35.9719 41.3127 35.9157 41.2601 35.8596V42.0736C42.5469 42.9648 43.9355 43.7263 45.3906 44.3403C48.2378 45.5438 51.2604 46.1543 54.3741 46.1543H56.79V20.6912H41.2601V24.0596H52.0248Z" fill="#3A435C"/>
<path d="M37.3925 6.17554V47.2106H37.4345V26.5159H37.4415V26.2773L37.4345 23.0773V6.17554H37.3925Z" fill="white"/>
</g>
<defs>
<clipPath id="clip0_109_699">
<rect width="68" height="69" fill="white"/>
</clipPath>
</defs>
</svg>
