<svg width="60" height="70" viewBox="0 0 60 70" fill="none" xmlns="http://www.w3.org/2000/svg">
<g clip-path="url(#clip0_109_732)">
<path d="M19.9566 41.1785L24.1625 43.5905L29.3037 40.6437L25.0979 38.2282V2.80699L20.2098 0L19.7808 0.244694L0.369263 11.3853V17.2859L19.9566 6.04045V41.1785Z" fill="#3A435C"/>
<path d="M34.9127 2.80699V39.976L20.2098 48.418L5.507 39.976V16.8944L0.369263 19.8412V41.1785L20.2098 52.5673L40.0504 41.1785V6.04045L59.6413 17.2859V11.3853L39.8007 0L34.9127 2.80699Z" fill="#3A435C"/>
<path d="M37.3708 45.2718L32.2296 48.2256L39.8008 52.5672L59.6413 41.1784V19.8411L54.5001 16.8943V38.2281L39.8008 46.6701L37.3708 45.2718Z" fill="#3A435C"/>
<path d="M13.472 68.343H14.0593V69.9999H14.4778V68.343H15.0651V67.927H13.472V68.343Z" fill="#3A435C"/>
<path d="M17.386 67.927L16.6335 69.9999H17.0766L17.2876 69.4196H17.9276L18.1386 69.9999H18.5817L17.8291 67.927H17.386ZM17.4388 69.0037L17.6076 68.5352L17.7799 69.0037H17.4423H17.4388Z" fill="#3A435C"/>
<path d="M21.9013 68.9233H21.2753V69.3392H21.7747C21.6587 69.4895 21.4758 69.5874 21.2753 69.5874C20.9272 69.5874 20.6494 69.3078 20.6494 68.9652C20.6494 68.6226 20.9307 68.343 21.2753 68.343C21.4371 68.343 21.5883 68.4059 21.7009 68.5108L21.9962 68.2136C21.8099 68.0354 21.5567 67.927 21.2789 67.927C20.7021 67.927 20.2344 68.3919 20.2344 68.9652C20.2344 69.5385 20.7021 70.0034 21.2789 70.0034C21.8556 70.0034 22.3233 69.5385 22.3233 68.9652C22.3233 68.9512 22.3233 68.9372 22.3233 68.9233H21.9083H21.9013Z" fill="#3A435C"/>
<path d="M24.6724 67.927H24.2574V69.9999H25.432V69.5839H24.6724V67.927Z" fill="#3A435C"/>
<path d="M27.6896 67.927H27.2747V69.9999H27.6896V67.927Z" fill="#3A435C"/>
<path d="M30.8545 69.3113L30.0211 67.927H29.5358V69.9999H29.9508V68.6191L30.7877 69.9999H31.273V67.927H30.8545V69.3113Z" fill="#3A435C"/>
<path d="M33.1157 69.9999H34.3711V69.5839H33.5307V69.1714H34.3711V68.7555H33.5307V68.343H34.3711V67.927H33.1157V69.9999Z" fill="#3A435C"/>
<path d="M38.9708 68.7555H38.2112V67.927H37.7963V69.9999H38.2112V69.1714H38.9708V69.9999H39.3858V67.927H38.9708V68.7555Z" fill="#3A435C"/>
<path d="M41.2285 69.9999H42.4874V69.5839H41.6434V69.1714H42.4874V68.7555H41.6434V68.343H42.4874V67.927H41.2285V69.9999Z" fill="#3A435C"/>
<path d="M45.582 68.5529C45.582 68.2068 45.3042 67.9307 44.956 67.9307H44.3301V70.0036H44.745V69.1751H44.8259L45.2022 70.0036H45.6593L45.2479 69.1017C45.4448 68.9968 45.575 68.7906 45.575 68.5529H45.582ZM44.956 68.7591H44.7486V68.3466H44.956C45.0721 68.3466 45.1635 68.441 45.1635 68.5529C45.1635 68.6647 45.0686 68.7591 44.956 68.7591Z" fill="#3A435C"/>
<path d="M47.4669 69.9999H48.7223V69.5839H47.8818V69.1714H48.7223V68.7555H47.8818V68.343H48.7223V67.927H47.4669V69.9999Z" fill="#3A435C"/>
<path d="M3.19306 60.4361C3.6889 60.4361 4.15309 60.6283 4.49068 60.9464L5.39093 60.0411C4.81772 59.4957 4.04408 59.1602 3.19306 59.1602C1.43125 59.1602 0 60.5829 0 62.3342C0 64.0855 1.43125 65.5082 3.19306 65.5082C4.04408 65.5082 4.81772 65.1726 5.39093 64.6273L4.49068 63.7324C4.15309 64.0436 3.6889 64.2358 3.19306 64.2358C2.13105 64.2358 1.273 63.3899 1.273 62.3342C1.273 61.2785 2.13105 60.4326 3.19306 60.4326V60.4361Z" fill="#3A435C"/>
<path d="M12.1217 59.1636C10.3598 59.1636 8.92859 60.5863 8.92859 62.3376C8.92859 64.0889 10.3598 65.5116 12.1217 65.5116C13.8835 65.5116 15.3147 64.0889 15.3147 62.3376C15.3147 60.5863 13.8835 59.1636 12.1217 59.1636ZM12.1217 64.2462C11.0596 64.2462 10.2016 63.3933 10.2016 62.3376C10.2016 61.2819 11.0596 60.436 12.1217 60.436C13.1837 60.436 14.0347 61.2889 14.0347 62.3376C14.0347 63.3863 13.1766 64.2462 12.1217 64.2462Z" fill="#3A435C"/>
<path d="M25.752 65.5116V59.1636H24.377L22.5167 63.8023L20.6459 59.1636H19.2744V65.5116H20.5439V62.3376L21.8239 65.5116H23.1989L24.479 62.3376V65.5116H25.752Z" fill="#3A435C"/>
<path d="M31.4946 59.1636H29.7081V65.5116H30.9811V62.9738H31.5016C32.553 62.9738 33.4041 62.1209 33.4041 61.0722C33.4041 60.0235 32.553 59.1636 31.491 59.1636H31.4946ZM31.4946 61.7014H30.9811V60.436H31.4946C31.8497 60.436 32.1346 60.7191 32.1346 61.0722C32.1346 61.4252 31.8497 61.7014 31.4946 61.7014Z" fill="#3A435C"/>
<path d="M38.8337 59.1636L36.5268 65.5116H37.8842L38.5312 63.7359H40.4935L41.1406 65.5116H42.498L40.1911 59.1636H38.8337ZM38.9919 62.4635L39.5053 61.0302L40.0293 62.4635H38.9919Z" fill="#3A435C"/>
<path d="M50.3294 63.4003L47.7798 59.1636H46.2888V65.5116H47.5583V61.2819L50.1219 65.5116H51.6024V59.1636H50.3294V63.4003Z" fill="#3A435C"/>
<path d="M57.7001 60.9219L56.8175 59.1636H55.3932L57.0601 62.4879V65.5116H58.3331V62.4879L60 59.1636H58.5793L57.7001 60.9219Z" fill="#3A435C"/>
</g>
<defs>
<clipPath id="clip0_109_732">
<rect width="60" height="70" fill="white"/>
</clipPath>
</defs>
</svg>
