<svg width="74" height="69" viewBox="0 0 74 69" fill="none" xmlns="http://www.w3.org/2000/svg">
<g clip-path="url(#clip0_109_467)">
<path d="M22.2009 48.178L22.1979 48.169L20.387 45.0231L6.0534 20.0742H2.43762L18.5791 48.172L18.5761 48.178H18.5851H22.1918H22.2009Z" fill="#3A435C"/>
<path d="M36.661 48.178L36.658 48.169L34.8501 45.0231L33.0422 41.8772L31.2343 38.7314L29.4264 35.5855L27.6185 32.4397L20.5135 20.0742H16.8977L25.8106 35.5855L27.6185 38.7314L29.4264 41.8772L31.2343 45.0231L33.0422 48.169L33.0392 48.178H33.0452H36.6519H36.661Z" fill="#3A435C"/>
<path d="M42.0786 45.0231L40.2737 41.8772L38.4659 38.7314L36.658 35.5855L34.8501 32.4397L33.0422 29.2938L31.2343 26.1479L27.7451 20.0742H24.1293L29.4264 29.2938L33.0422 35.5855L34.8501 38.7314L36.658 41.8772L38.4659 45.0231L40.2737 48.169L40.2677 48.178H40.2768H43.8835H43.8925L43.8865 48.172L42.0786 45.0231Z" fill="#3A435C"/>
<path d="M49.8737 0H46.2579L33.0603 22.9687L34.8682 26.1146L49.8737 0Z" fill="#3A435C"/>
<path d="M25.8167 48.178H29.4234H29.4294L29.4264 48.169L27.6185 45.0231L25.8106 41.8772L24.0028 38.7314L13.285 20.0742H9.66919L22.1949 41.8772L24.0028 45.0231L25.8106 48.169L25.8076 48.178H25.8167Z" fill="#3A435C"/>
<path d="M38.4839 32.4063L57.1022 0H53.4894L36.676 29.2604L36.6941 29.2937L38.4839 32.4063Z" fill="#3A435C"/>
<path d="M42.0998 38.701L64.3338 0H60.718L40.2919 35.5522L40.3099 35.5855L42.0998 38.701Z" fill="#3A435C"/>
<path d="M71.5654 0H67.9497L43.9077 41.8439L43.9258 41.8772L45.7156 44.9928L71.5654 0Z" fill="#3A435C"/>
<path d="M4.74876 61.3124C4.39321 61.6424 3.90508 61.8483 3.38079 61.8483C2.2599 61.8483 1.35294 60.9461 1.35294 59.8197C1.35294 58.6934 2.2599 57.7911 3.38079 57.7911C3.90508 57.7911 4.39321 57.997 4.74876 58.3361L5.70092 57.3702C5.09527 56.7889 4.27871 56.4316 3.38079 56.4316C1.52167 56.4316 0.012085 57.9516 0.012085 59.8167C0.012085 61.6818 1.52469 63.2017 3.38079 63.2017C4.27871 63.2017 5.09527 62.8445 5.70092 62.2631L4.74876 61.3064V61.3124Z" fill="#3A435C"/>
<path d="M14.5806 56.4377C12.7215 56.4377 11.2119 57.9577 11.2119 59.8228C11.2119 61.6879 12.7245 63.2079 14.5806 63.2079C16.4367 63.2079 17.9493 61.6879 17.9493 59.8228C17.9493 57.9577 16.4367 56.4377 14.5806 56.4377ZM14.5806 61.8605C13.4597 61.8605 12.5528 60.9491 12.5528 59.8228C12.5528 58.6965 13.4597 57.7942 14.5806 57.7942C15.7015 57.7942 16.5994 58.7056 16.5994 59.8228C16.5994 60.9401 15.6925 61.8605 14.5806 61.8605Z" fill="#3A435C"/>
<path d="M27.3263 61.3851L25.3526 56.4377H23.9033V63.2079H25.2442V59.8228L26.5971 63.2079H28.0464L29.3963 59.8228V63.2079H30.7402V56.4377H29.2908L27.3263 61.3851Z" fill="#3A435C"/>
<path d="M38.5774 56.4377H36.6942V63.2078H38.0351V60.501H38.5865C39.6983 60.501 40.5962 59.5896 40.5962 58.4724C40.5962 57.3551 39.6983 56.4347 38.5774 56.4347V56.4377ZM38.5774 59.1446H38.0351V57.7972H38.5774C38.9511 57.7972 39.2524 58.1 39.2524 58.4754C39.2524 58.8509 38.9511 59.1446 38.5774 59.1446Z" fill="#3A435C"/>
<path d="M48.0989 56.4377L45.6643 63.2079H47.0956L47.7795 61.3155H49.8496L50.5336 63.2079H51.9648L49.5302 56.4377H48.0989ZM48.2677 59.956L48.81 58.43L49.3614 59.956H48.2677Z" fill="#3A435C"/>
<path d="M63.3516 56.4377H62.0077V60.9552L59.314 56.4377H57.7411V63.2079H59.085V58.6965L61.7847 63.2079H63.3516V56.4377Z" fill="#3A435C"/>
<path d="M72.2312 63.2079V59.9833L73.9909 56.4377H72.4874L71.5623 58.3119L70.6313 56.4377H69.1277L70.8874 59.9833V63.2079H72.2312Z" fill="#3A435C"/>
<path d="M0 66.4961H0.780406V68.9758H1.21731V66.4961H1.99772V66.1085H0V66.4961Z" fill="#3A435C"/>
<path d="M5.15249 66.1085L4.11597 68.9758H4.57397L4.79393 68.3339H5.87565L6.09561 68.9758H6.55059L5.51407 66.1085H5.15249ZM4.91747 67.9494L5.33027 66.6959H5.33931L5.75211 67.9494H4.91747Z" fill="#3A435C"/>
<path d="M10.1182 67.8071H10.6998V67.9554C10.6998 68.1341 10.6425 68.2794 10.531 68.3914C10.4226 68.5065 10.2809 68.564 10.1152 68.564C10.0128 68.564 9.92538 68.5428 9.85306 68.5004C9.77774 68.4641 9.71747 68.4156 9.67227 68.3581C9.61502 68.2976 9.57887 68.2158 9.56079 68.1159C9.5397 68.016 9.53066 67.8252 9.53066 67.5436C9.53066 67.2621 9.5397 67.0683 9.56079 66.9684C9.57887 66.8715 9.61502 66.7928 9.67227 66.7292C9.71747 66.6716 9.77774 66.6202 9.85306 66.5808C9.92538 66.5414 10.0128 66.5233 10.1152 66.5203C10.2538 66.5203 10.3713 66.5626 10.4677 66.6414C10.5612 66.7231 10.6244 66.82 10.6606 66.9381H11.1186C11.0734 66.6989 10.9619 66.496 10.7902 66.3325C10.6154 66.1721 10.3924 66.0903 10.1152 66.0873C9.88922 66.0873 9.70241 66.1448 9.55476 66.2478C9.40109 66.3507 9.2896 66.4688 9.2203 66.602C9.17812 66.6716 9.14497 66.7625 9.12388 66.8745C9.1058 66.9865 9.09375 67.2106 9.09375 67.5436C9.09375 67.8767 9.10279 68.0947 9.12388 68.2098C9.13292 68.2703 9.14799 68.3218 9.16305 68.3642C9.18113 68.4035 9.19921 68.4459 9.2203 68.4883C9.2896 68.6215 9.40109 68.7366 9.55476 68.8395C9.70542 68.9455 9.89224 69 10.1152 69.0061C10.4075 69 10.6485 68.9031 10.8384 68.7093C11.0282 68.5156 11.1276 68.2733 11.1306 67.9887V67.4044H10.1152V67.8161L10.1182 67.8071Z" fill="#3A435C"/>
<path d="M14.4752 66.1085H14.0413V68.9758H15.8642V68.564H14.4752V66.1085Z" fill="#3A435C"/>
<path d="M19.1125 66.1085H18.6786V68.9758H19.1125V66.1085Z" fill="#3A435C"/>
<path d="M23.8249 68.1462H23.8189L22.5263 66.1085H22.1195V68.9758H22.5504V66.9381H22.5594L23.8491 68.9758H24.2588V66.1085H23.8249V68.1462Z" fill="#3A435C"/>
<path d="M27.269 68.9758H29.092V68.564H27.6999V67.7223H28.8871V67.3378H27.6999V66.5173H29.092V66.1085H27.269V68.9758Z" fill="#3A435C"/>
<path d="M36.197 67.8071H36.7786V67.9554C36.7786 68.1341 36.7213 68.2794 36.6098 68.3914C36.5014 68.5065 36.3598 68.564 36.194 68.564C36.0916 68.564 36.0042 68.5428 35.9319 68.5004C35.8566 68.4641 35.7963 68.4156 35.7511 68.3581C35.6938 68.2976 35.6577 68.2158 35.6396 68.1159C35.6185 68.016 35.6095 67.8252 35.6095 67.5436C35.6095 67.2621 35.6185 67.0683 35.6396 66.9684C35.6577 66.8715 35.6938 66.7928 35.7511 66.7292C35.7963 66.6716 35.8566 66.6202 35.9319 66.5808C36.0042 66.5414 36.0916 66.5233 36.194 66.5203C36.3326 66.5203 36.4501 66.5626 36.5466 66.6414C36.64 66.7231 36.7033 66.82 36.7394 66.9381H37.1974C37.1522 66.6989 37.0407 66.496 36.869 66.3325C36.6942 66.1721 36.4712 66.0903 36.194 66.0873C35.968 66.0873 35.7812 66.1448 35.6306 66.2478C35.4769 66.3507 35.3654 66.4688 35.2961 66.602C35.2539 66.6716 35.2208 66.7625 35.1997 66.8745C35.1816 66.9865 35.1696 67.2106 35.1696 67.5436C35.1696 67.8767 35.1786 68.0947 35.1997 68.2098C35.2087 68.2703 35.2238 68.3218 35.2389 68.3642C35.2569 68.4035 35.275 68.4459 35.2961 68.4883C35.3654 68.6215 35.4769 68.7366 35.6306 68.8395C35.7812 68.9455 35.968 69 36.194 69.0061C36.4863 69 36.7274 68.9031 36.9172 68.7093C37.107 68.5156 37.2064 68.2733 37.2095 67.9887V67.4044H36.194V67.8161L36.197 67.8071Z" fill="#3A435C"/>
<path d="M41.937 66.599C41.8707 66.4657 41.7623 66.3476 41.6116 66.2447C41.461 66.1387 41.2711 66.0873 41.0451 66.0842C40.8192 66.0842 40.6323 66.1418 40.4817 66.2447C40.328 66.3476 40.2165 66.4657 40.1502 66.599C40.108 66.6686 40.0749 66.7594 40.0538 66.8715C40.0357 66.9835 40.0237 67.2075 40.0237 67.5406C40.0237 67.8736 40.0327 68.0916 40.0538 68.2067C40.0628 68.2673 40.0779 68.3187 40.093 68.3611C40.1111 68.4005 40.1291 68.4429 40.1502 68.4853C40.2195 68.6185 40.331 68.7335 40.4817 68.8365C40.6323 68.9425 40.8192 68.9969 41.0451 69.003C41.2711 68.9969 41.461 68.9425 41.6116 68.8365C41.7623 68.7366 41.8707 68.6185 41.937 68.4853C41.9852 68.4156 42.0184 68.3218 42.0365 68.2067C42.0545 68.0916 42.0606 67.8706 42.0606 67.5406C42.0606 67.2106 42.0515 66.9835 42.0365 66.8715C42.0184 66.7594 41.9852 66.6686 41.937 66.599ZM41.5996 68.1128C41.5785 68.2128 41.5393 68.2945 41.4851 68.3551C41.4429 68.4126 41.3856 68.461 41.3133 68.4974C41.238 68.5398 41.1476 68.561 41.0451 68.561C40.9427 68.561 40.8553 68.5398 40.783 68.4974C40.7077 68.461 40.6474 68.4126 40.6022 68.3551C40.545 68.2945 40.5088 68.2128 40.4907 68.1128C40.4696 68.0129 40.4606 67.8222 40.4606 67.5406C40.4606 67.259 40.4696 67.0652 40.4907 66.9653C40.5088 66.8684 40.545 66.7897 40.6022 66.7261C40.6474 66.6686 40.7077 66.6171 40.783 66.5778C40.8553 66.5384 40.9427 66.5202 41.0451 66.5172C41.1476 66.5172 41.238 66.5414 41.3133 66.5778C41.3856 66.6171 41.4429 66.6656 41.4851 66.7261C41.5423 66.7867 41.5785 66.8684 41.5996 66.9653C41.6176 67.0683 41.6297 67.259 41.6297 67.5406C41.6297 67.8222 41.6207 68.0129 41.5996 68.1128Z" fill="#3A435C"/>
<path d="M44.9744 68.9758H46.7973V68.564H45.4083V67.7223H46.5954V67.3378H45.4083V66.5173H46.7973V66.1085H44.9744V68.9758Z" fill="#3A435C"/>
<path d="M50.6721 67.3408C50.5365 67.3226 50.4281 67.3075 50.3497 67.2953C50.2081 67.2681 50.1057 67.2227 50.0424 67.153C49.9791 67.0864 49.946 67.0107 49.946 66.929C49.946 66.7897 49.9972 66.6868 50.0876 66.6171C50.175 66.5505 50.2865 66.5172 50.419 66.5172C50.6751 66.5233 50.9132 66.5959 51.1271 66.7382L51.3682 66.381C51.106 66.1902 50.7957 66.0903 50.4431 66.0842C50.1478 66.0842 49.9219 66.163 49.7591 66.3174C49.5934 66.4718 49.5091 66.6716 49.5091 66.9229C49.5091 67.1318 49.5753 67.3075 49.7079 67.4528C49.8345 67.5951 50.0213 67.6859 50.2684 67.7253C50.407 67.7434 50.5305 67.7616 50.645 67.7798C50.8951 67.8222 51.0186 67.9524 51.0156 68.1643C51.0096 68.4247 50.8228 68.5579 50.4522 68.564C50.1388 68.564 49.8676 68.4671 49.6416 68.2794L49.3584 68.6064C49.6627 68.8698 50.0273 69 50.4492 69C51.103 68.9909 51.4375 68.7154 51.4525 68.1643C51.4525 67.9615 51.3893 67.7828 51.2627 67.6284C51.1362 67.471 50.9373 67.3771 50.6691 67.3377L50.6721 67.3408Z" fill="#3A435C"/>
<path d="M59.2476 67.3378H58.1177V66.1085H57.6868V68.9758H58.1177V67.7223H59.2476V68.9758H59.6815V66.1085H59.2476V67.3378Z" fill="#3A435C"/>
<path d="M62.6917 68.9758H64.5146V68.564H63.1225V67.7223H64.3097V67.3378H63.1225V66.5173H64.5146V66.1085H62.6917V68.9758Z" fill="#3A435C"/>
<path d="M69.3056 66.9079C69.2965 66.6414 69.2031 66.4386 69.0223 66.2962C68.8717 66.1691 68.6788 66.1085 68.4408 66.1085H67.3259V68.9758H67.7598V67.7496H68.3112L68.9018 68.9758H69.4171L68.7542 67.7042C69.1157 67.5649 69.2995 67.2984 69.3056 66.9079ZM67.7598 67.3651V66.4961H68.4378C68.5764 66.4961 68.6818 66.5264 68.7542 66.5839C68.8476 66.6505 68.8958 66.7595 68.8958 66.9079C68.8958 67.032 68.8566 67.138 68.7753 67.2227C68.6939 67.3136 68.5734 67.362 68.4107 67.3651H67.7568H67.7598Z" fill="#3A435C"/>
<path d="M72.177 68.9758H74V68.564H72.6109V67.7223H73.7981V67.3378H72.6109V66.5173H74V66.1085H72.177V68.9758Z" fill="#3A435C"/>
</g>
<defs>
<clipPath id="clip0_109_467">
<rect width="74" height="69" fill="white"/>
</clipPath>
</defs>
</svg>
