<svg width="73" height="81" viewBox="0 0 73 81" fill="none" xmlns="http://www.w3.org/2000/svg">
<g clip-path="url(#clip0_109_398)">
<path d="M62.3127 6.26907C58.1892 2.22516 52.7038 0 46.8694 0C41.0349 0 35.5495 2.22516 31.426 6.26907C28.2011 9.429 26.11 13.4018 25.3496 17.7166C25.2735 18.1535 25.2078 18.5904 25.1595 19.0341C25.1111 19.4676 25.0765 19.9079 25.0523 20.3482C25.035 20.6971 25.0247 21.0493 25.0247 21.4015V24.3108V25.6216V26.9323V42.8065H41.225H42.5626H43.9003C43.9245 42.4508 43.9348 42.0884 43.9348 41.726V38.8506H42.6007H29.0652V26.895V24.2837V21.4083C29.0652 21.0459 29.0756 20.6869 29.0998 20.3279C29.1275 19.8876 29.1724 19.4541 29.2311 19.0206C29.2934 18.5769 29.3729 18.1434 29.4662 17.7132C30.1989 14.3806 31.9099 11.4035 34.281 9.07677C37.5059 5.91683 41.9543 3.96262 46.8659 3.95923C56.6822 3.95923 64.67 11.7863 64.67 21.4049C64.67 26.2143 62.6722 30.5765 59.4473 33.7365C57.0728 36.0632 54.0346 37.7363 50.6334 38.4577V41.7294C50.6334 41.9868 50.63 42.2442 50.6196 42.4949C55.0231 41.7498 59.081 39.7007 62.3058 36.5408C66.4328 32.4969 68.7037 27.1219 68.7037 21.4083C68.7037 15.6947 66.4328 10.3164 62.3058 6.27584L62.3127 6.26907Z" fill="#3A435C"/>
<path d="M29.0652 24.2769H43.9348V36.2358V41.7225C43.9348 42.0849 43.921 42.4439 43.9002 42.803C43.8726 43.2432 43.8311 43.6801 43.7689 44.1103C43.7101 44.5506 43.6306 44.9875 43.5338 45.4142C42.7976 48.7469 41.0901 51.7273 38.7156 54.0541C35.4907 57.214 31.0423 59.1682 26.1307 59.1716C16.3144 59.1716 8.32655 51.3446 8.32655 41.7259C8.32655 36.9166 10.3244 32.5543 13.5492 29.3944C15.9238 27.0676 18.9655 25.3945 22.3631 24.6731V21.4014C22.3631 21.144 22.3666 20.8866 22.377 20.6326C17.9735 21.3743 13.9156 23.4268 10.6873 26.5867C6.56031 30.6306 4.28943 36.0021 4.28943 41.7192C4.28943 47.4362 6.56031 52.8111 10.6873 56.8516C14.8143 60.8955 20.2997 63.1207 26.1307 63.1207C31.9617 63.1207 37.4505 60.8955 41.574 56.8516C45.4453 53.0583 47.685 48.0932 47.9443 42.7725C47.9512 42.6031 47.9581 42.4304 47.965 42.2611C47.965 42.1696 47.9685 42.0748 47.9685 41.9833C47.9685 41.8953 47.9685 41.8072 47.9685 41.7192V20.3176H31.7681H30.4339H29.0963C29.0721 20.6732 29.0617 21.0356 29.0617 21.398V24.2735L29.0652 24.2769Z" fill="#3A435C"/>
<path d="M4.68348 73.6066C4.33438 73.9249 3.85048 74.1214 3.33201 74.1214C2.22595 74.1214 1.33419 73.2543 1.33419 72.1705C1.33419 71.0867 2.22941 70.2197 3.33201 70.2197C3.85048 70.2197 4.33093 70.4162 4.68348 70.7447L5.62018 69.8167C5.02221 69.2578 4.21686 68.9158 3.33201 68.9158C1.5001 68.9158 0.010376 70.3755 0.010376 72.1705C0.010376 73.9656 1.5001 75.4253 3.33201 75.4253C4.21686 75.4253 5.02567 75.0832 5.62018 74.5244L4.68348 73.6066Z" fill="#3A435C"/>
<path d="M17.7073 72.174C17.7073 70.3789 16.2176 68.9192 14.3856 68.9192C12.5537 68.9192 11.0605 70.3789 11.0605 72.174C11.0605 73.969 12.5503 75.4287 14.3856 75.4287C16.221 75.4287 17.7073 73.969 17.7073 72.174ZM14.3856 74.1316C13.2796 74.1316 12.3878 73.2544 12.3878 72.174C12.3878 71.0935 13.283 70.2231 14.3856 70.2231C15.4882 70.2231 16.3766 71.1003 16.3766 72.174C16.3766 73.2476 15.4813 74.1316 14.3856 74.1316Z" fill="#3A435C"/>
<path d="M30.3233 75.4287V68.9158H28.8924L26.9568 73.6777L25.0108 68.9158H23.5798V75.4287H24.9037V72.1739L26.2378 75.4287H27.6653L28.9995 72.1739V75.4287H30.3233Z" fill="#3A435C"/>
<path d="M38.0554 68.9158H36.1958V75.4287H37.5196V72.8242H38.0623C39.158 72.8242 40.0428 71.947 40.0428 70.8734C40.0428 69.7997 39.158 68.9158 38.0519 68.9158H38.0554ZM38.0554 71.5203H37.5196V70.2231H38.0554C38.4252 70.2231 38.7225 70.5144 38.7225 70.8768C38.7225 71.2392 38.4252 71.5203 38.0554 71.5203Z" fill="#3A435C"/>
<path d="M48.8602 68.9158H47.45L45.0477 75.4287H46.458L47.132 73.6066H49.1747L49.8487 75.4287H51.259L48.8567 68.9158H48.8602ZM47.6159 72.3026L48.1516 70.8327L48.6943 72.3026H47.6159Z" fill="#3A435C"/>
<path d="M61.1686 73.2645L58.514 68.9158H56.9586V75.4287H58.2824V71.0901L60.9508 75.4287H62.4924V68.9158H61.1686V73.2645Z" fill="#3A435C"/>
<path d="M71.2511 75.4287V72.3263L72.9897 68.9158H71.5069L70.5944 70.721L69.675 68.9158H68.1921L69.9273 72.3263V75.4287H71.2511Z" fill="#3A435C"/>
<path d="M0 78.592H0.770786V80.9798H1.19938V78.592H1.97017V78.2195H0V78.592Z" fill="#3A435C"/>
<path d="M5.08097 78.2195L4.05786 80.9798H4.51066L4.72841 80.3634H5.79645L6.01421 80.9798H6.46354L5.44044 78.2195H5.08442H5.08097ZM4.84939 79.9908L5.25725 78.7851H5.26416L5.67202 79.9908H4.84939Z" fill="#3A435C"/>
<path d="M9.53972 78.8156C9.58465 78.758 9.64341 78.7106 9.716 78.6733C9.78858 78.6361 9.87499 78.6158 9.97523 78.6158C10.11 78.6158 10.2275 78.6564 10.3243 78.7309C10.4142 78.8088 10.4799 78.9037 10.5144 79.0154H10.9672C10.9223 78.7851 10.8151 78.5921 10.6423 78.4329C10.4695 78.2771 10.2483 78.1992 9.97869 78.1958C9.75747 78.1958 9.57083 78.25 9.42566 78.3516C9.27357 78.4498 9.16642 78.565 9.09729 78.6937C9.05582 78.7614 9.02471 78.8495 9.00397 78.9578C8.98323 79.0662 8.97632 79.2796 8.97632 79.6013C8.97632 79.9231 8.98669 80.1297 9.00397 80.2415C9.01434 80.3024 9.02817 80.3498 9.04199 80.3905C9.05927 80.4277 9.07656 80.4684 9.09729 80.509C9.16642 80.6377 9.27357 80.7495 9.42566 80.8443C9.57428 80.9459 9.75747 80.9967 9.97869 81.0035C10.2656 80.9967 10.5041 80.9019 10.6942 80.719C10.8808 80.5327 10.9776 80.3024 10.9845 80.0247V79.4625H9.9856V79.8587H10.5594V80.001C10.5594 80.1737 10.5006 80.3126 10.3935 80.4176C10.2863 80.5293 10.1481 80.5835 9.98214 80.5835C9.88191 80.5835 9.79549 80.5632 9.72291 80.5226C9.65032 80.4887 9.59157 80.4413 9.54663 80.3837C9.49133 80.3227 9.45331 80.2482 9.43602 80.15C9.41529 80.0552 9.40492 79.8723 9.40492 79.598C9.40492 79.3236 9.41529 79.1407 9.43602 79.0425C9.45331 78.9477 9.49133 78.8732 9.54663 78.8122L9.53972 78.8156Z" fill="#3A435C"/>
<path d="M13.8534 78.2195V80.9798H15.6507V80.5835H14.2785V78.2195H13.8534Z" fill="#3A435C"/>
<path d="M18.8514 78.2195H18.4263V80.9798H18.8514V78.2195Z" fill="#3A435C"/>
<path d="M23.5038 80.1805H23.4969L22.2215 78.2195H21.8206V80.9798H22.2457V79.0188H22.2526L23.528 80.9798H23.929V78.2195H23.5038V80.1805Z" fill="#3A435C"/>
<path d="M28.6954 78.6157V78.2195H26.8981V80.9798H28.6954V80.5835H27.3267V79.774H28.4949V79.4015H27.3267V78.6157H28.6954Z" fill="#3A435C"/>
<path d="M35.1486 78.3516C34.9965 78.4498 34.8893 78.5649 34.8202 78.6936C34.7787 78.7614 34.7476 78.8494 34.7269 78.9578C34.7061 79.0662 34.6992 79.2796 34.6992 79.6013C34.6992 79.9231 34.7096 80.1297 34.7269 80.2414C34.7372 80.3024 34.7511 80.3498 34.7649 80.3905C34.7822 80.4277 34.7995 80.4684 34.8202 80.509C34.8893 80.6377 34.9965 80.7495 35.1486 80.8443C35.2972 80.9459 35.4804 80.9967 35.7016 81.0035C35.9885 80.9967 36.227 80.9019 36.4171 80.719C36.6037 80.5327 36.7005 80.3024 36.7074 80.0247V79.4625H35.7085V79.8587H36.2823V80.001C36.2823 80.1737 36.2235 80.3126 36.1164 80.4175C36.0092 80.5293 35.871 80.5835 35.705 80.5835C35.6048 80.5835 35.5184 80.5632 35.4458 80.5225C35.3732 80.4887 35.3145 80.4413 35.2695 80.3837C35.2142 80.3227 35.1762 80.2482 35.1589 80.15C35.1382 80.0552 35.1278 79.8723 35.1278 79.5979C35.1278 79.3236 35.1382 79.1407 35.1589 79.0425C35.1762 78.9477 35.2142 78.8731 35.2695 78.8122C35.3145 78.7546 35.3732 78.7072 35.4458 78.6699C35.5184 78.6327 35.6048 78.6124 35.705 78.6124C35.8398 78.6124 35.9574 78.653 36.0541 78.7275C36.144 78.8054 36.2097 78.9002 36.2442 79.012H36.697C36.6521 78.7817 36.545 78.5886 36.3721 78.4295C36.1993 78.2737 35.9781 78.1958 35.7085 78.1924C35.4873 78.1924 35.3006 78.2466 35.1555 78.3482L35.1486 78.3516Z" fill="#3A435C"/>
<path d="M39.6073 78.6937C39.5658 78.7614 39.5347 78.8495 39.514 78.9578C39.4932 79.0662 39.4863 79.2796 39.4863 79.6013C39.4863 79.9231 39.4967 80.1297 39.514 80.2415C39.5243 80.3024 39.5382 80.3498 39.552 80.3905C39.5693 80.4277 39.5866 80.4684 39.6073 80.509C39.6764 80.6377 39.7836 80.7495 39.9357 80.8443C40.0843 80.9459 40.2675 80.9967 40.4887 81.0035C40.7134 80.9967 40.9 80.9459 41.0486 80.8443C41.1973 80.7461 41.3044 80.6343 41.3701 80.509C41.4185 80.4413 41.4496 80.3532 41.4703 80.2415C41.4876 80.1297 41.4945 79.9163 41.4945 79.6013C41.4945 79.2864 41.4876 79.0662 41.4703 78.9578C41.453 78.8495 41.4185 78.7614 41.3701 78.6937C41.3044 78.565 41.1973 78.4532 41.0486 78.3516C40.9 78.25 40.7134 78.1992 40.4887 78.1958C40.2675 78.1958 40.0808 78.25 39.9357 78.3516C39.7836 78.4498 39.6764 78.565 39.6073 78.6937ZM39.9426 79.0459C39.9599 78.9511 39.9979 78.8766 40.0532 78.8156C40.0981 78.758 40.1569 78.7106 40.2295 78.6733C40.302 78.6361 40.3885 78.6158 40.4887 78.6158C40.5889 78.6158 40.6788 78.6395 40.7548 78.6733C40.824 78.7106 40.8827 78.758 40.9242 78.8156C40.9795 78.8732 41.0175 78.9511 41.0383 79.0459C41.059 79.1441 41.0659 79.3304 41.0659 79.6013C41.0659 79.8723 41.0556 80.0552 41.0383 80.1534C41.0175 80.2482 40.9795 80.3261 40.9242 80.3871C40.8827 80.4447 40.824 80.4887 40.7548 80.526C40.6788 80.5666 40.5924 80.5869 40.4887 80.5869C40.385 80.5869 40.302 80.5666 40.2295 80.526C40.1569 80.4921 40.0981 80.4447 40.0532 80.3871C39.9979 80.3261 39.9599 80.2516 39.9426 80.1534C39.9218 80.0586 39.9115 79.8757 39.9115 79.6013C39.9115 79.327 39.9218 79.1441 39.9426 79.0459Z" fill="#3A435C"/>
<path d="M44.3668 80.9798H46.1642V80.5835H44.792V79.774H45.9637V79.4015H44.792V78.6157H46.1642V78.2195H44.3668V80.9798Z" fill="#3A435C"/>
<path d="M49.7762 80.5834C49.4685 80.5834 49.1989 80.4885 48.9777 80.309L48.6978 80.624C48.9985 80.878 49.3579 81.0033 49.7727 81.0033C50.4191 80.9965 50.7474 80.729 50.7612 80.2006C50.7612 80.0042 50.699 79.8349 50.5746 79.6858C50.4467 79.5368 50.2532 79.442 49.9905 79.4081C49.8557 79.3912 49.752 79.3776 49.6725 79.3641C49.5342 79.3404 49.434 79.293 49.3683 79.2286C49.3061 79.1643 49.275 79.0931 49.275 79.0119C49.275 78.8798 49.3234 78.7782 49.4167 78.7138C49.5031 78.6495 49.6137 78.619 49.7451 78.619C49.9974 78.6224 50.2324 78.6935 50.4433 78.8323L50.6818 78.4869C50.4225 78.304 50.1184 78.2092 49.7693 78.2024C49.4789 78.2024 49.2542 78.2803 49.0952 78.4259C48.9328 78.5749 48.8498 78.768 48.8498 79.0085C48.8498 79.2083 48.9155 79.381 49.0434 79.5199C49.1713 79.6554 49.3545 79.7434 49.5964 79.7841C49.7312 79.8044 49.8557 79.8213 49.9697 79.8349C50.2186 79.8755 50.3396 80.0008 50.3361 80.2074C50.3327 80.458 50.146 80.5867 49.7796 80.5901L49.7762 80.5834Z" fill="#3A435C"/>
<path d="M56.9069 80.9798H57.332V79.774H58.4484V80.9798H58.8736V78.2195H58.4484V79.4015H57.332V78.2195H56.9069V80.9798Z" fill="#3A435C"/>
<path d="M63.64 78.6157V78.2195H61.8427V80.9798H63.64V80.5835H62.2678V79.774H63.4395V79.4015H62.2678V78.6157H63.64Z" fill="#3A435C"/>
<path d="M68.3684 78.9883C68.3615 78.7343 68.2682 78.5378 68.0884 78.399C67.9398 78.277 67.7497 78.2161 67.5147 78.2161H66.4155V80.9763H66.8407V79.7977H67.3868L67.9675 80.9763H68.4756L67.8223 79.7503C68.1818 79.6148 68.3615 79.3608 68.3684 78.9849V78.9883ZM66.8441 79.4286V78.592H67.5112C67.6495 78.592 67.7532 78.6191 67.8258 78.6767C67.9156 78.741 67.964 78.846 67.9675 78.9883C67.9675 79.1068 67.9295 79.2084 67.85 79.2897C67.7705 79.3778 67.6495 79.4252 67.4905 79.4252H66.8441V79.4286Z" fill="#3A435C"/>
<path d="M71.2026 80.9798H73V80.5835H71.6278V79.774H72.7995V79.4015H71.6278V78.6157H73V78.2195H71.2026V80.9798Z" fill="#3A435C"/>
</g>
<defs>
<clipPath id="clip0_109_398">
<rect width="73" height="81" fill="white"/>
</clipPath>
</defs>
</svg>
