<svg width="68" height="76" viewBox="0 0 68 76" fill="none" xmlns="http://www.w3.org/2000/svg">
<g clip-path="url(#clip0_109_606)">
<path d="M1.13906 68.8705C1.49563 69.2127 1.91824 69.4759 2.41348 69.6601C2.90542 69.8477 3.44688 69.9398 4.03787 69.9398C4.62886 69.9398 5.1274 69.8345 5.62265 69.6239C6.11789 69.4134 6.54049 69.0778 6.88386 68.6139L5.76131 67.8342C5.51039 68.15 5.23966 68.3803 4.94581 68.5251C4.65527 68.6698 4.35483 68.7422 4.04447 68.7422C3.64828 68.7422 3.29171 68.6731 2.97145 68.5317C2.65119 68.3902 2.37716 68.1994 2.14605 67.9526C1.91493 67.7059 1.73665 67.4163 1.61119 67.0775C1.48573 66.7419 1.42299 66.3734 1.42299 65.972C1.42299 65.6002 1.48573 65.2515 1.61119 64.9291C1.73665 64.6066 1.91493 64.3237 2.14605 64.0802C2.37716 63.8368 2.65119 63.6492 2.97145 63.511C3.29171 63.3729 3.64828 63.3071 4.04447 63.3071C4.31191 63.3071 4.57603 63.3564 4.83686 63.4551C5.10099 63.5538 5.37172 63.7512 5.65236 64.044L6.70888 63.2873C6.32919 62.8596 5.91649 62.5569 5.47407 62.376C5.03166 62.1983 4.55292 62.1062 4.03457 62.1062C3.44358 62.1062 2.90212 62.1983 2.41018 62.3859C1.91824 62.5734 1.49233 62.8366 1.13575 63.182C0.77918 63.5275 0.501845 63.942 0.300447 64.429C0.0990484 64.9159 0 65.4588 0 66.0575C0 66.6563 0.0990484 67.1696 0.300447 67.6466C0.501845 68.1237 0.77918 68.5317 1.13575 68.8738L1.13906 68.8705Z" fill="#3A435C"/>
<path d="M13.5861 69.9397C14.1837 69.9331 14.7284 69.8311 15.227 69.6403C15.7222 69.4462 16.1514 69.1797 16.5113 68.8342C16.8712 68.4888 17.1518 68.0808 17.3532 67.6038C17.5546 67.1267 17.6537 66.597 17.6537 66.0147C17.6537 65.4323 17.5513 64.8763 17.3532 64.3927C17.1518 63.909 16.8712 63.4945 16.5113 63.149C16.1514 62.8036 15.7222 62.5437 15.227 62.366C14.7317 62.1883 14.1837 62.0995 13.5861 62.1094C12.9951 62.1094 12.4536 62.2015 11.9617 62.389C11.4698 62.5766 11.0438 62.8398 10.6873 63.1852C10.3307 63.5307 10.0534 63.9452 9.85197 64.4322C9.65057 64.9191 9.54822 65.4619 9.54822 66.0607C9.54822 66.6595 9.64727 67.1728 9.85197 67.6498C10.0534 68.1269 10.3307 68.5348 10.6873 68.877C11.0438 69.2192 11.4665 69.4824 11.9617 69.6666C12.4536 69.8541 12.9951 69.9463 13.5861 69.9463V69.9397ZM11.1627 67.0741C11.0372 66.7385 10.9745 66.37 10.9745 65.9686C10.9745 65.5968 11.0372 65.2481 11.1627 64.9257C11.2882 64.6032 11.4665 64.3203 11.6976 64.0768C11.9287 63.8334 12.2027 63.6458 12.523 63.5077C12.8432 63.3695 13.1998 63.3037 13.596 63.3037C13.9922 63.3037 14.3521 63.3728 14.6756 63.5077C14.9992 63.6458 15.2765 63.8334 15.5076 64.0768C15.7387 64.3203 15.917 64.6032 16.0425 64.9257C16.1679 65.2481 16.2307 65.5968 16.2307 65.9686C16.2307 66.37 16.1679 66.7385 16.0425 67.0741C15.917 67.4096 15.7387 67.7025 15.5076 67.9492C15.2765 68.196 14.9992 68.3868 14.6756 68.5283C14.3521 68.6697 13.9922 68.7388 13.596 68.7388C13.1998 68.7388 12.8432 68.6697 12.523 68.5283C12.2027 68.3868 11.9287 68.196 11.6976 67.9492C11.4665 67.7025 11.2882 67.4129 11.1627 67.0741Z" fill="#3A435C"/>
<path d="M29.358 69.7489V62.2937H27.311L25.2475 67.5183L23.2104 62.2937H21.137V69.7489H22.4312V63.5571H22.4543L24.7753 69.7489H25.7229L28.0439 63.5571H28.0637V69.7489H29.358Z" fill="#3A435C"/>
<path d="M34.614 66.6662H35.5847C35.9875 66.6662 36.3738 66.6398 36.7436 66.5806C37.1134 66.5247 37.4402 66.4161 37.7209 66.2582C38.0015 66.1003 38.2227 65.8766 38.3911 65.5903C38.5562 65.3041 38.6387 64.9224 38.6387 64.452C38.6387 64.0374 38.5628 63.692 38.4076 63.4156C38.2524 63.1392 38.0477 62.9188 37.7869 62.751C37.5294 62.5865 37.2289 62.4681 36.8856 62.399C36.5422 62.3299 36.1889 62.2937 35.8224 62.2937H33.2538V69.7489H34.614V66.6629V66.6662ZM34.614 63.4321H35.5847C35.763 63.4321 35.9512 63.4419 36.146 63.465C36.3408 63.4847 36.5158 63.534 36.6743 63.6064C36.8327 63.6788 36.9615 63.7841 37.0638 63.9223C37.1629 64.0605 37.2157 64.2447 37.2157 64.475C37.2157 64.7283 37.1596 64.9257 37.0473 65.0639C36.9351 65.2054 36.7931 65.3107 36.6148 65.3798C36.4398 65.4489 36.245 65.4916 36.037 65.5048C35.829 65.5179 35.6276 65.5245 35.4328 65.5245H34.614V63.4288V63.4321Z" fill="#3A435C"/>
<path d="M44.8557 62.2937H43.6803L40.3556 69.7489H41.8776L42.5677 68.0414H45.8792L46.5923 69.7489H48.1474L44.8557 62.2937ZM43.0332 66.9063L44.2317 63.8729L45.4071 66.9063H43.0332Z" fill="#3A435C"/>
<path d="M56.6787 67.8341H56.6589L52.9578 62.2937H51.1552V69.7489H52.5154V64.0308H52.5352L56.3123 69.7489H58.039V62.2937H56.6787V67.8341Z" fill="#3A435C"/>
<path d="M64.4804 65.2646L62.6051 62.2937H60.8982L63.7706 66.5609V69.7489H65.1276V66.5609L68 62.2937H66.3789L64.4804 65.2646Z" fill="#3A435C"/>
<path d="M9.45911 26.0177L33.9472 2.95117V0.0690918L9.45911 23.1356V26.0177Z" fill="#3A435C"/>
<path d="M9.45911 30.5677V33.4498L33.9472 10.3833V7.50122L9.45911 30.5677Z" fill="#3A435C"/>
<path d="M9.45911 37.9967V40.882L33.9472 17.8123V14.9302L9.45911 37.9967Z" fill="#3A435C"/>
<path d="M9.45911 45.4288V48.3109L33.9472 25.2444V22.3623L9.45911 45.4288Z" fill="#3A435C"/>
<path d="M33.9472 29.7947L9.45911 52.8612V55.7432L33.9472 32.6768V29.7947Z" fill="#3A435C"/>
<path d="M58.5375 23.1356L35.9281 1.83911V4.72119L58.5375 26.0176V23.1356Z" fill="#3A435C"/>
<path d="M58.5375 30.5677L35.9281 9.27124V12.1533L58.5375 33.4498V30.5677Z" fill="#3A435C"/>
<path d="M58.5375 37.9966L35.9281 16.7002V19.5823L58.5375 40.882V37.9966Z" fill="#3A435C"/>
<path d="M58.5375 45.429L35.9281 24.1326V27.0146L58.5375 48.3111V45.429Z" fill="#3A435C"/>
<path d="M58.5375 52.8611L35.9281 31.5647V34.4468L58.5375 55.7432V52.8611Z" fill="#3A435C"/>
<path d="M34 32.6274L34.0198 32.6077V29.7651V29.7256L34 29.7453L33.9769 29.7256V29.7651L33.9471 29.7947V32.6768L34 32.6274Z" fill="white"/>
<path d="M33.9769 22.2935V22.3329L33.9471 22.3625V25.2446L34 25.1953L34.0198 25.1755V22.3329V22.2935L34 22.3132L33.9769 22.2935Z" fill="white"/>
<path d="M34.0198 14.9006V14.8611L34 14.8808L33.9769 14.8611V14.9006L33.9471 14.9302V17.8123L34 17.7629L34.0198 17.7432V14.9006Z" fill="white"/>
<path d="M34.0198 7.47161V7.43213L34 7.45187L33.9769 7.43213V7.47161L33.9471 7.50122V10.3833L34 10.3339L34.0198 10.3142V7.47161Z" fill="white"/>
<path d="M34 2.90182L34.0198 2.88208V0.0394805V0L34 0.0197403L33.9769 0V0.0394805L33.9471 0.0690909V2.95117L34 2.90182Z" fill="white"/>
<path d="M0.97726 72.9862H0.0098877V72.519H2.4861V72.9862H1.51872V75.9736H0.980562V72.9862H0.97726Z" fill="#3A435C"/>
<path d="M7.78844 75.2004H6.44469L6.17396 75.9736H5.60608L6.89371 72.519H7.34273L8.63036 75.9736H8.06578L7.79175 75.2004H7.78844ZM7.63657 74.7365L7.12482 73.2264H7.11492L6.60317 74.7365H7.63657Z" fill="#3A435C"/>
<path d="M13.5432 74.072H14.8011V74.7761C14.7945 75.1215 14.6724 75.4111 14.4379 75.6447C14.2002 75.8783 13.8998 75.9967 13.5399 76.0033C13.2626 75.9967 13.0282 75.9309 12.8433 75.8059C12.6551 75.6841 12.5164 75.5427 12.4306 75.3848C12.4042 75.3321 12.381 75.2828 12.3612 75.2367C12.3414 75.1873 12.3249 75.1248 12.3117 75.0525C12.2886 74.9143 12.2754 74.6478 12.2754 74.253C12.2754 73.8582 12.2886 73.5818 12.3117 73.4469C12.3381 73.312 12.3777 73.2002 12.4306 73.1179C12.5164 72.96 12.6551 72.8152 12.8433 72.6902C13.0282 72.5652 13.2626 72.4994 13.5399 72.4961C13.88 72.4961 14.1606 72.5981 14.3752 72.7922C14.5898 72.9896 14.7252 73.2298 14.7846 73.5193H14.2167C14.1738 73.3811 14.0946 73.2627 13.979 73.164C13.8602 73.0719 13.7149 73.0225 13.5432 73.0192C13.4177 73.0192 13.3088 73.0455 13.2163 73.0916C13.1239 73.1377 13.0513 73.1969 12.9918 73.2693C12.9225 73.3449 12.8763 73.4403 12.8532 73.5555C12.8268 73.6772 12.8136 73.9108 12.8136 74.2497C12.8136 74.5886 12.8268 74.8189 12.8532 74.9406C12.8763 75.059 12.9225 75.1577 12.9918 75.2334C13.048 75.3058 13.1239 75.3617 13.2163 75.4078C13.3055 75.4604 13.4144 75.4867 13.5432 75.4867C13.7512 75.4867 13.9229 75.4176 14.0616 75.2795C14.1969 75.1479 14.2663 74.9735 14.2696 74.7564V74.5754H13.5498V74.0819L13.5432 74.072Z" fill="#3A435C"/>
<path d="M20.0804 72.5192H20.6153V75.4769H22.3387V75.9704H20.0804V72.5159V72.5192Z" fill="#3A435C"/>
<path d="M26.3237 72.519H26.8586V75.9736H26.3237V72.519Z" fill="#3A435C"/>
<path d="M31.0847 72.519H31.5899L33.1911 74.9734H33.201V72.519H33.7359V75.9736H33.2275L31.6295 73.5192H31.6196V75.9736H31.0847V72.519Z" fill="#3A435C"/>
<path d="M37.9652 72.5192H40.2235V73.0127H38.5001V73.9997H39.9693V74.4636H38.5001V75.4769H40.2235V75.9704H37.9652V72.5159V72.5192Z" fill="#3A435C"/>
<path d="M47.1205 74.4635H45.7207V75.9736H45.1858V72.519H45.7207V73.9996H47.1205V72.519H47.6554V75.9736H47.1205V74.4635Z" fill="#3A435C"/>
<path d="M52.938 72.5192H55.1963V73.0127H53.4729V73.9997H54.9421V74.4636H53.4729V75.4769H55.1963V75.9704H52.938V72.5159V72.5192Z" fill="#3A435C"/>
<path d="M59.1847 72.519H60.5648C60.8586 72.519 61.0996 72.5947 61.2845 72.7461C61.509 72.9171 61.6279 73.1639 61.6378 73.483C61.6312 73.9535 61.4034 74.2726 60.9544 74.4404L61.7732 75.9736H61.1359L60.4063 74.4964H59.7229V75.9736H59.188V72.519H59.1847ZM59.7196 74.0325H60.5318C60.7331 74.0325 60.8817 73.9732 60.9841 73.8614C61.0831 73.7594 61.1326 73.6311 61.1326 73.483C61.1326 73.3021 61.0699 73.1738 60.9544 73.0915C60.8652 73.0191 60.7331 72.9862 60.5615 72.9862H59.7229V74.0325H59.7196Z" fill="#3A435C"/>
<path d="M65.6954 72.5192H67.9537V73.0127H66.2303V73.9997H67.6995V74.4636H66.2303V75.4769H67.9537V75.9704H65.6954V72.5159V72.5192Z" fill="#3A435C"/>
</g>
<defs>
<clipPath id="clip0_109_606">
<rect width="68" height="76" fill="white"/>
</clipPath>
</defs>
</svg>
