<svg width="28" height="23" viewBox="0 0 28 23" fill="none" xmlns="http://www.w3.org/2000/svg">
<path d="M23.8984 12.1585H21.1576C20.7846 12.1585 20.4234 12.209 20.0797 12.3018C19.4017 10.9815 18.0175 10.0742 16.4224 10.0742H11.5776C9.98255 10.0742 8.5983 10.9815 7.92028 12.3018C7.57657 12.209 7.21541 12.1585 6.84239 12.1585H4.10156C1.83996 12.1585 0 13.9812 0 16.2217V20.5622C0 21.9064 1.10398 23.0001 2.46094 23.0001H25.5391C26.896 23.0001 28 21.9064 28 20.5622V16.2217C28 13.9812 26.16 12.1585 23.8984 12.1585ZM7.47605 14.1375V21.3749H2.46094C2.00862 21.3749 1.64062 21.0103 1.64062 20.5622V16.2217C1.64062 14.8775 2.7446 13.7838 4.10156 13.7838H6.84239C7.06508 13.7838 7.28071 13.8138 7.48601 13.869C7.4801 13.9579 7.47605 14.0473 7.47605 14.1375ZM18.8833 21.3749H9.11668V14.1375C9.11668 12.7932 10.2207 11.6996 11.5776 11.6996H16.4224C17.7793 11.6996 18.8833 12.7932 18.8833 14.1375V21.3749ZM26.3594 20.5622C26.3594 21.0103 25.9914 21.3749 25.5391 21.3749H20.5239V14.1375C20.5239 14.0472 20.5199 13.9578 20.514 13.8689C20.7193 13.8138 20.9349 13.7838 21.1576 13.7838H23.8984C25.2554 13.7838 26.3594 14.8774 26.3594 16.2217V20.5622Z" fill="#00ac8a"/>
<path d="M5.4721 4.48462C3.46238 4.48462 1.82739 6.10432 1.82739 8.09524C1.82734 10.0862 3.46238 11.7059 5.4721 11.7059C7.48175 11.7059 9.1168 10.0862 9.1168 8.09524C9.1168 6.10432 7.48181 4.48462 5.4721 4.48462ZM5.47204 10.0806C4.36697 10.0806 3.46796 9.18997 3.46796 8.09524C3.46796 7.0005 4.36697 6.1099 5.47204 6.1099C6.57711 6.1099 7.47612 7.0005 7.47612 8.09524C7.47612 9.18997 6.57711 10.0806 5.47204 10.0806Z" fill="#00ac8a"/>
<path d="M13.9999 0C11.3149 0 9.13062 2.1639 9.13062 4.82373C9.13062 7.48356 11.3149 9.64746 13.9999 9.64746C16.6848 9.64746 18.8691 7.48356 18.8691 4.82373C18.8691 2.16395 16.6848 0 13.9999 0ZM13.9999 8.02218C12.2196 8.02218 10.7712 6.58738 10.7712 4.82373C10.7712 3.06013 12.2196 1.62528 13.9999 1.62528C15.7802 1.62528 17.2285 3.06008 17.2285 4.82373C17.2285 6.58738 15.7802 8.02218 13.9999 8.02218Z" fill="#00ac8a"/>
<path d="M22.528 4.48462C20.5183 4.48462 18.8833 6.10432 18.8833 8.09524C18.8834 10.0862 20.5183 11.7059 22.528 11.7059C24.5377 11.7059 26.1727 10.0862 26.1727 8.09524C26.1727 6.10432 24.5377 4.48462 22.528 4.48462ZM22.528 10.0806C21.423 10.0806 20.5239 9.18997 20.5239 8.09524C20.524 7.0005 21.423 6.1099 22.528 6.1099C23.6331 6.1099 24.5321 7.0005 24.5321 8.09524C24.5321 9.18997 23.6331 10.0806 22.528 10.0806Z" fill="#00ac8a"/>
</svg>
