<svg width="31" height="30" viewBox="0 0 31 30" fill="none" xmlns="http://www.w3.org/2000/svg">
<path fill-rule="evenodd" clip-rule="evenodd" d="M16.6458 26.9336H2.40833C2.33325 26.9336 2.261 26.9039 2.20858 26.8514C2.15475 26.7976 2.125 26.7254 2.125 26.6503V24.5961C2.125 23.4203 2.96508 22.3833 4.25992 21.5007C6.57192 19.9239 10.3133 18.9294 14.5208 18.9294C15.1073 18.9294 15.5833 18.4534 15.5833 17.8669C15.5833 17.2804 15.1073 16.8044 14.5208 16.8044C9.81467 16.8044 5.64825 17.9817 3.06142 19.7454C1.088 21.0913 0 22.8012 0 24.5961V26.6503C0 27.2892 0.253583 27.9026 0.7055 28.3531C1.15742 28.805 1.76942 29.0586 2.40833 29.0586H16.6458C17.2323 29.0586 17.7083 28.5826 17.7083 27.9961C17.7083 27.4096 17.2323 26.9336 16.6458 26.9336Z" fill="#00ac8a"/>
<path fill-rule="evenodd" clip-rule="evenodd" d="M14.5208 0C10.2198 0 6.72913 3.49067 6.72913 7.79167C6.72913 12.0912 10.2198 15.5833 14.5208 15.5833C18.8218 15.5833 22.3125 12.0912 22.3125 7.79167C22.3125 3.49067 18.8218 0 14.5208 0ZM14.5208 2.125C17.6488 2.125 20.1875 4.66367 20.1875 7.79167C20.1875 10.9182 17.6488 13.4583 14.5208 13.4583C11.3928 13.4583 8.85413 10.9182 8.85413 7.79167C8.85413 4.66367 11.3928 2.125 14.5208 2.125Z" fill="#00ac8a"/>
<path fill-rule="evenodd" clip-rule="evenodd" d="M22.27 29.4566C22.4683 29.655 22.7389 29.7669 23.0208 29.7669C23.3027 29.7669 23.5733 29.655 23.7716 29.4566L29.0544 24.1739C30.9258 22.3025 30.9258 19.2623 29.0544 17.3895C27.4153 15.7518 24.8823 15.5464 23.0208 16.7761C21.1593 15.5464 18.6263 15.7518 16.9872 17.3895C15.1229 19.2552 15.1158 22.2784 16.966 24.1526L22.27 29.4566ZM23.0208 27.2027L18.4761 22.6581C17.4476 21.614 17.4519 19.931 18.4903 18.8926C19.533 17.8499 21.2273 17.8499 22.27 18.8926C22.685 19.3076 23.3565 19.3076 23.7716 18.8926C24.8157 17.8499 26.5086 17.8499 27.5513 18.8926C28.594 19.9352 28.594 21.6281 27.5513 22.6722L23.0208 27.2027Z" fill="#00ac8a"/>
</svg>
