<svg width="25" height="17" viewBox="0 0 25 17" fill="none" xmlns="http://www.w3.org/2000/svg">
<path d="M1.29315 17C1.46299 17.0002 1.63121 16.9673 1.78813 16.9033C1.94505 16.8392 2.08758 16.7451 2.20753 16.6266L9.48279 9.45311L12.4477 12.3766C12.5678 12.495 12.7103 12.5889 12.8672 12.653C13.0241 12.7171 13.1923 12.75 13.3621 12.75C13.5319 12.75 13.7001 12.7171 13.857 12.653C14.0138 12.5889 14.1564 12.495 14.2765 12.3766L22.4133 4.35365L22.4128 7.225C22.4128 7.56315 22.5491 7.88745 22.7916 8.12656C23.0341 8.36567 23.363 8.5 23.7059 8.5C24.0489 8.5 24.3778 8.36567 24.6203 8.12656C24.8628 7.88745 24.999 7.56315 24.999 7.225L25 1.275C25 0.936849 24.8638 0.612548 24.6213 0.373439C24.3788 0.13433 24.0499 0 23.7069 0H17.6724C17.3295 0 17.0006 0.13433 16.7581 0.373439C16.5156 0.612548 16.3793 0.936849 16.3793 1.275C16.3793 1.61315 16.5156 1.93745 16.7581 2.17656C17.0006 2.41567 17.3295 2.55 17.6724 2.55H20.5851L13.3621 9.67188L10.3972 6.74842C10.2771 6.63001 10.1345 6.53609 9.97765 6.47201C9.82076 6.40793 9.65261 6.37495 9.48279 6.37495C9.31297 6.37495 9.14482 6.40793 8.98792 6.47201C8.83103 6.53609 8.68848 6.63001 8.5684 6.74842L0.378765 14.8234C0.197912 15.0017 0.0747482 15.2289 0.0248497 15.4762C-0.0250487 15.7236 0.000558992 15.9799 0.0984346 16.2129C0.19631 16.4459 0.362058 16.645 0.574716 16.7851C0.787374 16.9252 1.03739 17 1.29315 17Z" fill="#00ac8a"/>
</svg>
