<svg width="87" height="56" viewBox="0 0 87 56" fill="none" xmlns="http://www.w3.org/2000/svg">
<g clip-path="url(#clip0_109_1192)">
<path d="M86.9998 26.2918C86.9999 28.5198 86.1517 30.6657 84.6248 32.3006C83.0978 33.9355 81.0046 34.9389 78.7637 35.1102C78.6882 35.1158 78.6115 35.1215 78.5349 35.1249V26.7306C78.535 26.6467 78.5161 26.5639 78.4797 26.4882C78.4433 26.4124 78.3902 26.3457 78.3244 26.293C78.3168 26.2852 78.3084 26.2784 78.2992 26.2725C78.2909 26.2658 78.2821 26.2598 78.2729 26.2544C78.1926 26.2031 78.1005 26.1726 78.0052 26.1657C77.9099 26.1588 77.8143 26.1756 77.7273 26.2147L77.6323 26.0083C77.7362 25.9615 77.8489 25.9371 77.9629 25.9369L71.4473 20.3729C71.4976 20.3162 71.5502 20.2606 71.6028 20.205C72.8312 18.9215 74.4196 18.0326 76.1629 17.6532C77.9062 17.2738 79.7242 17.4213 81.382 18.0767C83.0399 18.732 84.4613 19.8652 85.4628 21.3296C86.4642 22.7941 86.9996 24.5226 86.9998 26.2918Z" fill="#F8FAFF"/>
<path d="M2.26221 32.3225C2.22981 32.1584 2.2341 31.9892 2.27478 31.827C2.31545 31.6647 2.39153 31.5132 2.49765 31.3832C2.60378 31.2533 2.73736 31.1479 2.88899 31.0747C3.04062 31.0014 3.20662 30.962 3.37528 30.9592L8.51852 24.8901L9.80255 26.5175L4.56087 32.1657C4.54683 32.4469 4.42923 32.7132 4.23035 32.9142C4.03146 33.1152 3.76512 33.2369 3.48178 33.2562C3.19844 33.2755 2.9178 33.1911 2.69302 33.019C2.46825 32.847 2.31496 32.5991 2.26221 32.3225Z" fill="#FFB8B8"/>
<path d="M26.6859 24.8527C26.6499 24.9043 26.618 24.9586 26.5906 25.0152L20.9747 25.8109L20.122 24.7377L18.3198 25.8018L20.0138 28.4199L26.863 26.4185C27.0437 26.5807 27.27 26.6845 27.5117 26.7161C27.7534 26.7477 27.9991 26.7056 28.2161 26.5954C28.4331 26.4853 28.6111 26.3122 28.7264 26.0993C28.8418 25.8864 28.889 25.6437 28.8619 25.4036C28.8347 25.1634 28.7344 24.9371 28.5743 24.7548C28.4143 24.5726 28.202 24.4429 27.9658 24.3831C27.7296 24.3233 27.4806 24.3362 27.252 24.4201C27.0233 24.5039 26.8259 24.6548 26.6859 24.8527Z" fill="#FFB8B8"/>
<path d="M17.0928 45.1303L18.0866 46.1111L22.3762 42.7783L20.9095 41.3307L17.0928 45.1303Z" fill="#FFB8B8"/>
<path d="M19.0845 48.9175L15.9612 45.8348L17.1627 44.6386L19.0793 46.5303C19.2378 46.6867 19.3636 46.8725 19.4496 47.0771C19.5357 47.2817 19.5802 47.5011 19.5807 47.7228C19.5811 47.9445 19.5376 48.1641 19.4524 48.3691C19.3673 48.574 19.2423 48.7604 19.0845 48.9175Z" fill="#2F2E41"/>
<path d="M11.8103 54.5384H13.2127L13.8798 49.1764H11.8101L11.8103 54.5384Z" fill="#FFB8B8"/>
<path d="M15.9175 55.8291L11.5099 55.8293L11.5099 54.1413L14.2145 54.1412C14.4381 54.1411 14.6596 54.1848 14.8662 54.2696C15.0728 54.3544 15.2605 54.4788 15.4187 54.6355C15.5768 54.7923 15.7022 54.9783 15.7878 55.1831C15.8734 55.3879 15.9175 55.6074 15.9175 55.8291Z" fill="#2F2E41"/>
<path d="M11.5054 50.397L9.90795 38.7193C9.65796 36.9545 9.73554 35.1593 10.1369 33.4221C10.4647 32.0261 10.9075 31.0591 11.4531 30.5481C11.5392 30.468 11.6495 30.4181 11.7669 30.406L17.0411 29.8614C17.1426 29.8511 17.2451 29.8697 17.3364 29.9149C17.4278 29.9602 17.5043 30.0302 17.557 30.117L17.7303 30.4034C17.7514 30.4381 17.7684 30.4752 17.7809 30.5138L18.896 33.9404C18.9127 33.9922 18.9395 34.0401 18.975 34.0815C19.0106 34.1229 19.054 34.1569 19.1029 34.1815C20.8586 35.07 26.5615 38.0694 26.2352 39.3634C25.9285 40.5793 23.0575 42.5508 22.1848 43.126C22.096 43.1849 21.9913 43.216 21.8844 43.2152C21.7776 43.2144 21.6734 43.1817 21.5854 43.1215L20.1369 42.1391C20.0662 42.0912 20.0081 42.0271 19.9674 41.9523C19.9268 41.8775 19.9048 41.7942 19.9033 41.7092C19.9018 41.6243 19.9208 41.5403 19.9588 41.4641C19.9968 41.388 20.0526 41.3219 20.1216 41.2715L21.1205 40.5419C21.1816 40.4973 21.2293 40.4369 21.2584 40.3674C21.2876 40.2979 21.297 40.2218 21.2857 40.1473C21.2745 40.0729 21.243 40.0029 21.1946 39.9449C21.1462 39.8869 21.0827 39.843 21.0111 39.8181L15.6463 37.9522C15.5861 37.9312 15.5218 37.9242 15.4584 37.9318C15.395 37.9393 15.3342 37.9611 15.2807 37.9956C15.2272 38.03 15.1823 38.0762 15.1496 38.1306C15.1169 38.1849 15.0971 38.2459 15.0919 38.309L14.1028 50.2929C14.0919 50.4214 14.0344 50.5417 13.9409 50.6314C13.8475 50.7211 13.7245 50.7742 13.5946 50.781L12.0641 50.8568C12.0548 50.8573 12.0455 50.8575 12.0363 50.8575C11.9064 50.858 11.7808 50.8115 11.683 50.7267C11.5853 50.6419 11.5221 50.5247 11.5054 50.397Z" fill="#2F2E41"/>
<path d="M13.9243 20.193C15.476 20.193 16.7338 18.9461 16.7338 17.408C16.7338 15.8699 15.476 14.623 13.9243 14.623C12.3726 14.623 11.1147 15.8699 11.1147 17.408C11.1147 18.9461 12.3726 20.193 13.9243 20.193Z" fill="#FFB8B8"/>
<path d="M11.2966 30.0711L9.22852 22.5913L9.26393 22.5677C9.30835 22.538 13.7659 19.6203 18.9849 21.9716L19.0795 22.0254L17.854 29.7889C17.8273 29.966 17.7391 30.1284 17.6045 30.248C17.4699 30.3675 17.2975 30.4368 17.1169 30.4439L12.0742 30.6361C12.0641 30.6365 12.0539 30.6367 12.0438 30.6367C11.8739 30.6371 11.7085 30.5819 11.5734 30.4796C11.4383 30.3773 11.341 30.2338 11.2966 30.0711Z" fill="#C2CCE5"/>
<path d="M9.14979 27.4608L7.42739 25.4974C7.34443 25.403 7.29772 25.2827 7.29549 25.1576C7.29327 25.0324 7.33566 24.9106 7.41521 24.8134L9.21579 22.6085L10.598 22.9822L11.3308 25.5246L9.99467 27.4168C9.94807 27.4832 9.88672 27.5381 9.81535 27.5773C9.74398 27.6165 9.6645 27.639 9.58299 27.643C9.57335 27.6434 9.56378 27.6437 9.55419 27.6437C9.47748 27.6438 9.40163 27.6276 9.33184 27.596C9.26205 27.5644 9.19995 27.5183 9.14979 27.4608Z" fill="#C2CCE5"/>
<path d="M18.6746 27.0517C18.5931 27.0477 18.5136 27.0252 18.4422 26.986C18.3709 26.9468 18.3095 26.8918 18.2629 26.8254L16.9268 24.9333L17.5694 22.257L18.8421 21.913L19.0796 22.0253L20.8424 24.2221C20.9219 24.3192 20.9643 24.4411 20.9621 24.5663C20.9599 24.6914 20.9131 24.8117 20.8302 24.9061L19.1078 26.8694C19.0576 26.927 18.9955 26.9731 18.9257 27.0047C18.8559 27.0363 18.7801 27.0525 18.7034 27.0524C18.6938 27.0524 18.6842 27.0521 18.6746 27.0517Z" fill="#C2CCE5"/>
<path d="M78.5353 26.175C78.5364 26.2033 78.5265 26.2308 78.5078 26.2522C78.4881 26.275 78.46 26.2892 78.4298 26.2915C78.3996 26.2938 78.3696 26.2842 78.3466 26.2646L77.9633 25.9369L71.4477 20.3729L53.1727 4.76473C53.0684 4.67626 52.9357 4.62774 52.7984 4.62795C52.6612 4.62816 52.5286 4.67708 52.4246 4.76586L27.8146 25.9596L27.5927 26.1501C27.5842 26.1576 27.5745 26.1637 27.5641 26.1682C27.5458 26.1763 27.5257 26.1794 27.5057 26.1773C27.4772 26.1743 27.4507 26.161 27.4314 26.1399C27.4215 26.1287 27.4139 26.1157 27.409 26.1017C27.4041 26.0876 27.4021 26.0727 27.4031 26.0578C27.404 26.043 27.4079 26.0285 27.4145 26.0151C27.4212 26.0018 27.4304 25.9898 27.4417 25.98L27.4726 25.9528L52.2747 4.59464C52.4204 4.47056 52.6061 4.40215 52.7982 4.40174C52.9903 4.40132 53.1762 4.46893 53.3225 4.59237L71.6032 20.2051L78.4953 26.0923C78.5073 26.1026 78.5171 26.1153 78.524 26.1295C78.5308 26.1438 78.5347 26.1593 78.5353 26.175Z" fill="#3F3D56"/>
<path d="M64.6404 29.5234L64.3395 28.7024L63.3031 25.8677L61.0702 19.7639L58.5742 12.9412L54.0729 0.634966C53.9846 0.394985 53.8038 0.199502 53.5704 0.0913268C53.3369 -0.0168485 53.0696 -0.0289 52.8272 0.0578112L26.8023 9.41136C26.5601 9.49888 26.3628 9.67801 26.2537 9.90948C26.1446 10.141 26.1325 10.4059 26.2201 10.6462L32.6019 28.0924L32.7105 28.3906L39.4092 31.4L41.2921 32.2459L41.5975 32.3831L49.5694 35.965L49.8783 35.8539L55.107 33.9751L62.9943 31.1403L64.057 30.7582C64.2992 30.6707 64.4967 30.4917 64.606 30.2602C64.7154 30.0288 64.7277 29.7638 64.6404 29.5234Z" fill="#D6DDEF"/>
<path d="M53.7273 14.9914C53.5975 14.6382 53.3317 14.3505 52.9882 14.1913C52.6447 14.032 52.2515 14.0144 51.8948 14.1421L41.5974 17.8443L36.6249 19.6313C36.4482 19.6946 36.2858 19.7918 36.1471 19.9174C36.0083 20.0429 35.8959 20.1943 35.8162 20.363C35.7365 20.5316 35.6911 20.7142 35.6826 20.9002C35.6741 21.0862 35.7027 21.2721 35.7668 21.4472C35.8308 21.6222 35.929 21.7831 36.0558 21.9205C36.1826 22.0579 36.3354 22.1693 36.5057 22.2481C36.6759 22.3269 36.8601 22.3717 37.0478 22.3799C37.2354 22.3882 37.4229 22.3596 37.5995 22.296L41.5974 20.8593L52.8706 16.8079C53.2269 16.6792 53.5172 16.4157 53.6778 16.0752C53.8384 15.7347 53.8562 15.3449 53.7273 14.9914Z" fill="white"/>
<path d="M55.5403 19.9488C55.4104 19.5956 55.1446 19.3079 54.8011 19.1487C54.4576 18.9894 54.0644 18.9718 53.7077 19.0995L51.9633 19.7265L41.5972 23.4525L38.4378 24.5876C38.0815 24.7159 37.7912 24.9793 37.6307 25.3197C37.4701 25.6601 37.4525 26.0498 37.5817 26.4031C37.7108 26.7564 37.9762 27.0444 38.3195 27.2038C38.6628 27.3633 39.0559 27.3811 39.4124 27.2534L41.5972 26.4676L54.6835 21.7642C54.7132 21.754 54.7418 21.7415 54.7704 21.729C55.1027 21.5845 55.3671 21.3202 55.51 20.9896C55.653 20.659 55.6638 20.287 55.5403 19.9488Z" fill="white"/>
<path d="M57.3731 24.9583C57.2436 24.6052 56.978 24.3174 56.6346 24.1582C56.2913 23.999 55.8982 23.9813 55.5417 24.109L50.6493 25.8677L46.8618 27.2295L41.5975 29.1208L40.2706 29.5982C39.964 29.709 39.7046 29.9201 39.5355 30.1968C39.3664 30.4736 39.2976 30.7992 39.3406 31.1199C39.3537 31.2154 39.3767 31.3092 39.4092 31.4L41.2921 32.2459L41.5975 32.1359H41.5998L51.1526 28.7024L56.5163 26.7748C56.8728 26.6464 57.1633 26.3829 57.324 26.0423C57.4846 25.7017 57.5023 25.3118 57.3731 24.9583Z" fill="white"/>
<path d="M46.6511 10.1179C46.5213 9.76467 46.2555 9.47693 45.912 9.31772C45.5684 9.15851 45.1752 9.14083 44.8186 9.26856L38.9046 11.3935C38.5483 11.5218 38.258 11.7852 38.0975 12.1256C37.9369 12.466 37.9193 12.8557 38.0485 13.209C38.1776 13.5623 38.443 13.8503 38.7863 14.0097C39.1296 14.1692 39.5227 14.187 39.8792 14.0593L41.7506 13.3869L42.9894 12.9413L45.7944 11.9332C46.1506 11.8048 46.4409 11.5415 46.6015 11.2012C46.7621 10.8608 46.78 10.4712 46.6511 10.1179Z" fill="white"/>
<path d="M70.252 12.9413H42.5695C42.4062 12.9414 42.2456 12.9823 42.1025 13.0602C41.9593 13.1381 41.8383 13.2505 41.7505 13.3869C41.6501 13.5414 41.5969 13.7213 41.5972 13.9051V32.3832L49.5691 35.9651L50.6924 36.4697L52.4665 37.2669C52.5704 37.3134 52.6831 37.3374 52.7971 37.3374C52.9112 37.3374 53.0239 37.3134 53.1278 37.2669L54.9019 36.4697L60.4544 33.9751L65.6295 31.6495L71.2243 29.1368V13.9051C71.2241 13.6495 71.1216 13.4045 70.9393 13.2238C70.757 13.043 70.5098 12.9414 70.252 12.9413Z" fill="#00ac8a"/>
<path d="M64.5328 25.8677H48.2893C47.92 25.8679 47.5651 26.0098 47.2989 26.2637C47.0328 26.5175 46.8761 26.8637 46.8618 27.2295C46.8599 27.2479 46.8591 27.2665 46.8595 27.2851C46.86 27.6608 47.0108 28.021 47.2789 28.2867C47.5469 28.5524 47.9103 28.7019 48.2893 28.7024H64.5328C64.912 28.7024 65.2757 28.5531 65.5439 28.2873C65.812 28.0215 65.9627 27.661 65.9627 27.2851C65.9627 26.9091 65.812 26.5486 65.5439 26.2828C65.2757 26.017 64.912 25.8677 64.5328 25.8677Z" fill="white"/>
<path d="M65.4581 31.4783C65.2003 31.2596 64.872 31.1398 64.5327 31.1404H48.2893C47.91 31.1404 47.5463 31.2897 47.2782 31.5555C47.01 31.8213 46.8594 32.1818 46.8594 32.5578C46.8594 32.9337 47.01 33.2942 47.2782 33.56C47.5463 33.8258 47.91 33.9751 48.2893 33.9751H60.4547L65.6297 31.6495C65.5775 31.5877 65.5201 31.5305 65.4581 31.4783Z" fill="white"/>
<path d="M50.6924 36.4697L52.4666 37.2669C52.5704 37.3134 52.6831 37.3374 52.7972 37.3374C52.9112 37.3374 53.0239 37.3134 53.1278 37.2669L54.9019 36.4697H50.6924Z" fill="white"/>
<path d="M60.8998 19.8251C60.7991 19.5522 60.6163 19.3166 60.3761 19.1501C60.1359 18.9836 59.8499 18.8943 59.5568 18.8942H53.2653C52.9907 18.8944 52.7219 18.973 52.491 19.1206C52.2602 19.2682 52.0771 19.4785 51.9636 19.7264C51.8788 19.9101 51.8351 20.1096 51.8355 20.3115C51.836 20.6873 51.9868 21.0475 52.2548 21.3132C52.5229 21.5789 52.8863 21.7284 53.2653 21.7289H59.5568C59.7868 21.7289 60.0135 21.6739 60.2175 21.5686C60.4215 21.4633 60.5968 21.3107 60.7286 21.1238C60.8605 20.937 60.9448 20.7213 60.9746 20.4952C61.0044 20.2691 60.9787 20.0393 60.8998 19.8251Z" fill="white"/>
<path d="M59.8997 33.9751L54.3471 36.4697L53.0328 37.0605C52.9587 37.0935 52.8784 37.1106 52.7972 37.1106C52.7159 37.1106 52.6356 37.0935 52.5615 37.0605L51.2472 36.4697H50.6924L52.4666 37.2668C52.5705 37.3134 52.6832 37.3374 52.7972 37.3374C52.9112 37.3374 53.0239 37.3134 53.1278 37.2668L54.9019 36.4697L60.4545 33.9751H59.8997ZM59.8997 33.9751L54.3471 36.4697L53.0328 37.0605C52.9587 37.0935 52.8784 37.1106 52.7972 37.1106C52.7159 37.1106 52.6356 37.0935 52.5615 37.0605L51.2472 36.4697H50.6924L52.4666 37.2668C52.5705 37.3134 52.6832 37.3374 52.7972 37.3374C52.9112 37.3374 53.0239 37.3134 53.1278 37.2668L54.9019 36.4697L60.4545 33.9751H59.8997ZM59.8997 33.9751L54.3471 36.4697L53.0328 37.0605C52.9587 37.0935 52.8784 37.1106 52.7972 37.1106C52.7159 37.1106 52.6356 37.0935 52.5615 37.0605L51.2472 36.4697H50.6924L52.4666 37.2668C52.5705 37.3134 52.6832 37.3374 52.7972 37.3374C52.9112 37.3374 53.0239 37.3134 53.1278 37.2668L54.9019 36.4697L60.4545 33.9751H59.8997ZM78.535 26.175C78.4928 26.1334 78.4464 26.0962 78.3966 26.0639C78.2842 25.9917 78.1553 25.9487 78.0217 25.939C77.8881 25.9293 77.7543 25.9531 77.6324 26.0083L65.4579 31.4783L59.8997 33.9751L54.3471 36.4697L53.0328 37.0605C52.9587 37.0935 52.8784 37.1106 52.7972 37.1106C52.7159 37.1106 52.6356 37.0935 52.5615 37.0605L51.2472 36.4697L49.8779 35.854L41.5995 32.1359L41.5972 32.1348L39.3403 31.12L32.6016 28.0924L27.9619 26.0083C27.9147 25.9867 27.8652 25.9703 27.8143 25.9596C27.7023 25.9318 27.5854 25.9295 27.4723 25.9528C27.2914 25.9895 27.1288 26.0869 27.0119 26.2286C26.895 26.3703 26.8309 26.5476 26.8306 26.7306V55.2063C26.8308 55.4167 26.9152 55.6185 27.0654 55.7673C27.2155 55.9161 27.419 55.9998 27.6313 56H77.9631C78.1754 55.9998 78.3789 55.9161 78.529 55.7673C78.6791 55.6185 78.7636 55.4167 78.7638 55.2063V26.7306C78.7642 26.5228 78.682 26.3232 78.535 26.175ZM78.535 55.2063C78.5349 55.3566 78.4747 55.5008 78.3674 55.6071C78.2602 55.7134 78.1147 55.7732 77.963 55.7732H27.6313C27.4796 55.7732 27.3342 55.7134 27.2269 55.6071C27.1197 55.5008 27.0594 55.3566 27.0593 55.2063V26.7306C27.0594 26.6359 27.0834 26.5426 27.1291 26.4594C27.1749 26.3763 27.241 26.3058 27.3213 26.2544C27.3778 26.2185 27.4401 26.1924 27.5054 26.1773C27.5247 26.1732 27.5442 26.1701 27.5638 26.1682C27.5862 26.165 27.6087 26.1635 27.6313 26.1637C27.7126 26.1638 27.793 26.1812 27.8669 26.2147L32.7102 28.3907L39.4089 31.4L41.2918 32.2459L41.5972 32.3831L49.5691 35.9651L50.6924 36.4697L52.4666 37.2668C52.5705 37.3134 52.6832 37.3374 52.7972 37.3374C52.9112 37.3374 53.0239 37.3134 53.1278 37.2668L54.9019 36.4697L60.4545 33.9751L65.6295 31.6495L77.7274 26.2147C77.8144 26.1756 77.91 26.1588 78.0053 26.1657C78.1006 26.1726 78.1927 26.2031 78.273 26.2544C78.2823 26.2598 78.291 26.2658 78.2993 26.2725C78.3085 26.2784 78.3169 26.2852 78.3245 26.2929C78.3903 26.3457 78.4434 26.4124 78.4798 26.4881C78.5162 26.5639 78.5351 26.6467 78.535 26.7306L78.535 55.2063ZM59.8997 33.9751L54.3471 36.4697L53.0328 37.0605C52.9587 37.0935 52.8784 37.1106 52.7972 37.1106C52.7159 37.1106 52.6356 37.0935 52.5615 37.0605L51.2472 36.4697H50.6924L52.4666 37.2668C52.5705 37.3134 52.6832 37.3374 52.7972 37.3374C52.9112 37.3374 53.0239 37.3134 53.1278 37.2668L54.9019 36.4697L60.4545 33.9751H59.8997ZM59.8997 33.9751L54.3471 36.4697L53.0328 37.0605C52.9587 37.0935 52.8784 37.1106 52.7972 37.1106C52.7159 37.1106 52.6356 37.0935 52.5615 37.0605L51.2472 36.4697H50.6924L52.4666 37.2668C52.5705 37.3134 52.6832 37.3374 52.7972 37.3374C52.9112 37.3374 53.0239 37.3134 53.1278 37.2668L54.9019 36.4697L60.4545 33.9751H59.8997ZM41.2918 32.2459L41.5972 32.3831V32.1359L41.2918 32.2459ZM59.8997 33.9751L54.3471 36.4697L53.0328 37.0605C52.9587 37.0935 52.8784 37.1106 52.7972 37.1106C52.7159 37.1106 52.6356 37.0935 52.5615 37.0605L51.2472 36.4697H50.6924L52.4666 37.2668C52.5705 37.3134 52.6832 37.3374 52.7972 37.3374C52.9112 37.3374 53.0239 37.3134 53.1278 37.2668L54.9019 36.4697L60.4545 33.9751H59.8997Z" fill="#3F3D56"/>
<path d="M20.0786 56H7.15248C7.12214 56 7.09304 55.988 7.07159 55.9668C7.05014 55.9455 7.03809 55.9167 7.03809 55.8866C7.03809 55.8565 7.05014 55.8277 7.07159 55.8064C7.09304 55.7851 7.12214 55.7732 7.15248 55.7732H20.0786C20.1089 55.7732 20.138 55.7851 20.1595 55.8064C20.1809 55.8277 20.193 55.8565 20.193 55.8866C20.193 55.9167 20.1809 55.9455 20.1595 55.9668C20.138 55.988 20.1089 56 20.0786 56Z" fill="#3F3D56"/>
<path d="M12.8562 19.4448C12.6452 19.3386 12.4697 19.1741 12.351 18.9712C12.2324 18.7682 12.1756 18.5355 12.1876 18.3012C12.1995 18.067 12.2798 17.8411 12.4185 17.6511C12.5573 17.4611 12.7486 17.315 12.9694 17.2306C13.8172 16.9063 14.7677 17.5681 15.6564 17.3799C16.5421 17.1924 17.0545 16.1427 16.8431 15.2697C16.6317 14.3967 15.8622 13.7391 15.0136 13.425C14.4595 13.2205 13.866 13.142 13.2771 13.1955C12.6882 13.249 12.1189 13.4331 11.6115 13.7342C11.1093 14.044 10.6911 14.4708 10.3932 14.9773C10.0952 15.4839 9.92663 16.0549 9.90201 16.6408C9.89047 17.2271 10.035 17.8062 10.321 18.3196C10.6071 18.833 11.0245 19.2626 11.5313 19.5652C11.7572 19.6942 12.0201 19.7979 12.2742 19.7398C12.4827 19.6726 12.6792 19.573 12.8562 19.4448Z" fill="#2F2E41"/>
<path d="M11.9456 13.6663C11.198 12.6834 10.1888 11.8759 9.01451 11.4756C7.84019 11.0752 6.49824 11.1074 5.39535 11.6731C4.29245 12.2389 3.46995 13.3625 3.3841 14.5905C3.24121 16.6343 5.00301 18.3717 5.18382 20.4125C5.24113 21.0594 5.1352 21.7103 4.87559 22.3065C4.61597 22.9027 4.21082 23.4255 3.69662 23.8279C3.18242 24.2302 2.57532 24.4995 1.93002 24.6114C1.28471 24.7233 0.621457 24.6743 0 24.4689C0.442638 24.83 0.955841 25.0966 1.50737 25.2517C2.0589 25.4069 2.63684 25.4473 3.20489 25.3704C3.772 25.2861 4.31306 25.0776 4.78884 24.7603C5.26462 24.4429 5.66319 24.0246 5.95565 23.5357C6.35216 22.8528 6.51498 22.0595 6.57822 21.2741C6.67755 20.0322 6.54304 18.7828 6.18155 17.5897C5.98394 16.9387 5.71594 16.2688 5.84125 15.6004C5.91268 15.2527 6.08559 14.9336 6.33849 14.6825C6.59139 14.4314 6.91314 14.2596 7.26375 14.1883C7.83036 14.083 8.40968 14.2544 8.95071 14.4517C9.49174 14.649 10.0372 14.8773 10.6135 14.8904C11.1899 14.9034 11.8176 14.6419 12.0403 14.1149L11.9456 13.6663Z" fill="#2F2E41"/>
</g>
<defs>
<clipPath id="clip0_109_1192">
<rect width="87" height="56" fill="white"/>
</clipPath>
</defs>
</svg>
