<svg width="50" height="49" viewBox="0 0 50 49" fill="none" xmlns="http://www.w3.org/2000/svg">
<g clip-path="url(#clip0_1_250)">
<path d="M33.1401 7.1247V3.26667H34.7971V0H21.5411V3.26667H23.1981V7.13148C18.1944 8.29965 13.6799 11.2397 10.667 15.3819L13.3596 17.2848C16.1429 13.4598 20.4318 10.8248 25.131 10.0544C27.1602 9.71626 29.1756 9.71546 31.2096 10.0552C40.0092 11.5059 46.3961 18.9548 46.3961 27.7667C46.3961 37.6735 38.2195 45.7333 28.1691 45.7333C22.3121 45.7333 16.7764 42.9348 13.3588 38.2469L10.6678 40.153C14.7059 45.6927 21.2482 49 28.1691 49C40.0473 49 49.7101 39.4752 49.7101 27.7667C49.7101 17.8218 42.8178 9.36156 33.1401 7.1247ZM26.5121 6.60391V3.26667H29.8261V6.60401C28.721 6.51917 27.6155 6.51927 26.5121 6.60391Z" fill="#4CAC00"/>
<path d="M0 26.1333H14.913V29.4H0V26.1333Z" fill="#4CAC00"/>
<path d="M3.31401 19.6H18.2271V22.8666H3.31401V19.6Z" fill="#4CAC00"/>
<path d="M3.31401 32.6666H18.2271V35.9333H3.31401V32.6666Z" fill="#4CAC00"/>
<path d="M36.3594 17.3837L30.2989 23.3576C29.6508 23.052 28.9342 22.8667 28.1691 22.8667C25.4279 22.8667 23.1981 25.0646 23.1981 27.7667C23.1981 30.4687 25.4279 32.6667 28.1691 32.6667C30.9103 32.6667 33.1401 30.4687 33.1401 27.7667C33.1401 27.0125 32.9521 26.3061 32.642 25.6673L38.7025 19.6933L36.3594 17.3837ZM28.1691 29.4C27.2556 29.4 26.5121 28.6671 26.5121 27.7667C26.5121 26.8662 27.2556 26.1333 28.1691 26.1333C29.0825 26.1333 29.8261 26.8662 29.8261 27.7667C29.8261 28.6671 29.0825 29.4 28.1691 29.4Z" fill="#4CAC00"/>
</g>
<defs>
<clipPath id="clip0_1_250">
<rect width="49.7101" height="49" fill="white"/>
</clipPath>
</defs>
</svg>
