<svg width="49" height="49" viewBox="0 0 49 49" fill="none" xmlns="http://www.w3.org/2000/svg">
<g clip-path="url(#clip0_1_246)">
<path d="M43.1099 33.839L39.1459 27.0441C39.8354 21.1166 37.407 15.2341 32.5652 11.5865V4.90036C32.9881 5.24642 33.3255 5.92295 34.1824 5.92295C35.4498 5.92295 36.1045 4.37926 35.1974 3.47228L32.1449 0.419826C31.5846 -0.140707 30.6728 -0.139176 30.1142 0.419826L27.0618 3.47228C26.5012 4.03291 26.5012 4.94189 27.0618 5.50243C27.6224 6.06315 28.5313 6.06315 29.0919 5.50243L29.6941 4.90026V9.84429C27.457 8.77586 24.9867 8.20231 22.4484 8.20231C7.6663 8.20231 -0.0246892 26.1474 10.4576 36.8097V47.4857C10.4576 48.2754 11.0954 48.9168 11.8852 48.9212C24.807 48.9932 26.0107 49 26.0269 49C26.8196 49 27.4625 48.3569 27.4625 47.5644V45.4481H33.1454C35.2022 45.4481 36.8755 43.7759 36.8755 41.7204V36.8604H41.375C42.9144 36.8604 43.8927 35.1864 43.1099 33.839ZM35.4399 33.9892C34.6471 33.9892 34.0044 34.632 34.0044 35.4248V41.7203C34.0044 42.1927 33.6191 42.5769 33.1454 42.5769H26.0269C25.2341 42.5769 24.5914 43.2196 24.5914 44.0124V46.1207L13.3286 46.0581V39.15C13.851 39.4877 14.3935 39.7973 14.9535 40.0765C15.6629 40.43 16.525 40.142 16.8788 39.4324C17.2326 38.7229 16.9442 37.8609 16.2348 37.507C11.4675 35.1295 8.50351 30.345 8.50351 25.0185C8.50351 14.1565 20.4386 7.47449 29.694 13.1047V25.2063C29.694 29.1642 26.4741 32.3841 22.5163 32.3841C18.5585 32.3841 15.3385 29.1642 15.3385 25.2063C15.3385 20.2383 20.2847 16.7789 24.9334 18.447C25.6795 18.7152 26.5017 18.3269 26.7695 17.5807C27.0373 16.8344 26.6494 16.0124 25.9032 15.7447C19.3812 13.4038 12.4674 18.2635 12.4674 25.2063C12.4674 30.7474 16.9753 35.2553 22.5163 35.2553C28.0572 35.2553 32.5651 30.7474 32.5651 25.2063V15.4222C35.5393 18.556 36.8801 22.7536 36.2384 27.1358C36.1912 27.4578 36.2548 27.7862 36.4188 28.0673L39.8737 33.9893L35.4399 33.9892Z" fill="#4CAC00"/>
<path d="M22.5163 20.8995C20.1416 20.8995 18.2096 22.8315 18.2096 25.2063C18.2096 27.5811 20.1416 29.513 22.5163 29.513C24.8909 29.513 26.8229 27.5811 26.8229 25.2063C26.8229 22.8315 24.8909 20.8995 22.5163 20.8995ZM22.5163 26.6418C21.7247 26.6418 21.0807 25.9978 21.0807 25.2063C21.0807 24.4146 21.7247 23.7707 22.5163 23.7707C23.3078 23.7707 23.9518 24.4147 23.9518 25.2063C23.9518 25.9979 23.3078 26.6418 22.5163 26.6418Z" fill="#4CAC00"/>
</g>
<defs>
<clipPath id="clip0_1_246">
<rect width="49" height="49" fill="white"/>
</clipPath>
</defs>
</svg>
